<?xml version="1.0" encoding="utf-8"?>
<!-- Generator: Adobe Illustrator 22.1.0, SVG Export Plug-In . SVG Version: 6.00 Build 0)  -->
<svg version="1.1" id="图层_1" xmlns="http://www.w3.org/2000/svg" xmlns:xlink="http://www.w3.org/1999/xlink" x="0px" y="0px"
	 viewBox="0 0 110 36" style="enable-background:new 0 0 110 36;" xml:space="preserve">
<style type="text/css">
	.st0{fill:#CF111B;}
	.st1{fill:#231815;}
</style>
<g>
	<g>
		<path class="st0" d="M27.2,11h8c-2.1-4.9-6.3-8.7-11.6-10.3v6.8C23.7,9.5,25.2,11,27.2,11z"/>
		<path class="st0" d="M37.3,16.3L37.3,16.3L37.3,16.3H25.4c-1,0-1.8,0.8-1.8,1.7v0.6c0,1,0.8,1.7,1.8,1.7H29c0.7,0,1.2,0.5,1.2,1.2
			l0,0c0,1.9-1.6,3.5-3.5,3.5h-3h-3.5h-3.5c-2,0-3.5-1.6-3.5-3.5v-5.8v-1.2c0-1.9,1.6-3.5,3.5-3.5s3.5-1.6,3.5-3.5V0.1
			C19.5,0,18.9,0,18.3,0C8.2,0,0,8.1,0,18c0,9.8,7.9,17.7,17.8,18c8.8,0,16.2-6.4,17.5-14.7l0,0c0.1-0.6,0.6-1,1.2-1h0.1l0,0h0.7
			l0,0h0.1c1,0,1.8-0.8,1.8-1.7V18C39.1,17,38.3,16.3,37.3,16.3z"/>
	</g>
	<g>
		<path class="st1" d="M61.2,7.4V5.6h-9.6v1.8H54v2h-2.4v1.8H54V16h-2.4v1.8h7.9c1.5,0,1.8-0.3,1.8-1.8v-3H59v2.4
			c0,0.5,0.1,0.6-0.5,0.6h-0.9v-4.8h3.7V9.4h-3.7v-2C57.6,7.4,61.2,7.4,61.2,7.4z"/>
		<path class="st1" d="M94.6,16.5V5.7h-3.7v14.7h17.4c1,0,1.6-0.6,1.6-1.6H92.7C93.9,18.6,94.6,17.8,94.6,16.5z"/>
		<polygon class="st1" points="85.7,13.5 86,20.4 88.4,20.4 88.2,13.5 		"/>
		<polygon class="st1" points="78.3,20.4 80.6,20.4 80.9,13.5 78.6,13.5 		"/>
		<path class="st1" d="M82,9.5L82,9.5v0.4h2.3V8h1.6v1.9c0,0.9-0.2,1.1-0.8,1.1H81V5.6l0,0l0,0l0.9-1.5h-2.7l-0.9,1.5v7.2h3.6v7.6
			H83c1.4,0,1.8-0.4,1.8-1.7v-5.9H87c1.2,0,1.5-0.4,1.5-1.8V5.7H82V9.5z"/>
		<rect x="68.8" y="5.7" class="st1" width="3.7" height="1.8"/>
		<path class="st1" d="M62.4,17.8c0.1,0.7-0.3,1-1,0.9H50.3V4.2h22.2V2.4H46.4v18h18.2c1.2,0.1,1.7-0.5,1.6-1.6V5.6h-3.9L62.4,17.8
			L62.4,17.8z"/>
		<path class="st1" d="M73.7,2.4v16.4h-1.2V8.7h-3.7v11.7h6.7l0,0l0,0c1.3,0,1.6-0.5,1.6-1.6V4.2h17.3V2.4H73.7z"/>
		<path class="st1" d="M110,4.2V2.4l0,0H96l0,0v1.8h8.8l-3,1.5H96v12.1h3.2v-3.2h2v3.2h3.9v-3.2h1.8v3.2h1.8c1,0,1.4-0.4,1.4-1.8
			V5.7h-3L110,4.2L110,4.2z M101.2,12.8h-2v-1.9h2V12.8z M101.2,9.1h-2V7.7h2V9.1z M106.8,12.8H105v-1.9h1.8V12.8z M106.8,9.1H105
			V7.7h1.8V9.1z"/>
	</g>
	<g>
		<path class="st0" d="M68.3,26.8c0.1,0,0.2,0,0.2,0c0.1,0,0.2,0,0.2,0s0.1,0,0.2,0s0.2-0.1,0.3-0.1c0.1-0.1,0.2-0.1,0.3-0.2
			c0.1-0.1,0.1-0.1,0.2-0.2c0,0,0-0.1,0.1-0.2c0-0.1,0.1-0.2,0.1-0.3c0-0.1,0-0.2,0.1-0.3c0-0.1,0-0.1-0.1-0.2
			c-0.1,0-0.1-0.1-0.3-0.1c-0.1,0-0.2,0-0.3,0c-0.1,0-0.1,0-0.2,0.1s-0.2,0.2-0.3,0.3c-0.1,0-0.3,0.1-0.5,0.3
			c-0.2,0.2-0.3,0.3-0.3,0.4s0,0.2,0.1,0.3C68.1,26.7,68.2,26.7,68.3,26.8z"/>
		<g>
			<path class="st0" d="M60.9,24.3c-0.1-0.2-0.1-0.3-0.2-0.3c0,0-0.1-0.1-0.3-0.3c-0.1-0.1-0.2-0.2-0.3-0.3
				c-0.1-0.1-0.1-0.1-0.2-0.1c-0.1,0-0.2-0.1-0.4-0.1c-0.1,0-0.2-0.1-0.4-0.1H59h-0.2l-0.7,0.1c-0.1,0-0.3,0.1-0.4,0.1
				c-0.1,0-0.2,0.1-0.3,0.1c-0.2,0.1-0.3,0.1-0.4,0.2c-0.1,0.1-0.3,0.1-0.4,0.2c0,0-0.1,0.1-0.2,0.2c-0.1,0.1-0.3,0.2-0.5,0.4
				c-0.6,0.4-1,0.9-1.4,1.5c-0.3,0.6-0.6,1.2-0.7,1.9l-0.1,0.9c0,0.1,0,0.2,0,0.3c0,0.1,0,0.2-0.1,0.3c0.1,0.2,0.1,0.4,0.2,0.5
				c0,0.1,0.1,0.2,0.1,0.3c0.1,0.2,0.2,0.3,0.3,0.4s0.2,0.2,0.3,0.3c0.1,0.1,0.3,0.1,0.4,0.2c0.1,0,0.2,0.1,0.4,0.1
				c0.1,0,0.2,0,0.3,0L56,31c0.2,0,0.4-0.1,0.6-0.1c0.2-0.1,0.4-0.1,0.6-0.3c0.1,0,0.2-0.1,0.4-0.2s0.4-0.2,0.6-0.4
				c0.1-0.1,0.3-0.2,0.4-0.3h0.1c0,0,0,0,0,0.1s0,0.1-0.1,0.2l0.1,0.4c-0.1,0.2-0.1,0.5-0.2,0.6c0,0.2-0.1,0.3-0.1,0.4
				c0,0.2,0,0.3,0,0.4s0,0.2-0.1,0.3c0,0.1-0.1,0.2-0.1,0.3s0,0.1,0,0.2c0,0.1,0,0.2,0.1,0.2c0,0,0.1,0.1,0.2,0.1
				c0.1,0,0.2,0,0.2-0.1c0,0,0.1-0.1,0.1-0.2c0.1,0,0.2-0.1,0.3-0.1s0.1-0.1,0.2-0.1c0.1,0,0.1-0.1,0.1-0.1c0-0.1,0.1-0.1,0.1-0.2
				c0-0.1,0.1-0.2,0.1-0.3c0-0.1,0.1-0.1,0.1-0.2c0.1-0.1,0.2-0.3,0.2-0.6c0.1-0.3,0.1-0.5,0.2-0.6c0.1-0.1,0.1-0.2,0.2-0.4
				c0-0.1,0.1-0.3,0.1-0.5c0-0.1,0-0.3,0.1-0.4c0-0.1,0-0.2,0-0.3c0,0,0-0.1,0.1-0.2c0-0.1,0.1-0.1,0.1-0.2s0-0.2-0.1-0.3
				C60.5,28,60.3,28,60.1,28c-0.1,0-0.3,0-0.4,0.1c-0.1,0.1-0.2,0.1-0.3,0.2s-0.2,0.2-0.2,0.3c-0.1,0.1-0.2,0.2-0.3,0.3
				c-0.1,0.1-0.2,0.1-0.2,0.2c-0.1,0.1-0.1,0.1-0.2,0.1c-0.2,0.2-0.4,0.3-0.5,0.5c-0.1,0.1-0.2,0.2-0.3,0.2c-0.3,0-0.5,0.1-0.7,0.1
				c-0.2,0.1-0.4,0.1-0.6,0.1c-0.1,0-0.3,0-0.4,0c-0.1,0-0.2-0.1-0.3-0.1s-0.1-0.1-0.2-0.2c-0.1-0.1-0.1-0.2-0.2-0.3
				c-0.1-0.2-0.1-0.3-0.2-0.5c0-0.2-0.1-0.3-0.1-0.5c0-0.1,0-0.2,0.1-0.5c0-0.2,0.1-0.6,0.2-1c0-0.1,0.1-0.2,0.1-0.3
				c0-0.1,0.1-0.2,0.1-0.3c0-0.1,0-0.1,0.1-0.2v-0.1c0.1-0.1,0.1-0.2,0.2-0.2c0-0.1,0.1-0.2,0.1-0.3c0.1-0.1,0.2-0.2,0.3-0.3
				c0.1-0.1,0.1-0.2,0.2-0.2c0-0.1,0.1-0.1,0.1-0.1l0.1-0.1c0.2-0.2,0.3-0.3,0.4-0.4c0.1-0.1,0.2-0.2,0.3-0.2
				c0.1-0.1,0.3-0.2,0.4-0.2c0.2,0,0.3-0.1,0.5-0.1c0.3,0,0.6,0.1,0.8,0.3c0.2,0.2,0.4,0.5,0.6,1c0,0.1,0.1,0.2,0.1,0.4
				c0,0.1,0,0.2,0.1,0.2c0,0,0.1,0.1,0.2,0.1c0.2,0,0.4-0.1,0.6-0.3c0.3-0.2,0.4-0.4,0.4-0.5s0-0.2-0.1-0.4
				C61,24.5,60.9,24.4,60.9,24.3z"/>
			<path class="st0" d="M85.5,23.9c0,0,0.1,0,0.2,0s0.3,0,0.4-0.1c0.2,0.1,0.4,0.1,0.6,0.1s0.4,0,0.6,0h0.1v-0.1c0,0,0-0.1,0-0.2
				s0-0.1,0-0.1c0-0.1,0-0.1,0-0.2s0-0.1,0-0.2s0-0.1-0.1-0.2c0,0-0.1-0.1-0.2-0.1C87.1,23,87,23,87,23c-0.1,0-0.1-0.1-0.2-0.1
				s-0.1,0-0.1,0h-0.2c-0.1,0-0.2,0-0.2,0s-0.1,0-0.2,0s-0.2,0-0.3,0c-0.1,0-0.2,0-0.2,0c-0.3,0-0.6,0-0.8,0c-0.2,0-0.5,0.1-0.7,0.1
				s-0.4,0-0.6,0s-0.4,0.1-0.6,0.1c-0.1,0-0.2,0.1-0.3,0.1c-0.1,0.1-0.1,0.1-0.2,0.2c0,0,0,0.1-0.1,0.2c0,0.1,0,0.2,0,0.3
				c-0.1,0.1-0.1,0.2-0.1,0.2c0,0.1,0,0.1,0,0.1v0.1h0.1c0.5-0.1,1-0.2,1.5-0.3c0.1,0,0.1,0,0.2,0s0.1,0,0.2,0l0.1-0.1
				c0.1,0,0.1,0,0.2,0s0.1,0,0.1,0V24c0,0.1,0,0.2,0,0.2c0,0.1,0,0.1,0,0.2c0,0.2-0.1,0.4-0.1,0.6c0,0.1-0.1,0.2-0.1,0.3
				c0,0.1,0,0.1,0.1,0.2v0.1c0,0.1-0.1,0.1-0.1,0.2v0.1V26c0,0.1,0,0.1,0,0.2s0,0.2,0,0.2c0,0.1,0,0.2,0,0.3c0,0.1,0,0.1,0,0.2
				s0,0.2,0,0.4c0,0.2,0,0.4-0.1,0.6c0,0.2-0.1,0.4-0.1,0.6s0,0.3,0,0.4c0,0.2,0,0.5,0,0.7c0,0.3,0.1,0.6,0.1,0.9c0,0,0,0.1,0.1,0.1
				v0.1c0,0.1,0,0.2-0.1,0.4c0,0,0,0.1,0.1,0.1c0,0,0.1,0,0.2,0h0.1l0.1-0.1c0.1,0,0.2-0.1,0.2-0.1s0.1,0,0.1-0.1v-0.1
				c0-0.1,0-0.1-0.1-0.2c0-0.1,0-0.2,0-0.3c0-0.2,0-0.3,0-0.3s0-0.1,0-0.2s0-0.1,0-0.2v-0.1c0-0.1,0-0.1,0-0.1
				c0-0.1,0.1-0.1,0.1-0.2c0-0.2,0.1-0.3,0.1-0.5s0.1-0.3,0.1-0.5c0-0.1,0-0.2,0.1-0.3c0-0.1,0-0.1,0-0.2s0.1-0.2,0.1-0.2
				c0-0.1,0.1-0.1,0.1-0.2s0-0.2,0.1-0.2c0-0.1,0-0.1,0-0.2s0.1-0.2,0.1-0.3c0-0.1,0.1-0.2,0.1-0.2c0-0.1,0-0.1,0-0.2s0-0.1,0-0.1
				c0-0.1,0-0.1,0.1-0.2c0-0.1,0.1-0.2,0.1-0.4c0-0.1,0-0.2,0.1-0.3c0-0.1,0-0.2,0-0.3v-0.1v-0.1c-0.1-0.1-0.1-0.2-0.1-0.3
				c0-0.1-0.1-0.1-0.1-0.1l-0.1-0.1C85.5,24,85.5,24,85.5,23.9L85.5,23.9z"/>
			<path class="st0" d="M102.6,29.5c0-0.1-0.2-0.2-0.4-0.1c-0.1,0-0.1,0.1-0.2,0.1s-0.1,0-0.1,0c-0.1,0.1-0.3,0.1-0.4,0.1
				c-0.2,0-0.3,0.1-0.5,0.1c-0.1,0-0.2,0-0.3-0.1c-0.1,0-0.2,0-0.2-0.1c-0.1,0-0.1-0.1-0.2-0.1c0-0.1-0.1-0.1-0.1-0.2v-0.1l0.1-0.1
				c0.4-0.3,0.7-0.6,1-0.8c0.2-0.2,0.4-0.5,0.5-0.6l0.1-0.2c0-0.1,0.1-0.2,0.1-0.2c0-0.1,0-0.2,0-0.3c0-0.1-0.1-0.2-0.1-0.2
				c0-0.1-0.1-0.1-0.1-0.1s-0.1-0.1-0.2-0.1s-0.2,0-0.3,0c-0.1,0-0.2,0-0.2,0c-0.1,0-0.1,0-0.2,0s-0.1,0.1-0.2,0.1s-0.1,0.1-0.2,0.1
				c-0.1,0.1-0.2,0.2-0.3,0.3c-0.1,0.1-0.2,0.2-0.3,0.3c-0.1,0.2-0.2,0.3-0.3,0.4c-0.1,0.1-0.1,0.2-0.2,0.3c0,0.1-0.1,0.2-0.1,0.2
				c0,0.1-0.1,0.1-0.1,0.2s0,0.2,0,0.2c0,0.1,0,0.3-0.1,0.4c-0.1,0.2-0.2,0.3-0.3,0.4c-0.1,0.1-0.2,0.2-0.2,0.3c0,0-0.1,0.2-0.2,0.2
				c-0.1,0.1-0.2,0.3-0.4,0.2c-0.3-0.1-0.2-0.4-0.2-0.5s-0.1-0.4-0.1-0.5c-0.1-0.2-0.1-0.4-0.2-0.7c-0.1-0.1-0.1-0.2-0.3-0.3
				C97.1,28,96.9,28,96.8,28s-0.2,0-0.3,0c-0.1,0-0.2,0.1-0.4,0.1c-0.1,0.1-0.2,0.1-0.3,0.2c-0.1,0.1-0.2,0.1-0.2,0.2l-0.1,0.1
				l-0.1,0.1c-0.1,0.1-0.2,0.1-0.2,0.2C95.1,29,95,29.1,95,29.2c-0.1,0.1-0.2,0.1-0.3,0.2c-0.1,0.1-0.1,0.1-0.2,0.2l-0.1,0.1
				c0,0,0,0-0.1,0l-0.1-0.1c0,0,0,0,0-0.1c0,0,0-0.1,0.1-0.1c0-0.1,0.1-0.1,0.1-0.2c0.2-0.4,0.3-0.7,0.4-1s0.1-0.4,0.1-0.5
				c0-0.2,0-0.3-0.1-0.4s-0.2-0.1-0.4-0.1s-0.3,0-0.5,0.1s-0.3,0.2-0.4,0.3c-0.2,0.1-0.2,0.6-0.3,0.7c-0.1,0.1-0.2,0.2-0.3,0.3
				c-0.2,0.2-0.3,0.1-0.4,0.3C92.3,28.8,92,29,91.9,29c0,0-0.5,0.1-0.6,0.2c-0.2,0,0-0.6,0-0.8c0-0.3-0.1-0.6-0.3-0.8
				c-0.7-0.6-1.5-0.5-1.6-0.5s-0.1,0-0.2,0s-0.2,0-0.3,0c-0.1,0-0.1,0-0.2,0.1s-0.1,0.1-0.2,0.2s-0.1,0.1-0.2,0.2
				c-0.1,0-0.1,0.1-0.2,0.1s-0.1,0.1-0.2,0.1c-0.1,0.1-0.3,0.3-0.3,0.4c-0.6,1-0.6,1.3-0.7,1.5s0,0.4,0,0.4c0,0.2,0.1,0.4,0.3,0.6
				c0.2,0.2,0.5,0.3,0.8,0.3c0,0,0.1,0,0.2,0s0.1,0,0.1,0c0.1,0,0.2,0,0.3,0c0.1,0,0.2-0.1,0.3-0.1c0.2-0.1,0.4-0.2,0.6-0.3
				c0.1-0.1,0.5-0.3,0.8-0.6c0.2-0.2,0.4-0.4,0.6-0.6c0.1-0.1,0.1-0.1,0.2-0.3c0,0.1,0,0.1,0.1,0.1s0.3,0,0.4,0s0.2-0.1,0.3-0.1
				c0.1,0,0.2,0,0.3-0.1c0.1-0.1,0.3,0,0.4-0.2c0.1-0.1,0.1,0,0.2-0.1c0.1,0,0.2,0,0.2,0c0.1,0,0.1,0,0.1,0s0,0,0,0.1v0.1
				c0,0,0,0.1-0.1,0.1c0,0.1,0,0.1-0.1,0.1s0,0.1,0,0.1c-0.1,0.3-0.2,0.6-0.3,0.9c-0.1,0.2-0.2,0.4-0.3,0.6c0,0.1,0,0.2,0,0.3
				c0,0.1,0.1,0.2,0.3,0.2c0.1,0,0.2,0,0.3,0c0.1,0,0.2,0,0.2-0.1c0.1,0,0.1-0.1,0.2-0.1s0.1-0.1,0.2-0.1c0.3-0.2,0.5-0.4,0.6-0.5
				c0.2-0.1,0.3-0.3,0.4-0.4c0-0.1,0.1-0.1,0.2-0.1s0.3-0.1,0.5-0.3c0.1-0.1,0.2-0.1,0.3-0.2c0.1,0,0.2-0.1,0.3-0.1h0.1
				c0.1,0.1,0.2,0.2,0.3,0.3c0.1,0.1,0.2,0.2,0.2,0.2c0.1,0.1,0.1,0.2,0.2,0.3c0.1,0.1,0.1,0.1,0.1,0.2c0.1,0.1,0.1,0.2,0.2,0.2
				s0.2,0.1,0.3,0.1c0.1,0,0.3,0,0.4-0.1c0.1,0,0.2-0.1,0.3-0.2c0.1-0.1,0.2-0.1,0.3-0.2c0.1-0.1,0.3-0.3,0.4-0.3h0.1
				c0,0,0.1,0,0.1,0.1c0,0,0.1,0.1,0.1,0.2c0.1,0.1,0.1,0.2,0.2,0.3c0,0.1,0.1,0.1,0.1,0.2c0.1,0.1,0.2,0.1,0.4,0.2
				c0.1,0,0.3,0.1,0.5,0.1c0.1,0,0.3,0,0.4,0s0.7-0.1,0.9-0.3c0.2-0.1,0.5-0.3,0.8-0.5C102.7,29.8,102.7,29.6,102.6,29.5z
				 M90.2,29.1c0,0.1,0,0.1-0.1,0.2c0,0.1-0.1,0.1-0.1,0.1c-0.1,0.1-0.1,0.1-0.2,0.2c-0.2,0.2-0.3,0.3-0.5,0.4s-0.4,0.1-0.6,0.1
				c-0.1,0-0.3,0-0.3-0.1c-0.1-0.1-0.1-0.1-0.1-0.2s0-0.1,0-0.2s0.1-0.2,0.1-0.3c0.1-0.1,0.1-0.2,0.2-0.3c0.1-0.1,0.1-0.2,0.2-0.2
				s0.1-0.1,0.2-0.1s0.1-0.1,0.2-0.1c0.1-0.1,0.2-0.1,0.2-0.2s0.1,0,0.2,0l0.1-0.1c0.2,0,0.3,0,0.4,0s0.1,0,0.2,0l0.1,0.1
				c0,0.1,0.1,0.2,0.1,0.3L90.2,29.1z M100.2,28.4C100.2,28.4,100.2,28.3,100.2,28.4c0-0.2,0.1-0.3,0.3-0.5c0.2-0.2,0.3-0.3,0.4-0.3
				h0.1c0,0,0,0,0,0.1s0,0.1,0,0.2s-0.1,0.1-0.1,0.2c0,0-0.1,0.1-0.2,0.1s-0.1,0.1-0.2,0.1l-0.1,0.1
				C100.4,28.4,100.3,28.4,100.2,28.4L100.2,28.4z"/>
			<path class="st0" d="M78.7,29.1c0-0.1,0.2-0.2,0.2-0.3c0.1-0.1,0.2-0.1,0.3-0.1c0.1-0.1,0.2-0.1,0.3-0.1c0.2-0.1,0.4-0.2,0.6-0.3
				c0.2-0.1,0.4-0.3,0.5-0.5c0.2-0.2,0.3-0.5,0.4-0.6s0.2-0.4,0.2-0.4c0-0.2,0.4-0.3,0.3-0.4s-0.2-0.1-0.3-0.1c-0.2,0-0.4,0-0.6,0
				c-0.2,0.1-1,0.3-1.2,0.4c-0.3,0.3-0.4,0.4-0.7,0.7c-0.2,0.2-0.3,0.4-0.5,0.6c-0.1,0.1-0.2,0.3-0.3,0.4c-0.1,0.1-0.1,0.2-0.1,0.3
				c-0.1,0.1-0.1,0.2-0.1,0.2c-0.1,0.1-0.2,0.5-0.3,0.6c-0.1,0.1-0.2,0.2-0.3,0.3c0,0.1-0.1,0.1-0.1,0.1s-0.1,0.2-0.2,0.2
				c-0.1,0.1-0.1,0.2-0.3,0.2c-0.1,0-0.2-0.4-0.2-0.5s-0.1-0.2-0.1-0.4c-0.1-0.2-0.2-0.4-0.3-0.7c-0.1-0.1-0.2-0.2-0.3-0.3
				c-0.1-0.1-0.3-0.1-0.4-0.1s-0.2,0-0.3,0c-0.1,0-0.2,0.1-0.4,0.1c-0.1,0.1-0.2,0.1-0.3,0.2c-0.1,0.1-0.2,0.1-0.2,0.2l-0.1,0.1
				L73.8,29c-0.1,0.1-0.2,0.1-0.2,0.2c-0.1,0.1-0.4,0.3-0.5,0.4s-0.1,0.1-0.2,0.2l-0.1,0.1c0,0,0,0-0.1,0l-0.1-0.1c0,0,0,0,0-0.1
				c0,0,0-0.1,0.1-0.1c0-0.1,0.1-0.1,0.1-0.2c0.2-0.4,0.3-0.7,0.4-1s0.1-0.4,0.1-0.5c0-0.2,0-0.3-0.1-0.4s-0.2-0.1-0.4-0.1
				c-0.2,0-0.3,0-0.5,0.1s-0.3,0.2-0.4,0.3c-0.2,0.1-0.3,0.3-0.4,0.4s-0.2,0.3-0.3,0.3c-0.2,0.2-0.3,0.4-0.4,0.5s-0.2,0.3-0.3,0.4
				c-0.1,0.1-0.2,0.3-0.3,0.3C70.1,29.8,70,29.9,70,30c0,0.1-0.4,0.3-0.4,0.4c-0.1,0.1-0.4,0.3-0.5,0.4C69,31,69,30.9,68.8,31
				c-0.2,0.1-0.3,0.3-0.4,0.3c-0.2,0-0.2-0.1-0.2-0.2c0-0.2,0.2-0.6,0.2-0.7c0.1-0.3,0.3-0.6,0.4-0.8c0.1-0.2,0.4-0.9,0.4-1.1
				c0-0.1,0-0.3-0.1-0.4c0-0.1-0.1-0.2-0.2-0.3c-0.1-0.1-0.3-0.1-0.4-0.1s-0.1,0-0.2,0s-0.1,0.1-0.2,0.1c-0.1,0.1-0.7,0.9-1,1.1
				s-0.6,0.2-0.6,0.1l-0.3-0.1l-0.1-0.2c0-0.2-0.1-0.7-0.2-0.9c-0.2-0.2-0.4-0.3-0.8-0.4s-0.7-0.1-0.7-0.1c-0.1,0-0.1,0-0.2,0
				s-0.2,0-0.3,0.1c-0.1,0-0.2,0-0.3,0.1s-0.1,0.1-0.2,0.1c-0.1,0.1-0.1,0.1-0.2,0.2c-0.1,0-0.1,0.1-0.2,0.2
				c-0.1,0.1-0.3,0.3-0.3,0.4c-0.4,0.5-0.5,0.9-0.6,1c-0.1,0.2-0.1,0.3-0.2,0.4c-0.1,0.2-0.1,0.3-0.1,0.5s0.1,0.4,0.3,0.6
				s0.5,0.3,0.8,0.3c0,0,0.1,0,0.2,0c0.1,0,0.1,0,0.1,0c0.1,0,0.2,0,0.3,0s0.2-0.1,0.4-0.1c0.2-0.1,0.4-0.2,0.6-0.2
				c0.2-0.1,0.4-0.2,0.5-0.3c0.2-0.2,0.4-0.3,0.6-0.5s0.3-0.4,0.4-0.5c0.1-0.2,0.2-0.6,0.2-0.5s0.4,0.1,0.4,0.2c0.2,0.1,0.3,0,0.4,0
				s0.4,0,0.5-0.1c0.2-0.1,0.4-0.1,0.5-0.3c0,0-0.3,0.9-0.4,1.1c0,0.2-0.2,0.4-0.2,0.5s-0.2,0.6-0.2,0.7c0,0.4,0.6,0.4,1,0.2
				c0.1,0,0.7-0.3,0.8-0.4c0.1-0.1,0.2-0.1,0.4-0.2c0.2-0.1,0.4-0.3,0.5-0.4s0.3-0.1,0.3-0.2l0,0l0,0h0.1c0.1-0.1,0.4-0.3,0.4-0.4
				c0,0,0.1-0.1,0.2-0.1c0.1-0.1,0.2-0.2,0.3-0.3c0.1-0.1,0.2-0.2,0.3-0.2c0.1,0,0.1-0.1,0.2-0.1s0.1,0,0.1,0s0,0,0,0.1v0.1
				c0,0,0,0.1-0.1,0.1c0,0.1,0,0.1-0.1,0.1v0.1c-0.1,0.3-0.2,0.6-0.3,0.9c-0.1,0.2-0.2,0.4-0.3,0.6c0,0.1,0,0.2,0,0.3
				c0,0.1,0.1,0.2,0.3,0.2c0.1,0,0.2,0,0.3,0s0.2,0,0.2-0.1c0.1,0,0.1-0.1,0.2-0.1s0.1-0.1,0.2-0.1c0.3-0.2,0.5-0.4,0.6-0.5
				c0.2-0.1,0.5-0.4,0.6-0.4c0.1-0.1,0.3-0.2,0.5-0.3c0.1-0.1,0.2-0.1,0.3-0.2c0.1,0,0.4-0.1,0.5-0.1h0.1c0.1,0.1,0.2,0.2,0.3,0.3
				c0.1,0.1,0.1,0.2,0.1,0.2c0.1,0.1,0.1,0.2,0.1,0.3c0.1,0.1,0.1,0.1,0.1,0.2c0.1,0.1,0.2,0.1,0.3,0.2c0.1,0,0.2,0.1,0.3,0.1
				c0.1,0,0.2,0,0.3,0c0.1,0,0.2-0.1,0.3-0.2c0.1-0.1,0.2-0.1,0.3-0.2c0.1-0.1,0.5-0.3,0.6-0.4c0,0.1,0.1,0.1,0.1,0.1
				c0,0.2,0,0.3,0.1,0.5s0,0.3,0.1,0.5s0.1,0.3,0.3,0.5c0,0.1-0.1,0.2-0.1,0.3c-0.1,0.1-0.1,0.1-0.2,0.2c-0.1,0.1-0.3,0.2-0.4,0.4
				c-0.1,0.1-0.1,0.2-0.2,0.2c-0.1,0.1-0.1,0.2-0.2,0.2c-0.1,0.1-0.1,0.2-0.2,0.3s-0.1,0.2-0.1,0.2c-0.1,0.1-0.1,0.2-0.1,0.3
				s0,0.1,0,0.1c0,0.2,0,0.4,0,0.5s0.1,0.3,0.1,0.4c0.1,0.1,0.5,0.3,0.7,0.3c0.2,0.1,0.6,0.1,0.9,0c0.6-0.1,0.6-0.3,1.2-0.7
				s1-0.9,1.1-1.3c0-0.1,0-0.1,0-0.1v-0.1c-0.1-0.3-0.1-0.5-0.2-0.7s-0.2-0.3-0.3-0.5c-0.1-0.1-0.1-0.1-0.2-0.2
				c0-0.1-0.1-0.1-0.1-0.1c0.2-0.2,0.3-0.4,0.5-0.5c0.1-0.2,0.3-0.3,0.4-0.4s0.2-0.2,0.2-0.2s0.2-0.1,0.2-0.3c0-0.1,0-0.1-0.1-0.2
				s-0.1-0.1-0.1-0.1c-0.1,0-0.3,0-0.3,0c-0.4,0.3-0.7,0.6-0.9,0.8c-0.2,0.2-0.3,0.2-0.3,0.2c-0.1,0-0.2,0.1-0.3,0L79,30.8
				c-0.1-0.2-0.1-0.2-0.1-0.3c-0.1-0.2,0-0.4,0-0.6C78.7,29.3,78.7,29.2,78.7,29.1z M79.2,27.7l0.1-0.2l0.3-0.3l0.5-0.3h0.1h0.1V27
				l-0.1,0.1L80,27.2l-0.2,0.3c0,0-0.2,0.2-0.3,0.2l-0.3,0.2V28L79,28.1V28L79.2,27.7z M64.9,29.1c0,0.1,0,0.1-0.1,0.2
				c0,0.1-0.1,0.1-0.1,0.1c-0.1,0.1-0.1,0.1-0.2,0.2c-0.2,0.2-0.3,0.3-0.5,0.4c-0.2,0.1-0.4,0.1-0.6,0.1c-0.1,0-0.3,0-0.3-0.1
				C63,29.9,63,29.9,63,29.8s0-0.1,0-0.2s0.1-0.2,0.1-0.3c0.1-0.1,0.1-0.2,0.2-0.3c0.1-0.1,0-0.2,0.1-0.2c0.1-0.1,0.1-0.1,0.2-0.1
				c0.1,0,0.1-0.1,0.2-0.1c0.1-0.1,0.2-0.1,0.3-0.2c0-0.1,0.1,0,0.2-0.1l0.1-0.1c0.2,0,0.3,0,0.4,0s0.1,0,0.2,0l0.1,0.1
				c0,0.1,0.1,0.2,0.1,0.3L64.9,29.1z M78.7,31.9c0.1,0,0.1,0,0.2,0.1c0.1,0.1,0.1,0.1,0.2,0.3c0,0.1,0.1,0.2,0.1,0.3s0,0.2,0,0.2
				c0,0.3-0.2,0.6-0.6,0.9c-0.4,0.3-0.8,0.5-1.2,0.5c-0.1,0-0.2,0-0.2-0.1c-0.1,0-0.1-0.1-0.1-0.2c0,0,0-0.1,0.1-0.3
				s0.1-0.3,0.2-0.3c0.1-0.1,0.2-0.3,0.3-0.4c0.1-0.1,0.2-0.3,0.3-0.4c0.2-0.2,0.3-0.4,0.4-0.5C78.6,31.9,78.6,31.9,78.7,31.9z"/>
		</g>
	</g>
</g>
</svg>
