<?xml version="1.0" encoding="utf-8"?>
<!-- Generator: Adobe Illustrator 22.1.0, SVG Export Plug-In . SVG Version: 6.00 Build 0)  -->
<svg version="1.1" id="图层_1" xmlns="http://www.w3.org/2000/svg" xmlns:xlink="http://www.w3.org/1999/xlink" x="0px" y="0px"
	 viewBox="0 0 180 68" style="enable-background:new 0 0 180 68;" xml:space="preserve">
<style type="text/css">
	.st0{fill:#FFFFFF;}
</style>
<g>
	<g>
		<path class="st0" d="M44.5,22.4h13.2c-3.4-8.2-10.4-14.5-19-17.1v11.3C38.7,19.8,41.3,22.4,44.5,22.4z"/>
		<path class="st0" d="M61.1,31.1L61.1,31.1L61.1,31.1H41.6c-1.6,0-2.9,1.3-2.9,2.9v1c0,1.6,1.3,2.9,2.9,2.9h5.8
			c1.1,0,1.9,0.9,1.9,1.9l0,0c0,3.2-2.6,5.8-5.8,5.8h-4.8h-5.8h-5.8c-3.2,0-5.8-2.6-5.8-5.8v-9.7v-1.9c0-3.2,2.6-5.8,5.8-5.8
			s5.8-2.6,5.8-5.8V4.1C31.9,4,31,4,30,4C13.4,4,0,17.4,0,34c0,16.3,12.9,29.5,29.1,30c14.5,0,26.5-10.6,28.6-24.5l0,0
			c0.1-0.9,0.9-1.6,1.9-1.6h0.1l0,0H61l0,0h0.1c1.6,0,2.9-1.3,2.9-2.9v-1C64,32.4,62.7,31.1,61.1,31.1z"/>
	</g>
	<g>
		<path class="st0" d="M100.1,16.4v-3H84.4v3h3.9v3.3h-3.9v3h3.9v7.9h-3.9v3h12.8c2.4,0,2.9-0.6,2.9-3v-4.9h-3.8v4
			c0,0.9,0.1,0.9-0.8,0.9h-1.4v-7.9h6v-3h-6v-3.3H100.1z"/>
		<path class="st0" d="M154.8,31.5v-18h-6.1V38h28.6c1.6,0,2.7-1,2.7-2.7h-28.3C153.7,35,154.7,33.7,154.8,31.5z"/>
		<polygon class="st0" points="140.2,26.5 140.7,38 144.7,38 144.3,26.5 		"/>
		<polygon class="st0" points="128,38 131.9,38 132.3,26.5 128.6,26.5 		"/>
		<path class="st0" d="M134.1,19.8L134.1,19.8v0.6h3.7v-3.1h2.7v3.1c0,1.5-0.3,1.9-1.3,1.9h-6.8v-9l0,0l0,0l1.5-2.5h-4.4l-1.5,2.5
			v12h5.9V38h1.9c2.3,0,2.9-0.7,2.9-2.8v-9.8h3.6c1.9,0,2.4-0.7,2.4-3v-8.9h-10.5L134.1,19.8L134.1,19.8z"/>
		<rect x="112.6" y="13.5" class="st0" width="6" height="3"/>
		<path class="st0" d="M102.1,33.7c0.1,1.2-0.4,1.7-1.6,1.6H82.4V11h36.3V8H76v30h29.8c1.9,0.1,2.8-0.8,2.7-2.7V13.4h-6.4V33.7z"/>
		<path class="st0" d="M120.7,8v27.4h-2V18.5h-6V38h11l0,0l0,0c2.1,0,2.7-0.8,2.7-2.7V11h28.3V8H120.7z"/>
		<path class="st0" d="M180,11V8l0,0h-23l0,0v3h14.4l-4.9,2.5H157v20.1h5.2v-5.3h3.3v5.3h6.3v-5.3h2.9v5.3h2.9c1.7,0,2.3-0.6,2.3-3
			V13.5H175L180,11L180,11z M165.5,25.3h-3.3v-3.2h3.3V25.3z M165.5,19.1h-3.3v-2.2h3.3V19.1z M174.8,25.3h-2.9v-3.2h2.9V25.3z
			 M174.8,19.1h-2.9v-2.2h2.9V19.1z"/>
	</g>
	<g>
		<path class="st0" d="M111.7,48.6c0.1,0,0.2,0,0.4,0c0.1,0,0.3,0,0.4,0c0,0,0.1,0,0.3-0.1c0.1,0,0.3-0.1,0.5-0.2
			c0.2-0.1,0.3-0.2,0.5-0.3c0.1-0.1,0.2-0.2,0.3-0.4c0-0.1,0.1-0.2,0.1-0.3c0.1-0.1,0.1-0.3,0.2-0.6c0-0.1,0.1-0.3,0.1-0.5
			c0-0.1,0-0.2-0.1-0.3s-0.2-0.1-0.4-0.1c-0.2,0-0.3,0-0.5,0c-0.1,0-0.2,0.1-0.3,0.1c-0.2,0.2-0.3,0.3-0.5,0.5
			c-0.2,0-0.5,0.2-0.8,0.5s-0.4,0.5-0.4,0.7s0,0.4,0.1,0.5C111.5,48.5,111.6,48.6,111.7,48.6z"/>
		<g>
			<path class="st0" d="M99.6,44.5c-0.1-0.3-0.2-0.5-0.3-0.5c0-0.1-0.2-0.2-0.4-0.5c-0.2-0.2-0.4-0.4-0.5-0.5s-0.2-0.2-0.3-0.2
				c-0.2-0.1-0.4-0.1-0.6-0.2c-0.2-0.1-0.4-0.1-0.6-0.2h-0.2l-0.4-0.1l-1.1,0.1c-0.2,0.1-0.4,0.1-0.6,0.2c-0.2,0.1-0.3,0.1-0.4,0.2
				c-0.3,0.1-0.5,0.2-0.7,0.3s-0.4,0.2-0.6,0.3c-0.1,0.1-0.2,0.2-0.4,0.3c-0.2,0.1-0.5,0.3-0.8,0.6c-0.9,0.7-1.7,1.5-2.2,2.5
				c-0.6,0.9-1,2-1.2,3.2l-0.2,1.5c0,0.2,0,0.4,0,0.6c0,0.2-0.1,0.3-0.1,0.5c0.1,0.4,0.2,0.7,0.3,0.9c0.1,0.2,0.1,0.4,0.2,0.5
				c0.1,0.3,0.3,0.5,0.5,0.6c0.2,0.2,0.4,0.3,0.6,0.5c0.2,0.1,0.5,0.2,0.7,0.3s0.4,0.1,0.6,0.1c0.1,0,0.3,0,0.4-0.1l0.5,0.1
				c0.3,0,0.7-0.1,1-0.2c0.3-0.1,0.7-0.2,1-0.4c0.2-0.1,0.4-0.2,0.7-0.4c0.3-0.2,0.6-0.4,1-0.7c0.2-0.1,0.4-0.3,0.7-0.4
				c0.1,0,0.1,0,0.1,0v0.1c0,0.1-0.1,0.2-0.1,0.3l0.2,0.6c-0.1,0.4-0.2,0.8-0.3,1C96,55.7,96,55.9,96,56c0,0.3,0,0.5,0,0.6
				c0,0.2-0.1,0.3-0.1,0.4c-0.1,0.2-0.1,0.4-0.2,0.5c0,0.1,0,0.2,0,0.3c0,0.2,0,0.3,0.1,0.4c0.1,0.1,0.1,0.1,0.3,0.1
				c0.1,0,0.2,0,0.3-0.1c0.1-0.1,0.1-0.2,0.2-0.3c0.2-0.1,0.4-0.1,0.5-0.1s0.2-0.1,0.3-0.1c0.1-0.1,0.1-0.1,0.2-0.2
				c0-0.1,0.1-0.2,0.1-0.3c0-0.2,0.1-0.4,0.1-0.5s0.1-0.2,0.1-0.3c0.1-0.2,0.3-0.6,0.3-1.1c0.1-0.5,0.2-0.8,0.3-1.1
				c0.1-0.2,0.2-0.4,0.3-0.6c0.1-0.2,0.1-0.5,0.1-0.8c0-0.2,0.1-0.4,0.1-0.6c0-0.2,0.1-0.3,0.1-0.4c0-0.1,0.1-0.2,0.1-0.3
				c0.1-0.1,0.1-0.2,0.1-0.3c0-0.2-0.1-0.4-0.2-0.5c-0.2-0.1-0.4-0.2-0.7-0.2c-0.2,0-0.5,0-0.7,0.1s-0.4,0.2-0.6,0.4
				c-0.1,0.2-0.3,0.3-0.4,0.5s-0.3,0.3-0.4,0.5c-0.1,0.1-0.3,0.2-0.4,0.3s-0.2,0.2-0.3,0.2c-0.4,0.3-0.7,0.6-0.9,0.8
				c-0.2,0.2-0.4,0.3-0.4,0.4c-0.3,0.2-0.5,0.3-0.8,0.4c-0.3,0.1-0.6,0.1-0.9,0.1c-0.2,0-0.4,0-0.6-0.1s-0.3-0.1-0.5-0.2
				c-0.1-0.1-0.2-0.2-0.3-0.3c-0.1-0.1-0.2-0.3-0.3-0.5c-0.1-0.3-0.2-0.6-0.3-0.8c-0.1-0.3-0.1-0.6-0.1-0.8c0-0.1,0-0.4,0.1-0.8
				c0.1-0.4,0.2-1,0.3-1.7c0.1-0.2,0.2-0.4,0.2-0.6c0.1-0.2,0.1-0.3,0.2-0.5c0-0.1,0.1-0.2,0.1-0.3s0-0.1,0.1-0.2
				c0.1-0.1,0.2-0.3,0.3-0.4c0.1-0.1,0.1-0.3,0.2-0.5c0.2-0.2,0.3-0.4,0.4-0.5c0.1-0.2,0.2-0.3,0.3-0.4c0.1-0.1,0.2-0.2,0.2-0.2
				c0.1-0.1,0.1-0.1,0.1-0.2c0.3-0.3,0.5-0.5,0.7-0.6c0.2-0.2,0.3-0.3,0.5-0.4c0.2-0.1,0.5-0.3,0.7-0.3c0.3-0.1,0.5-0.1,0.8-0.1
				c0.5,0,1,0.2,1.4,0.5c0.4,0.4,0.7,0.9,0.9,1.6c0,0.2,0.1,0.4,0.2,0.7c0,0.2,0,0.3,0.1,0.4c0.1,0.1,0.2,0.1,0.4,0.1
				c0.3,0,0.6-0.2,1-0.5s0.7-0.6,0.7-0.8c0-0.1-0.1-0.3-0.2-0.6C99.8,44.9,99.7,44.7,99.6,44.5z"/>
			<path class="st0" d="M140,43.9c0.1,0,0.2,0,0.3-0.1c0.2,0,0.4,0,0.7-0.1c0.3,0.1,0.6,0.1,0.9,0.2c0.3,0,0.6,0.1,0.9,0.1
				c0.1,0,0.1,0,0.2,0c0,0,0.1-0.1,0.1-0.2c0-0.1,0-0.1,0-0.3c0-0.1,0-0.2,0-0.2c0-0.1,0-0.2,0-0.3s0-0.2,0-0.3s-0.1-0.2-0.2-0.3
				c-0.1-0.1-0.2-0.1-0.3-0.1s-0.2,0.1-0.3,0.1c-0.1-0.1-0.2-0.1-0.3-0.1s-0.2-0.1-0.2-0.1l-0.3,0.1c-0.2,0-0.3,0-0.4-0.1
				c-0.1,0-0.2,0-0.4-0.1c-0.1,0-0.2,0-0.4,0s-0.3,0-0.4,0c-0.5,0-0.9,0-1.3,0.1c-0.4,0-0.8,0.1-1.1,0.2c-0.3,0-0.6,0-0.9,0
				c-0.3,0-0.7,0.1-1,0.2c-0.2,0.1-0.3,0.1-0.5,0.2c-0.1,0.1-0.2,0.2-0.3,0.4c0,0.1-0.1,0.2-0.1,0.3s0,0.3-0.1,0.6
				c-0.1,0.2-0.2,0.3-0.2,0.4c0,0.1-0.1,0.2-0.1,0.2c0,0.1,0,0.1,0.1,0.2c0,0,0.1,0.1,0.2,0.1c0.8-0.2,1.7-0.4,2.5-0.6
				c0.1,0,0.2,0,0.3-0.1c0.1,0,0.2,0,0.3-0.1l0.2-0.1c0.1,0,0.2,0,0.3,0s0.1,0,0.2,0l0.1,0.2c0,0.2,0,0.3,0,0.4c0,0.1,0,0.2,0,0.3
				c-0.1,0.4-0.1,0.7-0.2,0.9c-0.1,0.2-0.1,0.4-0.2,0.5c0,0.1,0.1,0.2,0.1,0.3c0,0,0,0.1-0.1,0.2c0,0.1-0.1,0.2-0.2,0.4
				c0,0,0,0.1,0,0.2c0,0.1,0,0.1,0,0.2c0,0.1,0,0.2,0,0.3s0,0.3-0.1,0.4c0,0.2,0,0.3-0.1,0.4c0,0.1,0,0.2,0,0.3c0,0.2,0,0.4,0,0.7
				s-0.1,0.6-0.1,1c-0.1,0.4-0.1,0.7-0.1,1s0,0.5,0,0.7c0,0.4,0,0.8,0,1.2c0.1,0.5,0.1,1,0.2,1.6c0,0.1,0.1,0.1,0.1,0.2
				c0,0.1,0,0.1,0.1,0.1c0,0.2-0.1,0.4-0.1,0.6c0,0.1,0,0.1,0.1,0.2c0.1,0,0.2,0.1,0.4,0.1c0,0,0.1,0,0.1-0.1c0.1,0,0.1-0.1,0.2-0.2
				c0.1,0,0.3-0.1,0.4-0.2l0.1-0.1c0-0.1,0.1-0.1,0.1-0.2c0-0.1-0.1-0.2-0.1-0.3s0-0.3,0-0.6s0-0.4,0-0.6c0-0.1,0-0.2,0-0.3
				s0-0.2,0-0.3s0-0.1,0-0.2c0-0.1,0-0.2,0-0.2c0.1-0.1,0.1-0.2,0.2-0.3c0-0.3,0.1-0.5,0.1-0.8s0.1-0.6,0.1-0.8s0.1-0.4,0.1-0.6
				c0-0.1,0-0.2,0-0.3s0.1-0.3,0.2-0.4c0.1-0.1,0.1-0.2,0.1-0.3s0.1-0.3,0.1-0.4c0-0.1,0-0.2,0-0.3c0.1-0.2,0.1-0.4,0.2-0.5
				c0.1-0.1,0.1-0.3,0.1-0.4c0-0.1,0-0.2,0-0.3s0-0.2,0-0.2c0-0.1,0.1-0.2,0.1-0.4s0.1-0.4,0.2-0.6c0-0.1,0.1-0.3,0.1-0.5
				s0-0.4,0-0.5s0-0.1,0-0.2c0-0.1,0-0.1-0.1-0.2c-0.1-0.2-0.2-0.3-0.2-0.4c-0.1-0.1-0.1-0.2-0.2-0.2c-0.1,0-0.2-0.1-0.2-0.1
				c-0.1-0.1-0.1-0.1-0.1-0.1C139.9,43.9,139.9,43.9,140,43.9z"/>
			<path class="st0" d="M167.9,53.1c-0.1-0.1-0.3-0.3-0.6-0.2c-0.1,0.1-0.2,0.1-0.3,0.1s-0.2,0.1-0.2,0.1c-0.2,0.1-0.4,0.2-0.7,0.2
				c-0.3,0.1-0.5,0.1-0.9,0.1c-0.2,0-0.4-0.1-0.5-0.1s-0.2-0.1-0.3-0.1c-0.1-0.1-0.2-0.1-0.3-0.2c-0.1-0.1-0.1-0.2-0.1-0.4
				c0-0.1,0-0.2,0.1-0.2c0-0.1,0.1-0.1,0.1-0.2c0.7-0.5,1.2-1,1.6-1.4c0.4-0.4,0.7-0.8,0.8-1.1l0.1-0.3c0.1-0.2,0.1-0.3,0.1-0.3
				c0-0.2,0-0.4,0-0.5s-0.1-0.3-0.2-0.4c-0.1-0.1-0.1-0.2-0.2-0.2c-0.1-0.1-0.2-0.1-0.3-0.2c-0.1,0-0.3,0-0.5,0c-0.1,0-0.3,0-0.4,0
				c-0.1,0-0.2,0-0.3,0.1s-0.2,0.1-0.3,0.2c-0.1,0.1-0.2,0.1-0.3,0.2c-0.2,0.2-0.4,0.4-0.6,0.5c-0.2,0.2-0.4,0.3-0.5,0.5
				c-0.2,0.3-0.4,0.5-0.5,0.7s-0.2,0.4-0.3,0.5s-0.1,0.3-0.2,0.4c-0.1,0.1-0.1,0.2-0.1,0.3s0,0.3,0,0.4c0,0.1-0.1,0.5-0.1,0.6
				c-0.2,0.3-0.3,0.5-0.5,0.7c-0.1,0.2-0.3,0.3-0.4,0.5c0,0-0.2,0.3-0.3,0.4c-0.1,0.2-0.3,0.5-0.6,0.4c-0.4-0.1-0.3-0.6-0.4-0.9
				c0-0.1-0.1-0.7-0.2-0.9c-0.1-0.3-0.1-0.7-0.2-1.1c-0.1-0.2-0.2-0.3-0.4-0.4c-0.2-0.1-0.4-0.1-0.7-0.1c-0.1,0-0.3,0-0.5,0.1
				s-0.4,0.1-0.6,0.2c-0.2,0.1-0.4,0.2-0.5,0.3s-0.3,0.2-0.4,0.3c-0.1,0.1-0.1,0.1-0.2,0.2C156,52,156,52,156,52
				c-0.1,0.1-0.3,0.2-0.4,0.3c-0.1,0.1-0.2,0.2-0.3,0.3c-0.2,0.1-0.3,0.2-0.5,0.4c-0.1,0.1-0.2,0.2-0.3,0.3l-0.1,0.1l-0.1,0.1
				c-0.1-0.1-0.1-0.1-0.1-0.1v-0.1c0-0.1,0-0.1,0.1-0.2c0.1-0.1,0.1-0.2,0.2-0.4c0.3-0.7,0.5-1.2,0.6-1.7c0.1-0.4,0.2-0.7,0.2-0.9
				c0-0.3-0.1-0.5-0.2-0.6c-0.1-0.1-0.4-0.2-0.6-0.2s-0.6,0.1-0.8,0.2c-0.3,0.1-0.5,0.3-0.7,0.5c-0.3,0.2-0.4,1-0.6,1.2
				c-0.2,0.2-0.3,0.3-0.5,0.5c-0.3,0.3-0.4,0.2-0.7,0.4c-0.2,0.2-0.8,0.4-0.9,0.4c-0.1,0-0.9,0.2-0.9,0.3c-0.4,0,0.1-1.1,0.1-1.3
				c0.1-0.6-0.1-1-0.4-1.3c-1.2-1-2.5-0.8-2.6-0.8c-0.2,0-0.2,0-0.4,0s-0.3,0-0.5,0.1c-0.1,0.1-0.2,0-0.4,0.1
				c-0.1,0.1-0.2,0.2-0.3,0.3s-0.2,0.2-0.3,0.3s-0.2,0.1-0.3,0.2c-0.1,0.1-0.2,0.2-0.3,0.2c-0.1,0.1-0.4,0.5-0.5,0.6
				c-1,1.6-1,2.2-1.1,2.4c-0.1,0.3-0.1,0.6-0.1,0.7c0,0.4,0.2,0.7,0.6,1c0.4,0.3,0.8,0.5,1.3,0.5c0.1,0,0.2,0,0.3,0s0.2,0,0.2,0
				c0.1,0,0.3,0,0.5-0.1c0.2,0,0.4-0.1,0.6-0.2c0.3-0.1,0.7-0.3,1-0.4c0.1-0.1,0.8-0.5,1.4-1c0.3-0.3,0.7-0.6,0.9-1
				c0.2-0.2,0.2-0.2,0.3-0.5c0.1,0.1,0.1,0.2,0.2,0.2c0.1,0.1,0.5,0,0.7,0s0.4-0.1,0.6-0.2c0.2-0.1,0.4,0,0.5-0.1s0.4-0.1,0.7-0.3
				c0.2-0.2,0.2-0.1,0.3-0.1c0.1-0.1,0.3,0,0.3,0c0.1,0,0.2,0,0.2,0l0.1,0.1c0,0,0,0.1,0,0.2c0,0.1,0,0.1-0.1,0.2
				c0,0.1-0.1,0.2-0.1,0.2c0,0.1,0,0.1,0,0.1c-0.2,0.5-0.4,1-0.5,1.4c-0.2,0.4-0.3,0.7-0.4,1c0,0.2,0.1,0.4,0.1,0.5
				c0,0.2,0.2,0.3,0.5,0.3c0.2,0,0.3,0,0.4,0c0.1,0,0.3-0.1,0.4-0.2c0.1-0.1,0.2-0.2,0.3-0.2c0.1-0.1,0.2-0.2,0.3-0.2
				c0.4-0.3,0.8-0.6,1-0.9c0.3-0.2,0.5-0.4,0.6-0.6c0.1-0.1,0.2-0.2,0.3-0.2c0.2-0.1,0.4-0.2,0.8-0.5c0.2-0.1,0.3-0.2,0.5-0.3
				c0.1-0.1,0.3-0.1,0.5-0.2h0.1c0.2,0.2,0.3,0.4,0.5,0.5c0.1,0.1,0.3,0.3,0.4,0.3c0.1,0.2,0.2,0.4,0.3,0.5s0.2,0.2,0.2,0.3
				c0.1,0.1,0.1,0.3,0.3,0.3c0.2,0.1,0.3,0.1,0.5,0.1s0.5,0,0.7-0.1s0.4-0.1,0.5-0.3c0.1-0.1,0.3-0.2,0.4-0.3
				c0.1-0.1,0.5-0.5,0.6-0.6c0.1,0,0.2-0.1,0.2-0.1c0.1,0,0.2,0,0.2,0.1c0.1,0.1,0.1,0.2,0.2,0.3c0.1,0.2,0.2,0.3,0.3,0.5
				c0.1,0.1,0.2,0.2,0.2,0.3c0.2,0.1,0.3,0.2,0.6,0.3c0.2,0.1,0.5,0.1,0.8,0.1c0.2,0,0.4,0,0.6,0c0.2,0,1.1-0.2,1.5-0.4
				s0.8-0.5,1.3-0.8C168.1,53.7,168,53.3,167.9,53.1z M147.6,52.6c0,0.1-0.1,0.2-0.1,0.3s-0.1,0.2-0.2,0.2c-0.1,0.1-0.2,0.2-0.4,0.3
				c-0.3,0.3-0.6,0.6-0.9,0.7c-0.3,0.2-0.7,0.2-1,0.2c-0.2,0-0.4,0-0.5-0.1s-0.2-0.2-0.2-0.4c0-0.1,0-0.2,0.1-0.4
				c0-0.1,0.1-0.3,0.2-0.5c0.1-0.2,0.2-0.4,0.3-0.5s0.2-0.3,0.2-0.3c0.1,0,0.2-0.2,0.3-0.2s0.2-0.2,0.3-0.2c0.1-0.2,0.3-0.2,0.4-0.3
				c0.1-0.1,0.2,0,0.3-0.1s0.1-0.1,0.2-0.1c0.3,0,0.5,0,0.6,0.1c0.1,0,0.2,0,0.3,0.1c0.1,0,0.1,0.1,0.2,0.2c0.1,0.1,0.1,0.3,0.2,0.5
				L147.6,52.6z M163.9,51.3C163.9,51.3,163.9,51.2,163.9,51.3c0-0.3,0.1-0.5,0.4-0.9c0.3-0.4,0.5-0.6,0.7-0.6c0.1,0,0.1,0,0.1,0.1
				V50c0,0.1,0,0.2-0.1,0.3c0,0.1-0.1,0.2-0.2,0.3c-0.1,0.1-0.2,0.1-0.2,0.2c-0.1,0.1-0.2,0.1-0.3,0.2c0,0.1-0.1,0.1-0.2,0.2
				C164,51.3,164,51.3,163.9,51.3C164,51.3,164,51.3,163.9,51.3z"/>
			<path class="st0" d="M128.8,52.4c0.1-0.2,0.3-0.4,0.3-0.5c0.2-0.1,0.3-0.1,0.4-0.2c0.1-0.1,0.3-0.1,0.5-0.2
				c0.3-0.2,0.6-0.3,0.9-0.6c0.3-0.2,0.6-0.5,0.9-0.8c0.4-0.4,0.5-0.8,0.7-1s0.3-0.6,0.3-0.7c0-0.3,0.7-0.6,0.6-0.7
				c-0.1-0.2-0.3-0.2-0.5-0.2c-0.3,0-0.7-0.1-1,0.1c-0.3,0.1-1.6,0.4-1.9,0.7c-0.5,0.4-0.6,0.6-1.1,1.1c-0.3,0.3-0.6,0.7-0.7,1
				c-0.2,0.2-0.4,0.4-0.4,0.6c-0.1,0.2-0.1,0.3-0.2,0.4c-0.1,0.1-0.2,0.3-0.2,0.4c-0.2,0.2-0.3,0.9-0.4,1s-0.4,0.4-0.5,0.5
				s-0.2,0.2-0.2,0.2c-0.1,0.1-0.2,0.3-0.3,0.3c-0.2,0.2-0.2,0.3-0.5,0.3c-0.1,0-0.4-0.6-0.4-0.8c0-0.1-0.1-0.4-0.2-0.6
				c-0.1-0.3-0.3-0.7-0.5-1.1c-0.1-0.2-0.3-0.4-0.5-0.5s-0.4-0.1-0.7-0.1c-0.1,0-0.3,0-0.5,0.1s-0.4,0.1-0.6,0.2
				c-0.2,0.1-0.4,0.2-0.5,0.3s-0.3,0.2-0.4,0.3s-0.1,0.1-0.2,0.2c-0.1,0.1-0.1,0.1-0.1,0.1c-0.1,0.1-0.3,0.2-0.4,0.3
				s-0.6,0.6-0.8,0.7c-0.1,0.1-0.2,0.2-0.3,0.3l-0.1,0.1l-0.1,0.1c-0.1-0.1-0.1-0.1-0.1-0.1v-0.1c0-0.1,0-0.1,0.1-0.2
				c0.1-0.1,0.1-0.2,0.2-0.4c0.3-0.7,0.5-1.2,0.6-1.7c0.1-0.4,0.2-0.7,0.2-0.9c0-0.3-0.1-0.5-0.2-0.6s-0.4-0.2-0.6-0.2
				c-0.3,0-0.6,0.1-0.8,0.2c-0.3,0.1-0.5,0.3-0.7,0.5c-0.3,0.2-0.5,0.4-0.7,0.6c-0.2,0.2-0.3,0.4-0.4,0.5c-0.4,0.3-0.4,0.6-0.6,0.8
				s-0.3,0.5-0.5,0.6s-0.4,0.4-0.5,0.5s-0.3,0.4-0.4,0.5c0,0.1-0.6,0.6-0.7,0.7c-0.1,0.1-0.6,0.5-0.8,0.6c-0.2,0.3-0.2,0.1-0.5,0.4
				c-0.3,0.2-0.5,0.5-0.7,0.5c-0.3,0.1-0.2-0.1-0.3-0.3c0-0.3,0.3-1,0.4-1.2c0.1-0.6,0.5-1,0.7-1.3s0.6-1.5,0.6-1.8
				c0-0.2-0.1-0.4-0.1-0.6c-0.1-0.2-0.2-0.4-0.4-0.5c-0.2-0.1-0.4-0.2-0.7-0.2c-0.1,0-0.2,0-0.3,0.1c-0.1,0-0.2,0.1-0.3,0.2
				c-0.2,0.2-1.2,1.5-1.7,1.9c-0.6,0.4-0.9,0.3-1,0.2c-0.1,0-0.5-0.1-0.5-0.2c0,0-0.1-0.3-0.1-0.4c0-0.3-0.1-1.2-0.4-1.5
				s-0.7-0.5-1.3-0.7c-0.6-0.2-1.1-0.1-1.2-0.1s-0.2,0-0.4,0c-0.2,0-0.3,0.1-0.5,0.1c-0.1,0.1-0.3,0.1-0.4,0.2
				c-0.1,0.1-0.2,0.1-0.3,0.2c-0.1,0.1-0.2,0.2-0.3,0.3c-0.1,0.1-0.2,0.2-0.3,0.3c-0.1,0.1-0.4,0.5-0.5,0.6
				c-0.6,0.9-0.9,1.5-0.9,1.7c-0.1,0.3-0.2,0.5-0.3,0.7c-0.1,0.3-0.1,0.5-0.1,0.9s0.1,0.6,0.4,1c0.3,0.3,0.8,0.5,1.3,0.5
				c0.1,0,0.2,0,0.3,0c0.1,0,0.2,0,0.2,0c0.1,0,0.3,0,0.5,0s0.4-0.1,0.6-0.2c0.3-0.1,0.6-0.3,0.9-0.4c0.3-0.1,0.6-0.3,0.9-0.6
				s0.7-0.5,1-0.8s0.5-0.6,0.6-0.9c0.1-0.3,0.3-0.9,0.4-0.9c0.1,0.1,0.6,0.2,0.7,0.3c0.3,0.2,0.5,0.1,0.6,0c0.2-0.1,0.6-0.1,0.9-0.1
				c0.3-0.1,0.6-0.2,0.7-0.4c0,0-0.5,1.5-0.6,1.8s-0.4,0.7-0.4,0.8c0,0.2-0.3,1-0.3,1.2c0.1,0.7,0.9,0.7,1.7,0.4
				c0.1,0,1.1-0.6,1.3-0.6c0.2-0.1,0.3-0.2,0.7-0.4c0.3-0.2,0.6-0.5,0.8-0.6c0.2-0.1,0.4-0.2,0.6-0.3l0,0l0.1-0.1
				c0-0.1,0.1,0,0.2-0.1s0.6-0.5,0.6-0.6c0,0,0.1-0.1,0.2-0.2c0.1-0.1,0.3-0.3,0.5-0.5s0.3-0.3,0.5-0.4c0.1-0.1,0.2-0.1,0.3-0.1
				c0.1,0,0.2,0,0.2,0l0.1,0.1c0,0,0,0.1,0,0.2c0,0.1,0,0.1-0.1,0.2c0,0.1-0.1,0.2-0.1,0.2c0,0.1,0,0.1,0,0.1
				c-0.2,0.5-0.4,1-0.5,1.4c-0.2,0.4-0.3,0.7-0.4,1c0,0.2,0.1,0.4,0.1,0.5c0,0.2,0.2,0.3,0.5,0.3c0.2,0,0.3,0,0.4,0s0.3-0.1,0.4-0.2
				c0.1-0.1,0.2-0.2,0.3-0.2c0.1-0.1,0.2-0.2,0.3-0.2c0.4-0.3,0.8-0.6,1-0.9c0.3-0.2,0.8-0.6,0.9-0.7c0.2-0.2,0.4-0.3,0.8-0.6
				c0.2-0.1,0.3-0.2,0.5-0.3c0.1-0.1,0.6-0.1,0.8-0.2h0.1c0.2,0.2,0.3,0.4,0.5,0.5c0.1,0.1,0.1,0.3,0.2,0.3c0.1,0.2,0.1,0.4,0.2,0.5
				s0.2,0.2,0.2,0.3c0.1,0.1,0.3,0.2,0.4,0.3c0.2,0.1,0.3,0.1,0.5,0.1s0.3,0,0.5-0.1s0.3-0.1,0.5-0.3c0.1-0.1,0.3-0.2,0.4-0.3
				s0.8-0.6,1-0.7c0.1,0.1,0.1,0.1,0.1,0.2c0.1,0.3,0.1,0.5,0.2,0.8c0.1,0.4,0,0.4,0.2,0.8c0.1,0.4,0.2,0.5,0.5,0.8
				c0,0.1-0.1,0.4-0.2,0.5s-0.2,0.2-0.4,0.3c-0.2,0.2-0.4,0.4-0.7,0.6c-0.1,0.1-0.2,0.3-0.3,0.4c-0.1,0.1-0.2,0.3-0.3,0.4
				c-0.1,0.2-0.2,0.3-0.3,0.5c-0.1,0.1-0.2,0.3-0.2,0.4c-0.1,0.2-0.2,0.3-0.2,0.5c0,0.1-0.1,0.2-0.1,0.2c0,0.4-0.1,0.6-0.1,0.9
				c0,0.2,0.1,0.5,0.2,0.6c0.1,0.2,0.9,0.5,1.1,0.6c0.3,0.1,1,0.1,1.4,0c0.9-0.2,0.9-0.5,2-1.2s1.6-1.5,1.7-2.2c0-0.1,0-0.2,0-0.2
				c0-0.1,0-0.1,0-0.2c-0.1-0.4-0.2-0.8-0.3-1.1c-0.2-0.3-0.3-0.6-0.5-0.8c-0.1-0.1-0.2-0.2-0.3-0.3s-0.1-0.2-0.1-0.2
				c0.3-0.3,0.5-0.6,0.8-0.9c0.2-0.3,0.4-0.5,0.6-0.6c0.2-0.2,0.3-0.3,0.3-0.3s0.3-0.2,0.3-0.5c0-0.1,0-0.2-0.1-0.3
				C132,53,132,53,131.9,53c-0.2-0.1-0.4,0.1-0.4,0.1c-0.6,0.6-1.1,1-1.4,1.3c-0.3,0.3-0.4,0.3-0.6,0.4c-0.2,0.1-0.3,0.1-0.4,0
				c-0.1-0.1-0.2-0.1-0.2-0.2c-0.2-0.3-0.2-0.3-0.2-0.5c-0.1-0.3,0-0.7,0-1C128.7,52.9,128.7,52.7,128.8,52.4z M129.6,50.2l0.2-0.3
				l0.5-0.5l0.8-0.5h0.1h0.2v0.2l-0.2,0.2l-0.2,0.2l-0.3,0.5l-0.4,0.3l-0.4,0.4l-0.2,0.2l-0.2,0.1l-0.1-0.1L129.6,50.2z M106.3,52.6
				c0,0.1-0.1,0.2-0.1,0.3s-0.1,0.2-0.2,0.2c-0.1,0.1-0.2,0.2-0.4,0.3c-0.3,0.3-0.6,0.6-0.9,0.7c-0.3,0.2-0.7,0.2-1,0.2
				c-0.2,0-0.4,0-0.5-0.1S103,54,103,53.8c0-0.1,0-0.2,0.1-0.4c0-0.1,0.1-0.3,0.2-0.5s0.2-0.4,0.3-0.5c0.1-0.1,0.1-0.3,0.2-0.3
				c0.1-0.1,0.2-0.2,0.3-0.2c0.1,0,0.2-0.2,0.3-0.2c0.1-0.2,0.3-0.2,0.4-0.3s0.2,0,0.3-0.1c0.1-0.1,0.1-0.1,0.2-0.1
				c0.3,0,0.5,0,0.6,0.1c0.1,0,0.2,0,0.3,0.1c0.1,0,0.1,0.1,0.2,0.2c0.1,0.1,0.1,0.3,0.2,0.5L106.3,52.6z M128.7,57.1
				c0.1,0,0.2,0,0.3,0.1s0.2,0.2,0.3,0.4s0.1,0.3,0.2,0.5c0,0.1,0.1,0.3,0.1,0.4c0,0.5-0.3,1-1,1.6c-0.7,0.5-1.3,0.8-1.9,0.8
				c-0.2,0-0.3,0-0.4-0.1s-0.1-0.1-0.1-0.3c0-0.1,0.1-0.2,0.2-0.5s0.2-0.4,0.3-0.5c0.2-0.2,0.4-0.4,0.5-0.6c0.2-0.2,0.3-0.4,0.5-0.6
				c0.3-0.4,0.5-0.6,0.7-0.8C128.6,57.2,128.7,57.1,128.7,57.1z"/>
		</g>
	</g>
</g>
</svg>
