<?xml version="1.0" encoding="iso-8859-1"?>
<!-- Generator: Adobe Illustrator 22.1.0, SVG Export Plug-In . SVG Version: 6.00 Build 0)  -->
<svg version="1.1" id="&#x56FE;&#x5C42;_1" xmlns="http://www.w3.org/2000/svg" xmlns:xlink="http://www.w3.org/1999/xlink" x="0px"
	 y="0px" viewBox="0 0 160 54" style="enable-background:new 0 0 160 54;" xml:space="preserve">
<g style="display:none;">
	<g style="display:inline;">
		<path style="fill:#222222;" d="M72.2,15.9v-2.3H60.8v2.3h2.8v2.5h-2.8v2.3h2.8v6h-2.8V29h9.3c1.7,0,2.1-0.4,2.1-2.3V23h-2.8v3
			c0,0.7,0.1,0.7-0.6,0.7h-1v-6h4.4v-2.3h-4.4v-2.5H72.2z"/>
		<path style="fill:#222222;" d="M111.8,27.3V13.7h-4.4v18.5h20.7c1.2,0,1.9-0.8,1.9-2h-20.5C111,29.9,111.7,28.9,111.8,27.3z"/>
		<polygon style="fill:#222222;" points="101.2,23.5 101.6,32.1 104.5,32.1 104.1,23.5 		"/>
		<polygon style="fill:#222222;" points="92.4,32.1 95.2,32.1 95.5,23.5 92.8,23.5 		"/>
		<path style="fill:#222222;" d="M96.8,18.5L96.8,18.5V19h2.7v-2.3h1.9V19c0,1.1-0.3,1.4-1,1.4h-4.9v-6.7l0,0l0,0l1.1-1.9h-3.2
			l-1.1,1.9v9h4.2v9.5H98c1.7,0,2.1-0.5,2.1-2.1v-7.4h2.6c1.4,0,1.7-0.6,1.7-2.3v-6.7h-7.6C96.8,13.7,96.8,18.5,96.8,18.5z"/>
		<rect x="81.3" y="13.7" style="fill:#222222;" width="4.3" height="2.2"/>
		<path style="fill:#222222;" d="M73.7,28.9c0.1,0.9-0.3,1.3-1.1,1.2H59.4V11.8h26.2V9.6H54.8v22.6h21.6c1.4,0.1,2-0.6,1.9-2V13.6
			h-4.6C73.7,13.6,73.7,28.9,73.7,28.9z"/>
		<path style="fill:#222222;" d="M87.1,9.6v20.6h-1.5V17.5h-4.3v14.6h7.9l0,0l0,0c1.5,0,1.9-0.6,1.9-2V11.8h20.5V9.6H87.1z"/>
		<path style="fill:#222222;" d="M130,11.8V9.6l0,0h-16.6l0,0v2.2h10.4l-3.5,1.9h-6.9v15.1h3.8v-4h2.4v4h4.6v-4h2.1v4h2.1
			c1.2,0,1.7-0.5,1.7-2.3V13.7h-3.5L130,11.8L130,11.8z M119.5,22.5h-2.4v-2.4h2.4V22.5z M119.5,17.9h-2.4v-1.7h2.4V17.9z
			 M126.2,22.5h-2.1v-2.4h2.1V22.5z M126.2,17.9h-2.1v-1.7h2.1V17.9z"/>
	</g>
	<g style="display:inline;">
		<path style="fill:#0f4511;" d="M70.8,35.1c0.1,0,0.2,0.1,0.3,0.1c0.1,0,0.2,0.1,0.3,0.1c0,0,0.1,0.1,0.2,0.2s0.2,0.2,0.3,0.3
			c0.1,0.2,0.2,0.3,0.2,0.3c0,0.1,0.1,0.2,0.2,0.4c0.1,0.1,0.1,0.2,0.2,0.4s0.1,0.4,0.1,0.4c0,0.2-0.1,0.4-0.4,0.6s-0.5,0.4-0.6,0.4
			s-0.2,0-0.2-0.1s-0.1-0.1-0.1-0.3s-0.1-0.3-0.1-0.5c-0.1-0.5-0.3-0.9-0.5-1.1S70.3,36,70,36c-0.2,0-0.3,0-0.5,0.1
			s-0.3,0.1-0.4,0.2c-0.1,0.1-0.2,0.1-0.3,0.3c-0.1,0.1-0.2,0.3-0.4,0.4c0,0,0,0.1-0.1,0.1c0,0-0.1,0.1-0.1,0.2
			c0,0.1-0.1,0.2-0.2,0.3s-0.2,0.2-0.3,0.4c0,0.1-0.1,0.2-0.1,0.3s-0.1,0.2-0.2,0.3v0.1c0,0.1,0,0.1-0.1,0.2c0,0.1-0.1,0.2-0.1,0.3
			s-0.1,0.3-0.1,0.4c-0.1,0.5-0.1,0.9-0.2,1.2c0,0.3-0.1,0.5-0.1,0.6c0,0.2,0,0.4,0.1,0.6s0.1,0.4,0.2,0.6c0.1,0.1,0.1,0.3,0.2,0.4
			c0.1,0.1,0.1,0.2,0.2,0.2c0.1,0.1,0.2,0.1,0.3,0.2c0.1,0,0.2,0.1,0.4,0.1c0.2,0,0.4,0,0.5-0.1s0.3-0.2,0.5-0.3
			c0,0,0.1-0.1,0.3-0.3c0.1-0.1,0.3-0.3,0.5-0.5c0,0,0.1-0.1,0.2-0.2s0.1-0.1,0.2-0.2c0.1-0.1,0.2-0.2,0.3-0.4
			c0.1-0.1,0.2-0.2,0.2-0.3c0.1-0.1,0.2-0.2,0.3-0.3c0.1-0.1,0.3-0.1,0.4-0.1c0.2,0,0.3,0,0.4,0.1s0.1,0.2,0.1,0.4
			c0,0.1,0,0.1-0.1,0.2c0,0.1-0.1,0.2-0.1,0.2c0,0.1,0,0.2,0,0.3s0,0.3-0.1,0.4c0,0.2,0,0.4-0.1,0.5c0,0.2-0.1,0.3-0.1,0.4
			c-0.1,0.2-0.1,0.4-0.2,0.7s-0.1,0.6-0.2,0.8c0,0-0.1,0.1-0.1,0.2c0,0.1-0.1,0.2-0.1,0.4c0,0.1,0,0.2-0.1,0.2
			c0,0.1-0.1,0.1-0.1,0.2c0,0-0.1,0.1-0.2,0.1S70.4,46,70.3,46c0,0.1-0.1,0.2-0.1,0.2c0,0.1-0.1,0.1-0.2,0.1s-0.1,0-0.2-0.1
			c0-0.1-0.1-0.1-0.1-0.3c0,0,0-0.1,0-0.2c0-0.1,0-0.2,0.1-0.4c0-0.1,0-0.2,0.1-0.3c0-0.1,0-0.3,0-0.5c0-0.1,0-0.2,0.1-0.4
			c0-0.2,0.1-0.4,0.2-0.7L70.1,43c0-0.1,0-0.1,0.1-0.2v-0.1c0,0,0,0-0.1,0c-0.2,0.1-0.3,0.2-0.4,0.3c-0.2,0.2-0.5,0.4-0.6,0.5
			c-0.2,0.1-0.3,0.2-0.4,0.3c-0.2,0.1-0.4,0.2-0.6,0.3s-0.4,0.1-0.6,0.2l-0.3-0.1c-0.1,0-0.2,0-0.2,0c-0.1,0-0.2,0-0.3-0.1
			c-0.1-0.1-0.2-0.1-0.4-0.2c-0.1-0.1-0.2-0.2-0.3-0.3c-0.1-0.1-0.2-0.3-0.3-0.5c0-0.1-0.1-0.2-0.1-0.3c0-0.2-0.1-0.4-0.2-0.6
			c0-0.1,0.1-0.2,0.1-0.4c0-0.1,0-0.3,0-0.4l0.1-1c0.1-0.9,0.3-1.6,0.7-2.3c0.3-0.7,0.8-1.3,1.3-1.7c0.2-0.2,0.3-0.3,0.5-0.4
			c0.1-0.1,0.2-0.2,0.2-0.2c0.1-0.1,0.2-0.2,0.4-0.2c0.1-0.1,0.3-0.2,0.4-0.2s0.2-0.1,0.3-0.1c0.1,0,0.2-0.1,0.3-0.1l0.7-0.1
			l0.2,0.1L70.8,35.1z"/>
		<path style="fill:#0f4511;" d="M73.2,42.5l0.1-0.1c0-0.1,0.1-0.1,0.1-0.2l0.6-0.4c0.1-0.1,0.2-0.2,0.3-0.3
			c0.1-0.1,0.3-0.3,0.5-0.4c0-0.1,0.1-0.1,0.1-0.2s0.1-0.1,0.2-0.2c0.1-0.1,0.1-0.1,0.2-0.2c0.1-0.1,0.1-0.1,0.2-0.2
			c0.1-0.1,0.1-0.1,0.2-0.2c0.1-0.1,0.1-0.1,0.2-0.2c0.1-0.1,0.2-0.1,0.2-0.2c0.1,0,0.2-0.1,0.3-0.1c0.1,0,0.2,0,0.2,0l0.1,0.1
			c0,0.1-0.1,0.2-0.2,0.3v0.1c0.2-0.1,0.4-0.1,0.5-0.2c0.1,0,0.2-0.1,0.2-0.1c0.4,0,0.6,0.1,0.8,0.3c0.2,0.2,0.3,0.5,0.3,0.9
			c0,0.1,0,0.2,0,0.3s-0.1,0.2-0.1,0.3s-0.1,0.3-0.2,0.3c-0.1,0.1-0.1,0.2-0.2,0.2c0,0.1,0,0.1,0.1,0.1H78h0.1l0.1-0.1
			c0,0.1,0.1,0.2,0.1,0.3s0.1,0.2,0.1,0.3c-0.1,0.1-0.2,0.1-0.3,0.2C78,43,77.9,43,77.8,43.1c-0.1,0.1-0.2,0.1-0.3,0.2
			c-0.1,0-0.2,0.1-0.3,0.1c-0.1,0-0.2,0-0.3-0.1s-0.1-0.1-0.2-0.2c-0.1,0.2-0.3,0.3-0.4,0.4c-0.2,0.1-0.4,0.2-0.6,0.3
			c-0.1,0.1-0.2,0.1-0.3,0.1c-0.1,0-0.2,0-0.3,0H75c-0.1,0-0.1,0-0.2,0c-0.3,0-0.5-0.1-0.7-0.3s-0.3-0.5-0.3-0.7
			c0-0.1,0-0.3,0.1-0.4c0.1-0.2,0.1-0.3,0.1-0.3v-0.1h-0.1c0,0-0.1,0-0.2,0.1s-0.2,0.2-0.4,0.3c0,0,0,0-0.1,0.1l-0.1,0.1
			c0-0.1-0.1-0.2-0.1-0.3C73.3,42.7,73.2,42.6,73.2,42.5z M76.6,41.2c0,0-0.1,0-0.1,0.1c0,0-0.1,0.1-0.1,0.2
			c-0.1,0.1-0.1,0.2-0.2,0.3s-0.1,0.1-0.2,0.1S75.9,42,75.8,42c0,0-0.1,0-0.2,0.1s-0.1,0.2-0.2,0.4c-0.1,0.1-0.1,0.3-0.1,0.4
			c0,0.1,0,0.2,0,0.3s0,0.2,0.1,0.3s0.2,0.1,0.3,0.1c0.2,0,0.4-0.1,0.6-0.2c0.2-0.1,0.4-0.3,0.5-0.5c0.1-0.1,0.1-0.2,0.2-0.2
			l0.1-0.1c0,0,0-0.1,0.1-0.2l0.1-0.4c0-0.1-0.1-0.2-0.1-0.3s-0.1-0.1-0.1-0.1s-0.1,0-0.2,0S76.8,41.2,76.6,41.2z"/>
		<path style="fill:#0f4511;" d="M79.1,42.5L79.1,42.5l0.1-0.1c0.1-0.2,0.4-0.4,0.7-0.7c0.3-0.3,0.6-0.5,0.7-0.7
			c0-0.1,0.1-0.1,0.2-0.2c0.1,0,0.1,0,0.2,0c0.2,0,0.3,0,0.4,0.1s0.2,0.2,0.2,0.4c0,0.1,0.1,0.3,0.1,0.4c0,0.1,0.1,0.3,0.1,0.4
			c0,0.1,0.1,0.2,0.1,0.4s0.1,0.3,0.1,0.3l0.1,0.1c0,0,0.1,0,0.2,0s0.2,0,0.3,0c0.1,0,0.2-0.1,0.3-0.2c0.1-0.1,0.1-0.1,0.2-0.2
			c0.1-0.1,0.2-0.1,0.2-0.2l0.3,0.6c-0.1,0.1-0.2,0.2-0.3,0.3c-0.1,0.1-0.3,0.2-0.5,0.3s-0.4,0.2-0.5,0.3s-0.2,0.1-0.3,0.1
			c-0.4,0-0.7,0-0.9-0.1c-0.1-0.1-0.3-0.4-0.4-0.8c0,0,0-0.1-0.1-0.1c0-0.1-0.1-0.1-0.1-0.2c-0.1-0.1-0.1-0.2-0.2-0.2
			c0-0.1-0.1-0.1-0.1-0.1c-0.1,0-0.2,0-0.3,0.1c-0.1,0.1-0.3,0.2-0.5,0.4c0-0.1-0.1-0.1-0.1-0.2c0-0.1-0.1-0.2-0.1-0.3
			C79.2,42.6,79.2,42.6,79.1,42.5C79.2,42.5,79.1,42.5,79.1,42.5z M82.1,37.1c0.1,0,0.2,0,0.3,0.1c0.1,0,0.1,0.1,0.1,0.2
			c0,0.1-0.1,0.2-0.1,0.3c0,0.2-0.1,0.3-0.1,0.4c0,0.1-0.1,0.2-0.1,0.2c0,0.1-0.1,0.2-0.2,0.3s-0.2,0.1-0.3,0.2
			c-0.1,0.1-0.2,0.1-0.3,0.2c-0.1,0-0.1,0-0.2,0S81,39,81,39c-0.1,0-0.1,0-0.2,0s-0.1-0.1-0.1-0.2c0-0.1-0.1-0.2-0.1-0.4
			c0-0.1,0.1-0.3,0.3-0.5c0.2-0.2,0.3-0.3,0.5-0.3c0.1-0.1,0.2-0.2,0.3-0.3c0,0,0.1-0.1,0.2-0.1C81.9,37.1,82,37.1,82.1,37.1z"/>
		<path style="fill:#0f4511;" d="M84,42.5c0,0,0-0.1,0.1-0.1l0.1-0.1c0,0,0.1-0.1,0.2-0.2c0.1-0.1,0.2-0.1,0.3-0.2
			c0.1-0.1,0.2-0.2,0.3-0.3c0.1-0.1,0.3-0.3,0.5-0.5c0.1-0.1,0.2-0.2,0.3-0.3c0.1-0.1,0.3-0.3,0.4-0.4c0.1-0.2,0.3-0.3,0.4-0.3
			c0.2-0.1,0.3-0.1,0.5-0.1s0.3,0.1,0.4,0.2c0.1,0.1,0.1,0.3,0.1,0.5c0,0.1,0,0.3-0.1,0.6s-0.2,0.7-0.4,1.2c0,0.1-0.1,0.2-0.1,0.3
			s0,0.1-0.1,0.2v0.1c0,0,0,0.1,0.1,0.1c0,0,0,0,0.1-0.1c0,0,0-0.1,0.1-0.1c0-0.1,0.1-0.1,0.2-0.2c0.1-0.1,0.2-0.2,0.3-0.3
			c0-0.1,0.1-0.2,0.2-0.2c0.1-0.1,0.1-0.1,0.2-0.2c0,0,0,0,0.1-0.1l0.1-0.1c0.1-0.1,0.1-0.1,0.2-0.2c0.1-0.1,0.2-0.1,0.3-0.2
			c0.1-0.1,0.2-0.1,0.4-0.2c0.1,0,0.2-0.1,0.3-0.1c0.1,0,0.3,0,0.4,0.1s0.2,0.2,0.3,0.3c0.1,0.3,0.2,0.5,0.3,0.8
			c0.1,0.1,0.1,0.2,0.2,0.3s0.1,0.1,0.2,0.1s0.1,0,0.2,0s0.1-0.1,0.1-0.1l0.3,0.6c-0.1,0.1-0.2,0.1-0.3,0.2
			c-0.1,0.1-0.2,0.1-0.3,0.2c-0.1,0.1-0.2,0.2-0.3,0.2c-0.1,0-0.2,0.1-0.3,0.1c-0.1,0-0.2,0-0.3-0.1c-0.1,0-0.2-0.1-0.3-0.2
			c0,0-0.1-0.1-0.1-0.2c-0.1-0.1-0.1-0.2-0.2-0.4c-0.1-0.1-0.1-0.1-0.2-0.2c-0.1-0.1-0.2-0.2-0.3-0.3h-0.1c-0.1,0-0.2,0.1-0.3,0.1
			c-0.1,0.1-0.2,0.1-0.3,0.2c-0.2,0.2-0.4,0.3-0.5,0.3s-0.2,0.1-0.2,0.2c-0.1,0.1-0.2,0.3-0.3,0.4c-0.2,0.2-0.4,0.4-0.6,0.6
			c-0.1,0.1-0.1,0.1-0.2,0.2s-0.1,0.1-0.2,0.2c-0.1,0.1-0.1,0.1-0.2,0.1s-0.2,0-0.3,0c-0.2,0-0.3-0.1-0.3-0.2c0-0.1,0-0.3,0-0.4
			c0.1-0.2,0.2-0.4,0.2-0.7c0.1-0.3,0.2-0.6,0.3-1v-0.1c0,0,0-0.1,0.1-0.2c0-0.1,0-0.1,0.1-0.2V42v-0.1H86c0,0-0.1,0-0.2,0.1
			s-0.2,0.1-0.3,0.3c-0.1,0.1-0.2,0.2-0.3,0.3c-0.1,0.1-0.1,0.1-0.2,0.1c0,0-0.1,0.1-0.2,0.1c-0.1,0.1-0.1,0.1-0.2,0.2
			c0,0,0,0,0,0.1l-0.1,0.1c0-0.1-0.1-0.2-0.1-0.3C84.1,42.8,84.1,42.6,84,42.5z"/>
		<path style="fill:#0f4511;" d="M91.6,42.5c0,0,0.1-0.1,0.1-0.2c0-0.1,0.1-0.1,0.2-0.2C92,42,92,42,92.1,41.9
			c0.1-0.1,0.2-0.2,0.3-0.3c0-0.1,0.1-0.2,0.1-0.3c0.1-0.1,0.1-0.2,0.2-0.3c0-0.1,0.1-0.3,0.2-0.4s0.3-0.3,0.4-0.5
			c0.3-0.3,0.5-0.6,0.8-0.9c0.1-0.2,0.3-0.4,0.5-0.5s0.4-0.2,0.6-0.2c0.1,0,0.2,0.1,0.3,0.2c0.1,0.1,0.1,0.3,0.1,0.5
			c0,0.1-0.1,0.2-0.2,0.4s-0.3,0.4-0.5,0.7c-0.1,0.2-0.3,0.3-0.5,0.5s-0.3,0.3-0.5,0.5c-0.1,0.1-0.1,0.1-0.2,0.2
			c-0.1,0.1-0.2,0.2-0.3,0.3c0,0.1-0.1,0.2-0.1,0.3c0,0.2,0,0.3,0,0.5c0,0.1,0.1,0.2,0.1,0.3c0,0,0.1,0.1,0.2,0.2
			c0.1,0.1,0.2,0.3,0.3,0.4l0.1,0.1c0,0,0.1,0.1,0.2,0.1s0.2-0.1,0.4-0.4c0.2-0.2,0.5-0.5,0.8-0.9l0.3,0.6c0,0-0.1,0.1-0.2,0.2
			c-0.1,0.1-0.2,0.3-0.3,0.4c-0.2,0.2-0.3,0.4-0.5,0.6c0,0,0,0.1,0.1,0.2c0,0.1,0.1,0.1,0.2,0.2c0.1,0.1,0.2,0.3,0.3,0.5
			c0.1,0.2,0.2,0.5,0.2,0.8V46c0,0.1,0,0.1,0,0.2c-0.1,0.5-0.4,1.1-1,1.6s-1.2,0.8-1.8,0.8c-0.3,0-0.5,0-0.6-0.1
			c-0.2-0.1-0.3-0.2-0.3-0.3s0-0.2-0.1-0.4c0-0.2,0-0.4,0-0.7c0,0,0-0.1,0-0.2c0-0.1,0.1-0.2,0.1-0.3s0.1-0.2,0.1-0.3
			s0.1-0.2,0.2-0.3s0.1-0.2,0.2-0.3s0.1-0.2,0.2-0.3c0.2-0.2,0.3-0.3,0.4-0.4c0.1-0.1,0.2-0.2,0.2-0.2c0.1-0.1,0.1-0.1,0.1-0.2
			c-0.2-0.2-0.3-0.4-0.5-0.6c-0.2-0.2-0.3-0.4-0.4-0.6c-0.1-0.2-0.2-0.4-0.2-0.6c0,0,0-0.1-0.1-0.1c-0.1,0.1-0.2,0.2-0.3,0.3
			c0-0.1-0.1-0.2-0.1-0.3C91.8,42.8,91.7,42.6,91.6,42.5z M94,45.4c0,0-0.1,0.1-0.2,0.2c-0.1,0.1-0.2,0.3-0.4,0.6
			c-0.1,0.2-0.2,0.3-0.3,0.5c-0.1,0.2-0.2,0.3-0.3,0.5c0,0.1-0.1,0.2-0.2,0.4s-0.1,0.3-0.1,0.4c0,0.1,0,0.2,0.1,0.2s0.1,0.1,0.2,0.1
			c0.4,0,0.8-0.2,1.1-0.6c0.4-0.4,0.6-0.7,0.6-1.1c0-0.1,0-0.2,0-0.3s-0.1-0.2-0.1-0.3c-0.1-0.1-0.1-0.2-0.2-0.3
			C94.1,45.4,94.1,45.4,94,45.4z"/>
		<path style="fill:#0f4511;" d="M97.8,34.8c0.2-0.1,0.4-0.1,0.6-0.1s0.5,0,0.8,0c0.1,0,0.1,0,0.2,0s0.2,0,0.2,0c0.1,0,0.2,0,0.2,0
			c0.1,0,0.1,0,0.2,0l0.2-0.1c0,0,0.1,0,0.1,0.1c0.1,0,0.1,0.1,0.2,0.1c0,0,0.1-0.1,0.2-0.1s0.1,0,0.2,0.1c0,0.1,0.1,0.1,0.1,0.2
			c0,0.1,0,0.1,0,0.2s0,0.1,0,0.2c0,0,0,0.1,0,0.2c0,0.1,0,0.1,0,0.2c0,0.1,0,0.1,0,0.1h-0.1c-0.2,0-0.4,0-0.5,0
			c-0.2,0-0.4-0.1-0.5-0.1c-0.2,0-0.3,0-0.4,0.1c-0.1,0-0.2,0-0.2,0s-0.1,0-0.1,0.1c0,0,0,0.1,0.1,0.1l0.1,0.1l0.1,0.1
			c0,0,0.1,0.2,0.1,0.3s0,0.1,0,0.1v0.1c0,0.1,0,0.2,0,0.4c0,0.1,0,0.3-0.1,0.4c0,0.2-0.1,0.3-0.1,0.4c0,0.1,0,0.2-0.1,0.3
			c0,0,0,0.1,0,0.2c0,0.1,0,0.1,0,0.2c0,0.1,0,0.2-0.1,0.3c0,0.1-0.1,0.2-0.1,0.4c0,0.1,0,0.1,0,0.2c0,0.1,0,0.2-0.1,0.3
			c0,0.1,0,0.1-0.1,0.2c0,0.1-0.1,0.2-0.1,0.3s0,0.1,0,0.2c0,0.1,0,0.3-0.1,0.4c0,0.2-0.1,0.4-0.1,0.6c0,0.2-0.1,0.4-0.1,0.6
			c0,0.1-0.1,0.1-0.1,0.2v0.1c0,0,0,0.1,0,0.2c0,0.1,0,0.1,0,0.2c0,0.1,0,0.2,0,0.2c0,0.1,0,0.2,0,0.4s0,0.3,0,0.4
			c0,0.1,0,0.2,0.1,0.2c0,0.1,0,0.1,0,0.2c0,0,0,0.1-0.1,0.1c-0.1,0.1-0.2,0.1-0.2,0.1l-0.1,0.1H98c-0.1,0-0.2,0-0.2,0l-0.1-0.1
			c0-0.2,0-0.3,0.1-0.4c0,0,0,0,0-0.1c0,0,0-0.1-0.1-0.1c0-0.4-0.1-0.7-0.1-1.1c0-0.3,0-0.5,0-0.8c0-0.1,0-0.3,0-0.5s0-0.4,0.1-0.7
			s0.1-0.5,0.1-0.7s0-0.3,0-0.5c0-0.1,0-0.1,0-0.2s0-0.2,0-0.3s0-0.2,0-0.3s0-0.2,0-0.2v-0.1v-0.1c0-0.1,0.1-0.2,0.1-0.3
			s0-0.1,0-0.1c0-0.1,0-0.1-0.1-0.2c0-0.1,0.1-0.2,0.1-0.3c0-0.2,0.1-0.4,0.1-0.7c0-0.1,0-0.1,0-0.2c0-0.1,0-0.2,0-0.3v-0.1h-0.1
			c-0.1,0-0.1,0-0.2,0l0.3-0.1c-0.1,0-0.1,0-0.2,0s-0.1,0-0.2,0c-0.5,0.1-1,0.3-1.5,0.4H96v-0.1v-0.1c0-0.1,0.1-0.2,0.1-0.3
			c0-0.2,0-0.3,0-0.4c0-0.1,0-0.2,0.1-0.2c0-0.1,0.1-0.2,0.2-0.3s0.2-0.1,0.3-0.2c0.2-0.1,0.4-0.1,0.6-0.1
			C97.5,34.8,97.7,34.8,97.8,34.8z"/>
		<path style="fill:#0f4511;" d="M101.2,42.5l0.1-0.1c0-0.1,0.1-0.1,0.1-0.2l0.6-0.4c0.1-0.1,0.2-0.2,0.3-0.3
			c0.1-0.1,0.3-0.3,0.5-0.4c0-0.1,0.1-0.1,0.1-0.2s0.1-0.1,0.2-0.2c0.1-0.1,0.1-0.1,0.2-0.2c0.1-0.1,0.1-0.1,0.2-0.2
			c0.1-0.1,0.1-0.1,0.2-0.2c0.1-0.1,0.1-0.1,0.2-0.2c0.1-0.1,0.2-0.1,0.2-0.2c0.1,0,0.2-0.1,0.3-0.1c0.1,0,0.2,0,0.2,0l0.1,0.1
			c0,0.1-0.1,0.2-0.2,0.3v0.1c0.2-0.1,0.4-0.1,0.5-0.2c0.1,0,0.2-0.1,0.2-0.1c0.4,0,0.6,0.1,0.8,0.3c0.2,0.2,0.3,0.5,0.3,0.9
			c0,0.1,0,0.2,0,0.3s-0.1,0.2-0.1,0.3s-0.1,0.3-0.2,0.3c-0.1,0.1-0.1,0.2-0.2,0.2c0,0.1,0,0.1,0.1,0.1h0.1h0.1l0.1-0.1
			c0,0.1,0.1,0.2,0.1,0.3s0.1,0.2,0.1,0.3c-0.1,0.1-0.2,0.1-0.3,0.2c-0.1,0.1-0.2,0.1-0.3,0.2c-0.1,0.1-0.2,0.1-0.3,0.2
			c-0.1,0-0.2,0.1-0.3,0.1c-0.1,0-0.2,0-0.3-0.1s-0.1-0.1-0.2-0.2c-0.1,0.2-0.3,0.3-0.4,0.4c-0.2,0.1-0.4,0.2-0.6,0.3
			c-0.1,0.1-0.2,0.1-0.3,0.1c-0.1,0-0.2,0-0.3,0H103c-0.1,0-0.1,0-0.2,0c-0.3,0-0.5-0.1-0.7-0.3s-0.3-0.5-0.3-0.7
			c0-0.1,0-0.3,0.1-0.4s0.1-0.3,0.1-0.3v-0.1h-0.1c0,0-0.1,0-0.2,0.1s-0.2,0.2-0.4,0.3c0,0,0,0-0.1,0.1l-0.1,0.1
			c0-0.1-0.1-0.2-0.1-0.3C101.3,42.7,101.3,42.6,101.2,42.5z M104.7,41.2c0,0-0.1,0-0.1,0.1c0,0-0.1,0.1-0.1,0.2
			c-0.1,0.1-0.1,0.2-0.2,0.3s-0.1,0.1-0.2,0.1S104,42,103.9,42c0,0-0.1,0-0.2,0.1s-0.1,0.2-0.2,0.4c-0.1,0.1-0.1,0.3-0.1,0.4
			c0,0.1,0,0.2,0,0.3s0,0.2,0.1,0.3s0.2,0.1,0.3,0.1c0.2,0,0.4-0.1,0.6-0.2c0.2-0.1,0.4-0.3,0.5-0.5c0.1-0.1,0.1-0.2,0.2-0.2
			l0.1-0.1c0,0,0-0.1,0.1-0.2l0.1-0.4c0-0.1-0.1-0.2-0.1-0.3s-0.1-0.1-0.1-0.1s-0.1,0-0.2,0S104.8,41.2,104.7,41.2z"/>
		<path style="fill:#0f4511;" d="M107.2,42.5c0,0,0-0.1,0.1-0.1l0.1-0.1c0,0,0.1-0.1,0.2-0.2c0.1-0.1,0.2-0.1,0.3-0.2
			c0.1-0.1,0.2-0.2,0.3-0.3c0.1-0.1,0.3-0.3,0.5-0.5c0.1-0.1,0.2-0.2,0.3-0.3c0.1-0.1,0.3-0.3,0.4-0.4c0.1-0.2,0.3-0.3,0.4-0.3
			c0.2-0.1,0.3-0.1,0.5-0.1s0.3,0.1,0.4,0.2c0.1,0.1,0.1,0.3,0.1,0.5c0,0.1,0,0.3-0.1,0.6s-0.2,0.7-0.4,1.2c0,0.1-0.1,0.2-0.1,0.3
			s0,0.1-0.1,0.2v0.1c0,0,0,0.1,0.1,0.1c0,0,0,0,0.1-0.1c0,0,0-0.1,0.1-0.1c0-0.1,0.1-0.1,0.2-0.2c0.1-0.1,0.2-0.2,0.3-0.3
			c0-0.1,0.1-0.2,0.2-0.2c0.1-0.1,0.1-0.1,0.2-0.2c0,0,0,0,0.1-0.1l0.1-0.1c0.1-0.1,0.1-0.1,0.2-0.2c0.1-0.1,0.2-0.1,0.3-0.2
			c0.1-0.1,0.2-0.1,0.4-0.2c0.1,0,0.2-0.1,0.3-0.1c0.1,0,0.3,0,0.4,0.1s0.2,0.2,0.3,0.3c0.1,0.3,0.2,0.5,0.3,0.8
			c0.1,0.1,0.1,0.2,0.2,0.3s0.1,0.1,0.2,0.1s0.1,0,0.2,0s0.1-0.1,0.1-0.1l0.3,0.6c-0.1,0.1-0.2,0.1-0.3,0.2
			c-0.1,0.1-0.2,0.1-0.3,0.2c-0.1,0.1-0.2,0.2-0.3,0.2c-0.1,0-0.2,0.1-0.3,0.1c-0.1,0-0.2,0-0.3-0.1c-0.1,0-0.2-0.1-0.3-0.2
			c0,0-0.1-0.1-0.1-0.2c-0.1-0.1-0.1-0.2-0.2-0.4c-0.1-0.1-0.1-0.1-0.2-0.2c-0.1-0.1-0.2-0.2-0.3-0.3H112c-0.1,0-0.2,0.1-0.3,0.1
			c-0.1,0.1-0.2,0.1-0.3,0.2c-0.2,0.2-0.4,0.3-0.5,0.3s-0.2,0.1-0.2,0.2c-0.1,0.1-0.2,0.3-0.3,0.4c-0.2,0.2-0.4,0.4-0.6,0.6
			c-0.1,0.1-0.1,0.1-0.2,0.2s-0.1,0.1-0.2,0.2c-0.1,0.1-0.1,0.1-0.2,0.1s-0.2,0-0.3,0c-0.2,0-0.3-0.1-0.3-0.2c0-0.1,0-0.3,0-0.4
			c0.1-0.2,0.2-0.4,0.2-0.7c0.1-0.3,0.2-0.6,0.3-1v-0.1c0,0,0-0.1,0.1-0.2c0-0.1,0-0.1,0.1-0.2V42v-0.1h-0.1c0,0-0.1,0-0.2,0.1
			s-0.2,0.1-0.3,0.3c-0.1,0.1-0.2,0.2-0.3,0.3c-0.1,0.1-0.1,0.1-0.2,0.1c0,0-0.1,0.1-0.2,0.1c-0.1,0.1-0.1,0.1-0.2,0.2
			c0,0,0,0,0,0.1l-0.1,0.1c0-0.1-0.1-0.2-0.1-0.3C107.3,42.8,107.2,42.6,107.2,42.5z"/>
		<path style="fill:#0f4511;" d="M114.8,42.5c0.1-0.1,0.1-0.2,0.2-0.3s0.2-0.2,0.3-0.3c0-0.1,0-0.2,0-0.3s0-0.2,0-0.3s0-0.1,0.1-0.2
			c0-0.1,0.1-0.2,0.1-0.3s0.1-0.2,0.2-0.4s0.2-0.3,0.3-0.5c0.1-0.1,0.2-0.2,0.3-0.3c0.1-0.1,0.2-0.3,0.3-0.4c0.1,0,0.1-0.1,0.2-0.1
			s0.1-0.1,0.2-0.1s0.1,0,0.2,0s0.2,0,0.2,0c0.1,0,0.2,0,0.3,0c0.1,0,0.1,0.1,0.2,0.1c0,0,0.1,0.1,0.1,0.2c0,0.1,0.1,0.2,0.1,0.3
			s0,0.2,0.1,0.3l0,0c0,0.1,0,0.1-0.1,0.2l-0.1,0.2c-0.1,0.2-0.2,0.5-0.5,0.8c-0.2,0.3-0.6,0.6-1,1l-0.1,0.1c0,0,0,0.1,0,0.2
			c0,0.1,0,0.2,0.1,0.3c0,0.1,0.1,0.1,0.2,0.2c0,0,0.1,0.1,0.2,0.1s0.2,0.1,0.3,0.1c0.2,0,0.4,0,0.5-0.1c0.2,0,0.3-0.1,0.4-0.2
			c0,0,0.1,0,0.1-0.1c0.1,0,0.1-0.1,0.2-0.1c0.1,0.1,0.1,0.3,0.2,0.4c0,0.1,0.1,0.2,0.1,0.3c-0.3,0.3-0.5,0.5-0.7,0.6
			s-0.4,0.2-0.6,0.2c-0.1,0-0.2,0.1-0.3,0.1c-0.1,0-0.2,0-0.3,0c-0.2,0-0.3,0-0.5-0.1S116,44,116,43.9c0,0-0.1-0.1-0.1-0.2
			c0-0.1-0.1-0.2-0.2-0.3c0-0.1-0.1-0.2-0.1-0.2l-0.1-0.1c0,0-0.1,0-0.1,0.1s-0.1,0.1-0.2,0.2c0-0.1-0.1-0.2-0.1-0.3
			C114.9,42.8,114.9,42.6,114.8,42.5z M117.1,40.2c-0.1,0-0.2,0.1-0.4,0.4c-0.2,0.3-0.3,0.5-0.3,0.6c0,0,0,0,0,0.1c0,0,0,0,0.1,0
			s0.1,0,0.1-0.1s0.1-0.1,0.1-0.1c0.1,0,0.1-0.1,0.2-0.1c0.1-0.1,0.1-0.1,0.1-0.2c0.1-0.1,0.1-0.1,0.1-0.2c0-0.1,0-0.1,0-0.2
			C117.2,40.3,117.2,40.3,117.1,40.2C117.2,40.3,117.1,40.2,117.1,40.2z"/>
	</g>
	<g style="display:inline;">
		<path style="fill:#0f4511;" d="M41.4,18.3c-0.3-0.8-0.7-1.5-1-2.2c0,0,0-0.1-0.1-0.1c-0.2-0.3-0.3-0.6-0.5-0.9
			c0-0.1-0.1-0.1-0.1-0.2c-0.2-0.3-0.3-0.5-0.5-0.8c0-0.1-0.1-0.1-0.2-0.2c-0.2-0.3-0.4-0.5-0.5-0.8c-0.1-0.1-0.1-0.1-0.2-0.2
			c-0.2-0.3-0.4-0.5-0.6-0.7c-0.1-0.1-0.1-0.1-0.2-0.2c-0.2-0.3-0.5-0.5-0.7-0.8c0,0,0-0.1-0.1-0.1c-0.6-0.6-1.1-1.1-1.8-1.6
			l-0.1-0.1C34.5,9.2,34.3,9,34,8.8c-0.1-0.1-0.2-0.1-0.2-0.2c-0.2-0.2-0.5-0.3-0.7-0.5C33,8,32.9,7.9,32.8,7.8
			c-0.2-0.1-0.4-0.3-0.7-0.4c-0.1-0.1-0.2-0.1-0.3-0.2c-0.2-0.1-0.5-0.3-0.7-0.4c-0.1-0.1-0.2-0.1-0.4-0.2c-0.2-0.1-0.5-0.2-0.7-0.3
			c-0.1-0.1-0.2-0.1-0.4-0.2c-0.1,0-0.1-0.1-0.2-0.1l0,0c-0.7-0.3-1.3-0.5-2-0.7v9.3c0.1,2.1,1.7,3.7,3.7,3.7L41.4,18.3
			C41.4,18.4,41.4,18.3,41.4,18.3L41.4,18.3z"/>
		<path style="fill:#0f4511;" d="M43.7,24.3h-1.2H31h-1.2c-1.2,0-2.1,1-2.1,2.2v0.9c0,1.2,1,2.2,2.1,2.2H31h1.8h0.9
			c0.8,0,1.4,0.7,1.4,1.5v0.3c0,2.3-1.8,4.2-4,4.2h-8.6l0,0h-2.9c-2.3,0-4.1-1.9-4.1-4.3v-8.7c0-2.3,1.8-4.2,3.9-4.3h0.1
			c2,0,3.6-1.7,3.7-3.7v-10c0,0-1.1-0.1-1.7-0.1c-3.5,0-6.7,0.9-9.6,2.4l0,0c-0.3,0.1-0.5,0.3-0.8,0.4c0,0,0,0-0.1,0
			C10.4,7.6,9.9,8,9.4,8.4l0,0C9.1,8.6,8.9,8.8,8.6,9L8.5,9.1C8.3,9.3,8.1,9.4,7.9,9.6c0,0-0.1,0.1-0.2,0.1C7.5,9.9,7.4,10,7.2,10.2
			c-0.1,0.1-0.1,0.1-0.2,0.2c-0.2,0.2-0.4,0.4-0.6,0.6c-0.1,0.1-0.2,0.2-0.3,0.3c-0.1,0.1-0.2,0.2-0.3,0.4c-0.1,0.1-0.2,0.2-0.3,0.3
			c-0.1,0.1-0.2,0.2-0.3,0.3c-0.1,0.1-0.2,0.3-0.3,0.4c-0.1,0.1-0.1,0.2-0.2,0.3c-0.4,0.5-0.8,1.1-1.2,1.7c0,0.1-0.1,0.1-0.1,0.2
			c-0.1,0.2-0.2,0.4-0.3,0.6c0,0.1-0.1,0.1-0.1,0.2C1.1,18.9,0,22.8,0,27c0,12.3,9.4,22.3,21.2,22.5c10.1-0.2,18.4-7.8,20.1-17.9
			c0-0.3,0.1-1.1,0.5-1.5c0.5-0.5,1.1-0.5,1.2-0.5h0.7c1.2,0,2.1-1,2.1-2.2v-0.9C45.8,25.3,44.9,24.3,43.7,24.3z"/>
	</g>
</g>
<g>
	<g>
		<path style="fill:#CF111B;" d="M32.2,18.3h9.5C39.2,12.2,34.1,7.4,28,5.5V14C28,16.3,29.8,18.3,32.2,18.3z"/>
		<path style="fill:#CF111B;" d="M44.1,24.8L44.1,24.8L44.1,24.8h-14c-1.2,0-2.1,1-2.1,2.2v0.7c0,1.2,0.9,2.2,2.1,2.2h4.2
			c0.8,0,1.4,0.6,1.4,1.5l0,0c0,2.4-1.9,4.4-4.2,4.4H28h-4.2h-4.2c-2.3,0-4.2-2-4.2-4.4v-7.3v-1.5c0-2.4,1.9-4.4,4.2-4.4
			s4.2-2,4.2-4.4V4.6c-0.7-0.1-1.4-0.1-2.1-0.1C9.7,4.5,0,14.6,0,27c0,12.2,9.3,22.1,21,22.5c10.5,0,19.1-8,20.7-18.4l0,0
			c0.1-0.7,0.7-1.2,1.4-1.2h0.1l0,0H44l0,0h0.1c1.2,0,2.1-1,2.1-2.2V27C46.2,25.8,45.3,24.8,44.1,24.8z"/>
	</g>
	<g>
		<path style="fill:#231815;" d="M72.3,13.8v-2.2H60.9v2.2h2.8v2.4h-2.8v2.2h2.8v6h-2.8v2.2h9.3c1.7,0,2.1-0.4,2.1-2.2v-3.7h-2.7v3
			c0,0.7,0.1,0.7-0.6,0.7h-1v-6h4.4v-2.2H68v-2.4C68,13.8,72.3,13.8,72.3,13.8z"/>
		<path style="fill:#231815;" d="M111.8,25.1V11.6h-4.4V30H128c1.2,0,1.9-0.8,1.9-2h-20.4C111,27.7,111.8,26.8,111.8,25.1z"/>
		<polygon style="fill:#231815;" points="101.2,21.4 101.6,30 104.5,30 104.2,21.4 		"/>
		<polygon style="fill:#231815;" points="92.5,30 95.3,30 95.6,21.4 92.9,21.4 		"/>
		<path style="fill:#231815;" d="M96.9,16.4L96.9,16.4v0.5h2.7v-2.3h1.9v2.3c0,1.1-0.3,1.4-1,1.4h-4.9v-6.7l0,0l0,0l1.1-1.9h-3.2
			l-1.1,1.9v9h4.2V30h1.3c1.7,0,2.1-0.5,2.1-2.1v-7.3h2.6c1.4,0,1.7-0.6,1.7-2.2v-6.7h-7.6v4.7H96.9z"/>
		<rect x="81.4" y="11.6" style="fill:#231815;" width="4.3" height="2.2"/>
		<path style="fill:#231815;" d="M73.8,26.8c0.1,0.9-0.3,1.3-1.1,1.2H59.5V9.7h26.2V7.5H54.9V30h21.5c1.4,0.1,2-0.6,1.9-2V11.5h-4.6
			v15.3H73.8z"/>
		<path style="fill:#231815;" d="M87.1,7.5V28h-1.5V15.4h-4.3V30h7.9l0,0l0,0c1.5,0,1.9-0.6,1.9-2V9.7h20.4V7.5H87.1z"/>
		<path style="fill:#231815;" d="M130,9.7V7.5l0,0h-16.6l0,0v2.2h10.4l-3.5,1.9h-6.9v15.1h3.8v-4h2.4v4h4.6v-4h2.1v4h2.1
			c1.2,0,1.7-0.5,1.7-2.2V11.6h-3.5L130,9.7L130,9.7z M119.6,20.4h-2.4V18h2.4V20.4z M119.6,15.8h-2.4v-1.7h2.4V15.8z M126.2,20.4
			h-2.1V18h2.1V20.4z M126.2,15.8h-2.1v-1.7h2.1V15.8z"/>
	</g>
	<g>
		<path style="fill:#CF111B;" d="M80.7,38c0.1,0,0.2,0,0.3,0c0.1,0,0.2,0,0.3,0c0,0,0.1,0,0.2,0s0.2-0.1,0.3-0.2
			c0.1-0.1,0.2-0.1,0.3-0.2c0.1-0.1,0.2-0.2,0.2-0.3c0,0,0.1-0.1,0.1-0.2c0-0.1,0.1-0.3,0.2-0.4c0-0.1,0.1-0.2,0.1-0.3
			s0-0.2-0.1-0.2s-0.2-0.1-0.3-0.1c-0.1,0-0.2,0-0.3,0c-0.1,0-0.2,0-0.2,0.1c-0.1,0.1-0.3,0.2-0.4,0.3c-0.2,0-0.4,0.1-0.6,0.4
			c-0.2,0.2-0.3,0.4-0.3,0.5c0,0.2,0,0.3,0.1,0.4C80.5,37.9,80.6,37.9,80.7,38z"/>
		<g>
			<path style="fill:#CF111B;" d="M71.9,34.9c-0.1-0.2-0.2-0.4-0.2-0.4c0-0.1-0.1-0.2-0.3-0.3c-0.2-0.2-0.3-0.3-0.4-0.4
				c-0.1-0.1-0.2-0.1-0.2-0.2c-0.1,0-0.3-0.1-0.4-0.1s-0.3-0.1-0.4-0.1h-0.1l-0.3-0.1l-0.8,0.1c-0.2,0-0.3,0.1-0.4,0.1
				s-0.2,0.1-0.3,0.1c-0.2,0.1-0.4,0.2-0.5,0.2c-0.2,0.1-0.3,0.2-0.4,0.2c0,0-0.1,0.1-0.3,0.2c-0.2,0.1-0.3,0.3-0.6,0.4
				c-0.7,0.5-1.2,1.1-1.6,1.9c-0.4,0.7-0.7,1.5-0.8,2.4L63.7,40c0,0.2,0,0.3,0,0.4c0,0.1,0,0.3-0.1,0.4c0.1,0.3,0.2,0.5,0.2,0.7
				c0.1,0.2,0.1,0.3,0.1,0.3c0.1,0.2,0.2,0.4,0.3,0.5s0.3,0.3,0.4,0.3c0.2,0.1,0.3,0.2,0.5,0.2c0.1,0.1,0.3,0.1,0.4,0.1s0.2,0,0.3,0
				l0.4,0.1c0.3,0,0.5-0.1,0.7-0.2c0.2-0.1,0.5-0.2,0.7-0.3c0.1-0.1,0.3-0.2,0.5-0.3s0.5-0.3,0.8-0.5c0.1-0.1,0.3-0.2,0.5-0.3h0.1
				c0,0,0,0,0,0.1s0,0.1-0.1,0.2l0.1,0.5c-0.1,0.3-0.2,0.6-0.2,0.8c-0.1,0.2-0.1,0.4-0.1,0.5c0,0.2,0,0.3,0,0.5c0,0.1,0,0.2-0.1,0.3
				C69,44.5,69,44.6,69,44.7c0,0.1,0,0.2,0,0.2c0,0.1,0,0.2,0.1,0.3c0,0.1,0.1,0.1,0.2,0.1s0.2,0,0.2-0.1c0.1-0.1,0.1-0.1,0.1-0.3
				c0.1,0,0.3-0.1,0.3-0.1c0.1,0,0.1-0.1,0.2-0.1s0.1-0.1,0.1-0.2c0-0.1,0.1-0.2,0.1-0.3c0-0.2,0.1-0.3,0.1-0.4
				c0-0.1,0.1-0.2,0.1-0.2c0.1-0.2,0.2-0.4,0.3-0.8c0.1-0.4,0.1-0.6,0.2-0.8c0.1-0.1,0.1-0.3,0.2-0.4c0-0.2,0.1-0.4,0.1-0.6
				c0-0.2,0.1-0.3,0.1-0.5c0-0.1,0-0.2,0.1-0.3c0-0.1,0-0.1,0.1-0.2c0-0.1,0.1-0.2,0.1-0.2c0-0.2-0.1-0.3-0.2-0.4
				c-0.1-0.1-0.3-0.1-0.5-0.1s-0.3,0-0.5,0.1c-0.1,0.1-0.3,0.2-0.4,0.3s-0.2,0.2-0.3,0.4c-0.1,0.1-0.2,0.3-0.3,0.4
				c-0.1,0.1-0.2,0.2-0.3,0.2c-0.1,0.1-0.2,0.1-0.2,0.2c-0.3,0.2-0.5,0.4-0.6,0.6c-0.2,0.1-0.3,0.2-0.3,0.3
				c-0.2,0.1-0.4,0.2-0.6,0.3s-0.4,0.1-0.7,0.1c-0.2,0-0.3,0-0.4-0.1c-0.1,0-0.2-0.1-0.3-0.2c-0.1,0-0.1-0.1-0.2-0.2
				c-0.1-0.1-0.1-0.2-0.2-0.4s-0.2-0.4-0.2-0.6c0-0.2-0.1-0.4-0.1-0.6c0-0.1,0-0.3,0.1-0.6c0-0.3,0.1-0.7,0.2-1.3
				c0.1-0.2,0.1-0.3,0.2-0.4c0-0.1,0.1-0.3,0.1-0.4c0-0.1,0-0.2,0.1-0.2c0-0.1,0-0.1,0.1-0.1c0.1-0.1,0.1-0.2,0.2-0.3
				s0.1-0.2,0.2-0.3s0.2-0.3,0.3-0.4c0.1-0.1,0.2-0.2,0.2-0.3c0.1-0.1,0.1-0.1,0.1-0.2l0.1-0.1c0.2-0.2,0.3-0.3,0.5-0.5
				c0.1-0.1,0.2-0.2,0.3-0.3c0.2-0.1,0.3-0.2,0.5-0.3s0.4-0.1,0.6-0.1c0.4,0,0.7,0.1,1,0.4c0.3,0.3,0.5,0.7,0.7,1.2
				c0,0.1,0.1,0.3,0.1,0.5c0,0.1,0,0.2,0.1,0.3s0.1,0.1,0.3,0.1c0.2,0,0.4-0.1,0.7-0.4c0.3-0.2,0.5-0.5,0.5-0.6s-0.1-0.3-0.2-0.5
				C72.1,35.1,72,35,71.9,34.9z"/>
			<path style="fill:#CF111B;" d="M101.1,34.4c0.1,0,0.1,0,0.2,0s0.3,0,0.5-0.1c0.2,0.1,0.4,0.1,0.7,0.1c0.2,0,0.4,0,0.7,0h0.1v-0.1
				c0,0,0-0.1,0-0.2c0-0.1,0-0.1,0-0.2c0-0.1,0-0.2,0-0.2c0-0.1,0-0.2,0-0.2c0-0.1-0.1-0.2-0.1-0.2c-0.1-0.1-0.1-0.1-0.2-0.1
				s-0.2,0.1-0.2,0.1c-0.1,0-0.2-0.1-0.2-0.1c-0.1,0-0.1,0-0.2-0.1l-0.2,0.1c-0.1,0-0.2,0-0.3-0.1c-0.1,0-0.1,0-0.3,0
				c-0.1,0-0.2,0-0.3,0c-0.1,0-0.2,0-0.3,0c-0.3,0-0.7,0-0.9,0c-0.3,0-0.5,0.1-0.8,0.1c-0.2,0-0.4,0-0.7,0c-0.2,0-0.5,0.1-0.8,0.1
				c-0.1,0-0.3,0.1-0.3,0.2c-0.1,0.1-0.2,0.2-0.2,0.3s0,0.1-0.1,0.3c0,0.1,0,0.3,0,0.4c-0.1,0.1-0.1,0.2-0.1,0.3s0,0.1,0,0.2
				c0,0.1,0,0.1,0,0.1h0.1c0.6-0.1,1.2-0.3,1.8-0.4c0.1,0,0.2,0,0.3-0.1c0.1,0,0.2,0,0.2,0l0.1-0.1c0.1,0,0.2,0,0.2,0
				c0.1,0,0.1,0,0.1,0l0.1,0.1c0,0.1,0,0.2,0,0.3s0,0.2,0,0.2c0,0.3-0.1,0.5-0.1,0.7s-0.1,0.3-0.1,0.4c0,0.1,0.1,0.1,0.1,0.2v0.1
				c0,0.1-0.1,0.2-0.1,0.3v0.1V37c0,0.1,0,0.2,0,0.2c0,0.1,0,0.2-0.1,0.3c0,0.1,0,0.2,0,0.3s0,0.2,0,0.2c0,0.1,0,0.3,0,0.5
				s0,0.4-0.1,0.7c0,0.3-0.1,0.5-0.1,0.7s0,0.4,0,0.5c0,0.3,0,0.6,0,0.9c0,0.4,0.1,0.8,0.1,1.2c0,0.1,0.1,0.1,0.1,0.1v0.1
				c0,0.2-0.1,0.3-0.1,0.5c0,0,0,0.1,0.1,0.1s0.1,0,0.3,0h0.1l0.1-0.1c0.1,0,0.2-0.1,0.3-0.1l0.1-0.1c0,0,0-0.1,0.1-0.2
				c0-0.1-0.1-0.2-0.1-0.2c0-0.1,0-0.2,0-0.4s0-0.3,0-0.4c0,0,0-0.1,0-0.2c0-0.1,0-0.2,0-0.2s0-0.1,0-0.2c0-0.1,0-0.1,0-0.2
				c0-0.1,0.1-0.1,0.1-0.2c0-0.2,0.1-0.4,0.1-0.6c0-0.2,0.1-0.4,0.1-0.6c0-0.1,0-0.3,0.1-0.4c0-0.1,0-0.2,0-0.2
				c0-0.1,0.1-0.2,0.1-0.3s0.1-0.2,0.1-0.2c0-0.1,0.1-0.2,0.1-0.3s0-0.2,0-0.2c0-0.1,0.1-0.3,0.1-0.4c0-0.1,0.1-0.2,0.1-0.3
				s0-0.2,0-0.2c0-0.1,0-0.1,0-0.2c0-0.1,0-0.2,0.1-0.3c0-0.1,0.1-0.3,0.1-0.5c0-0.1,0.1-0.2,0.1-0.4s0-0.3,0-0.4v-0.1
				c0,0,0-0.1,0-0.2c-0.1-0.1-0.1-0.2-0.2-0.3s-0.1-0.1-0.1-0.2c-0.1,0-0.1-0.1-0.1-0.1C101.1,34.5,101,34.5,101.1,34.4
				C101,34.4,101,34.4,101.1,34.4z"/>
			<path style="fill:#CF111B;" d="M121.3,41.3c-0.1-0.1-0.2-0.3-0.4-0.1c-0.1,0-0.1,0.1-0.2,0.1s-0.1,0-0.1,0.1
				c-0.1,0.1-0.3,0.1-0.5,0.2c-0.2,0-0.4,0.1-0.6,0.1c-0.1,0-0.3-0.1-0.4-0.1s-0.2-0.1-0.2-0.1c-0.1,0-0.1-0.1-0.2-0.2
				c0-0.1-0.1-0.2-0.1-0.3s0-0.1,0-0.2c0-0.1,0.1-0.1,0.1-0.1c0.5-0.4,0.9-0.7,1.2-1c0.3-0.3,0.5-0.6,0.6-0.8l0.1-0.2
				c0-0.1,0.1-0.2,0.1-0.3s0-0.3,0-0.4c0-0.1-0.1-0.2-0.1-0.3s-0.1-0.1-0.1-0.2c-0.1-0.1-0.1-0.1-0.2-0.1s-0.2,0-0.4,0
				c-0.1,0-0.2,0-0.3,0c-0.1,0-0.2,0-0.2,0.1c-0.1,0-0.2,0.1-0.2,0.1c-0.1,0-0.1,0.1-0.2,0.1c-0.1,0.1-0.3,0.3-0.4,0.4
				c-0.1,0.1-0.3,0.3-0.4,0.4c-0.1,0.2-0.3,0.4-0.4,0.5c-0.1,0.2-0.2,0.3-0.2,0.4c0,0.1-0.1,0.2-0.1,0.3s-0.1,0.2-0.1,0.2
				c0,0.1,0,0.2,0,0.3s-0.1,0.4-0.1,0.5c-0.1,0.2-0.2,0.4-0.4,0.6c-0.1,0.1-0.2,0.2-0.3,0.3c0,0-0.2,0.2-0.2,0.3
				c-0.1,0.1-0.2,0.4-0.5,0.3c-0.3-0.1-0.3-0.5-0.3-0.7c0-0.1-0.1-0.5-0.2-0.7c-0.1-0.3-0.1-0.6-0.2-0.9c-0.1-0.2-0.2-0.3-0.3-0.3
				c-0.1-0.1-0.3-0.1-0.5-0.1c-0.1,0-0.2,0-0.3,0.1c-0.1,0-0.3,0.1-0.4,0.2c-0.1,0.1-0.3,0.1-0.4,0.2c-0.1,0.1-0.2,0.1-0.3,0.2
				c-0.1,0-0.1,0.1-0.1,0.1l-0.1,0.1c-0.1,0.1-0.2,0.1-0.3,0.2c-0.1,0.1-0.2,0.2-0.2,0.2c-0.1,0.1-0.3,0.2-0.3,0.3
				c-0.1,0.1-0.2,0.2-0.2,0.2l-0.1,0.1c0,0-0.1,0-0.1,0.1l-0.1-0.1v-0.1c0,0,0-0.1,0.1-0.2c0-0.1,0.1-0.2,0.1-0.3
				c0.2-0.5,0.4-0.9,0.5-1.3c0.1-0.3,0.1-0.5,0.1-0.6c0-0.2-0.1-0.4-0.1-0.5c-0.1-0.1-0.3-0.2-0.5-0.2s-0.4,0-0.6,0.1
				s-0.4,0.2-0.5,0.4c-0.2,0.2-0.3,0.7-0.4,0.9c-0.2,0.1-0.2,0.2-0.4,0.4c-0.2,0.2-0.3,0.2-0.5,0.3s-0.6,0.3-0.6,0.3
				c-0.1,0-0.6,0.2-0.7,0.2c-0.3,0,0-0.8,0.1-1c0-0.4-0.1-0.8-0.3-1c-0.9-0.8-1.8-0.6-1.9-0.6s-0.1,0-0.3,0c-0.1,0-0.2,0-0.3,0.1
				c-0.1,0-0.2,0-0.3,0.1c-0.1,0.1-0.2,0.1-0.2,0.2c-0.1,0.1-0.2,0.1-0.3,0.2c-0.1,0.1-0.1,0.1-0.2,0.2c-0.1,0.1-0.2,0.1-0.2,0.2
				c-0.1,0.1-0.3,0.4-0.4,0.4c-0.7,1.2-0.7,1.6-0.8,1.8c-0.1,0.2-0.1,0.4-0.1,0.6c0,0.3,0.1,0.5,0.4,0.8c0.3,0.2,0.6,0.3,0.9,0.3
				c0.1,0,0.1,0,0.2,0s0.1,0,0.2,0s0.2,0,0.3,0c0.1,0,0.3-0.1,0.4-0.1c0.3-0.1,0.5-0.2,0.7-0.3c0.1-0.1,0.6-0.4,1-0.8
				c0.2-0.2,0.5-0.5,0.7-0.7c0.1-0.2,0.2-0.2,0.2-0.3c0.1,0.1,0.1,0.1,0.1,0.2c0.1,0.1,0.4,0,0.5,0s0.3-0.1,0.4-0.1s0.3,0,0.4-0.1
				s0.3,0,0.5-0.2c0.1-0.1,0.2,0,0.2-0.1c0.1-0.1,0.2,0,0.2,0c0.1,0,0.1,0,0.1,0s0,0,0,0.1v0.1c0,0,0,0.1-0.1,0.2
				c0,0.1-0.1,0.1-0.1,0.2s0,0.1,0,0.1c-0.1,0.4-0.3,0.8-0.4,1.1s-0.2,0.6-0.3,0.8c0,0.1,0,0.3,0.1,0.4c0,0.1,0.1,0.2,0.4,0.2
				c0.1,0,0.2,0,0.3,0c0.1,0,0.2-0.1,0.3-0.1c0.1-0.1,0.2-0.1,0.2-0.2c0.1-0.1,0.2-0.1,0.2-0.2c0.3-0.3,0.5-0.5,0.7-0.7
				s0.3-0.3,0.4-0.5c0-0.1,0.1-0.1,0.2-0.2c0.1,0,0.3-0.2,0.6-0.4c0.1-0.1,0.2-0.2,0.3-0.2c0.1-0.1,0.2-0.1,0.3-0.1h0.1
				c0.1,0.1,0.2,0.3,0.3,0.4c0.1,0.1,0.2,0.2,0.3,0.3c0.1,0.2,0.2,0.3,0.2,0.4c0.1,0.1,0.1,0.2,0.2,0.2c0.1,0.1,0.1,0.2,0.2,0.3
				c0.1,0,0.2,0.1,0.4,0.1c0.1,0,0.4,0,0.5-0.1c0.1,0,0.3-0.1,0.4-0.2c0.1-0.1,0.2-0.2,0.3-0.3c0.1-0.1,0.4-0.4,0.4-0.4
				c0.1,0,0.1-0.1,0.2-0.1s0.1,0,0.2,0.1c0,0.1,0.1,0.1,0.1,0.2c0.1,0.1,0.1,0.2,0.2,0.3s0.1,0.2,0.2,0.2c0.1,0.1,0.3,0.2,0.4,0.2
				c0.2,0.1,0.4,0.1,0.6,0.1s0.3,0,0.4,0s0.8-0.2,1.1-0.3c0.3-0.1,0.6-0.3,0.9-0.6C121.4,41.8,121.4,41.5,121.3,41.3z M106.6,40.9
				c0,0.1-0.1,0.2-0.1,0.2c0,0.1-0.1,0.1-0.1,0.1c-0.1,0.1-0.2,0.2-0.3,0.3c-0.2,0.2-0.4,0.4-0.6,0.6c-0.2,0.1-0.5,0.2-0.7,0.2
				s-0.3,0-0.4-0.1s-0.1-0.2-0.1-0.3s0-0.2,0-0.3s0.1-0.2,0.1-0.4c0.1-0.2,0.1-0.3,0.2-0.4c0.1-0.1,0.1-0.2,0.2-0.2s0.1-0.1,0.2-0.2
				c0.1,0,0.2-0.1,0.2-0.2c0.1-0.1,0.2-0.1,0.3-0.2c0.1-0.1,0.2,0,0.2-0.1c0.1,0,0.1-0.1,0.1-0.1c0.2,0,0.3,0,0.4,0.1
				c0.1,0,0.2,0,0.2,0s0.1,0.1,0.1,0.2c0,0.1,0.1,0.2,0.1,0.3L106.6,40.9z M118.4,40C118.4,39.9,118.4,39.9,118.4,40
				c0-0.2,0.1-0.4,0.3-0.7c0.2-0.3,0.4-0.4,0.5-0.4h0.1V39c0,0.1,0,0.1-0.1,0.2c0,0.1-0.1,0.1-0.2,0.2c-0.1,0.1-0.1,0.1-0.2,0.2
				c-0.1,0.1-0.1,0.1-0.2,0.2c0,0-0.1,0.1-0.1,0.2C118.6,39.9,118.6,40,118.4,40L118.4,40z"/>
			<path style="fill:#CF111B;" d="M93,40.8c0-0.1,0.2-0.3,0.2-0.4c0.1-0.1,0.2-0.1,0.3-0.2c0.1-0.1,0.2-0.1,0.3-0.2
				c0.2-0.2,0.5-0.3,0.7-0.4c0.2-0.2,0.5-0.4,0.6-0.6c0.3-0.3,0.4-0.6,0.5-0.8s0.2-0.5,0.2-0.6c0-0.2,0.5-0.4,0.4-0.5
				s-0.2-0.2-0.4-0.2c-0.2,0-0.5,0-0.7,0.1s-1.2,0.3-1.4,0.6c-0.4,0.3-0.4,0.5-0.8,0.8c-0.2,0.2-0.4,0.6-0.5,0.7
				c-0.1,0.2-0.3,0.3-0.3,0.5c-0.1,0.1-0.1,0.2-0.2,0.3s-0.1,0.2-0.2,0.3s-0.2,0.7-0.3,0.8c-0.1,0.1-0.3,0.3-0.3,0.4
				c-0.1,0.1-0.2,0.1-0.2,0.1c-0.1,0-0.2,0.2-0.2,0.3c-0.1,0.1-0.1,0.2-0.4,0.2c-0.1,0-0.3-0.4-0.3-0.6c0-0.1-0.1-0.3-0.2-0.5
				c-0.1-0.3-0.2-0.5-0.3-0.8c-0.1-0.2-0.2-0.3-0.4-0.3c-0.1-0.1-0.3-0.1-0.5-0.1c-0.1,0-0.2,0-0.3,0.1c-0.1,0-0.3,0.1-0.4,0.2
				c-0.1,0.1-0.3,0.1-0.4,0.2c-0.1,0.1-0.2,0.1-0.3,0.2c-0.1,0-0.1,0.1-0.1,0.1L87,40.6c-0.1,0.1-0.2,0.1-0.3,0.2
				c-0.1,0.1-0.5,0.4-0.6,0.5s-0.2,0.2-0.2,0.2l-0.1,0.1c0,0-0.1,0-0.1,0.1l-0.1-0.1v-0.1c0,0,0-0.1,0.1-0.2c0-0.1,0.1-0.2,0.1-0.3
				c0.2-0.5,0.4-0.9,0.5-1.3c0.1-0.3,0.1-0.5,0.1-0.6c0-0.2,0-0.4-0.1-0.5s-0.3-0.2-0.5-0.2s-0.4,0-0.6,0.1s-0.4,0.2-0.5,0.4
				c-0.2,0.2-0.4,0.3-0.5,0.5c-0.1,0.1-0.2,0.3-0.3,0.4c0.1,0.2,0.1,0.4-0.1,0.5s-0.2,0.4-0.3,0.5c-0.1,0.1-0.3,0.3-0.4,0.4
				c-0.1,0.1-0.2,0.3-0.3,0.4c0,0.1-0.4,0.4-0.5,0.5s-0.5,0.4-0.6,0.5c-0.2,0.2-0.1,0.1-0.4,0.3c-0.2,0.2-0.3,0.3-0.5,0.4
				c-0.2,0-0.2-0.1-0.2-0.3c0-0.3,0.2-0.7,0.3-0.9c0.1-0.4,0.4-0.7,0.5-1c0.1-0.2,0.4-1.2,0.4-1.4s0-0.3-0.1-0.5
				c0-0.2-0.1-0.3-0.3-0.4c-0.1-0.1-0.3-0.1-0.5-0.1c-0.1,0-0.2,0-0.2,0.1c-0.1,0-0.1,0.1-0.2,0.2c-0.2,0.2-0.8,1.1-1.2,1.4
				c-0.4,0.3-0.7,0.2-0.8,0.1l-0.4-0.1c0,0-0.1-0.2-0.1-0.3c0-0.2-0.1-0.9-0.3-1.1c-0.2-0.2-0.5-0.4-1-0.5c-0.5-0.2-0.8-0.1-0.9-0.1
				s-0.1,0-0.3,0c-0.1,0-0.3,0-0.4,0.1c-0.1,0-0.2,0.1-0.3,0.1c-0.1,0.1-0.2,0.1-0.2,0.2c-0.1,0.1-0.2,0.1-0.3,0.2
				c-0.1,0.1-0.2,0.2-0.2,0.3c-0.1,0.1-0.3,0.4-0.4,0.5c-0.5,0.7-0.6,1.1-0.7,1.3s-0.1,0.4-0.2,0.6C73,41.8,73,42,73,42.2
				c0,0.3,0.1,0.5,0.3,0.7c0.2,0.2,0.6,0.3,0.9,0.3c0.1,0,0.1,0,0.2,0s0.1,0,0.2,0s0.2,0,0.4,0c0.1,0,0.3-0.1,0.4-0.1
				c0.3-0.1,0.4-0.2,0.7-0.3c0.2-0.1,0.4-0.3,0.6-0.4c0.2-0.2,0.5-0.4,0.7-0.6c0.2-0.2,0.4-0.4,0.5-0.7c0.1-0.2,0.2-0.7,0.3-0.7
				c0.1,0.1,0.5,0.2,0.5,0.2c0.2,0.2,0.4,0,0.5,0c0.2,0,0.5,0,0.6-0.1c0.2-0.1,0.4-0.2,0.5-0.3c0,0-0.4,1.1-0.4,1.4
				c-0.1,0.2-0.3,0.5-0.3,0.6c0,0.2-0.3,0.7-0.2,0.9c0,0.5,0.7,0.5,1.2,0.3c0.1,0,0.8-0.4,1-0.5s0.2-0.1,0.5-0.3
				c0.2-0.1,0.4-0.4,0.6-0.5s0.3-0.2,0.4-0.3l0,0c0,0,0,0,0.1-0.1c0,0,0.1,0,0.1-0.1c0.1-0.1,0.4-0.4,0.5-0.5c0,0,0.1-0.1,0.2-0.2
				c0.1-0.1,0.2-0.2,0.4-0.3c0.1-0.1,0.3-0.2,0.3-0.3c0.1-0.1,0.2-0.1,0.2-0.1c0.1,0,0.1,0,0.1,0s0,0,0,0.1v0.1c0,0,0,0.1-0.1,0.2
				c0,0.1-0.1,0.1-0.1,0.2v0.1c-0.1,0.4-0.3,0.8-0.4,1.1s-0.2,0.6-0.3,0.8c0,0.1,0,0.3,0.1,0.4c0,0.1,0.1,0.2,0.4,0.2
				c0.1,0,0.2,0,0.3,0s0.2-0.1,0.3-0.1c0.1-0.1,0.2-0.1,0.2-0.2c0.1-0.1,0.2-0.1,0.2-0.2c0.3-0.3,0.5-0.5,0.7-0.7s0.6-0.5,0.7-0.5
				c0.2-0.1,0.3-0.2,0.6-0.4c0.1-0.1,0.2-0.2,0.3-0.2C88,41,88.3,41,88.4,41h0.1c0.1,0.1,0.2,0.3,0.3,0.4c0.1,0.1,0.1,0.2,0.2,0.3
				c0.1,0.2,0.1,0.3,0.1,0.4c0.1,0.1,0.1,0.2,0.2,0.2c0.1,0.1,0.2,0.2,0.3,0.2c0.1,0,0.3,0.1,0.4,0.1s0.2,0,0.4-0.1
				c0.1,0,0.2-0.1,0.4-0.2c0.1-0.1,0.2-0.1,0.3-0.2c0.1-0.1,0.6-0.4,0.7-0.5c0,0.1,0.1,0.1,0.1,0.1c0,0.2,0.1,0.4,0.1,0.6
				c0.1,0.3,0,0.3,0.1,0.6s0.2,0.3,0.4,0.6c0,0.1-0.1,0.3-0.2,0.4s-0.1,0.2-0.3,0.3c-0.1,0.1-0.3,0.3-0.5,0.5
				c-0.1,0.1-0.2,0.2-0.2,0.3c-0.1,0.1-0.2,0.2-0.3,0.3c-0.1,0.1-0.2,0.2-0.2,0.3c-0.1,0.1-0.1,0.2-0.2,0.3s-0.1,0.3-0.2,0.3
				c0,0.1,0,0.1,0,0.2c0,0.3-0.1,0.5,0,0.6c0,0.2,0.1,0.4,0.1,0.5c0.1,0.1,0.6,0.4,0.8,0.4c0.2,0.1,0.7,0.1,1,0
				c0.7-0.1,0.7-0.3,1.4-0.9c0.8-0.6,1.2-1.1,1.2-1.7c0-0.1,0-0.1,0-0.2c0-0.1,0-0.1,0-0.1c-0.1-0.3-0.1-0.6-0.3-0.9
				c-0.1-0.2-0.2-0.4-0.4-0.6c-0.1-0.1-0.2-0.1-0.2-0.2c-0.1-0.1-0.1-0.1-0.1-0.2c0.2-0.2,0.4-0.5,0.6-0.7s0.3-0.4,0.4-0.5
				s0.2-0.2,0.2-0.2s0.2-0.2,0.2-0.4c0-0.1,0-0.2-0.1-0.2C95.1,41,95.1,41,95,41c-0.2,0-0.3,0-0.3,0c-0.4,0.4-0.8,0.7-1,1
				c-0.3,0.2-0.3,0.2-0.4,0.3s-0.2,0.1-0.3,0c-0.1,0-0.1-0.1-0.1-0.1c-0.2-0.2-0.1-0.2-0.2-0.4s0-0.5,0-0.7C93,41.2,93,41.1,93,40.8
				z M93.6,39.1l0.1-0.3l0.3-0.4l0.6-0.4h0.1h0.1v0.2l-0.2,0.1l-0.1,0.1l-0.2,0.3L94,38.9l-0.3,0.3l-0.2,0.2l-0.1,0.1v-0.1
				L93.6,39.1z M76.7,40.9c0,0.1-0.1,0.2-0.1,0.2c0,0.1-0.1,0.1-0.1,0.1c-0.1,0.1-0.2,0.2-0.3,0.3c-0.2,0.2-0.4,0.4-0.6,0.6
				c-0.2,0.1-0.5,0.2-0.7,0.2s-0.3,0-0.4-0.1s-0.1-0.2-0.1-0.3s0-0.2,0-0.3s0.1-0.2,0.1-0.4c0.1-0.2,0.1-0.3,0.2-0.4
				c0.1-0.1,0.1-0.2,0.1-0.2c0.1-0.1,0.1-0.1,0.2-0.2c0.1,0,0.2-0.1,0.2-0.2c0.1-0.1,0.2-0.1,0.3-0.2c0.1-0.1,0.2,0,0.2-0.1
				c0.1,0,0.1-0.1,0.1-0.1c0.2,0,0.3,0,0.4,0.1c0.1,0,0.2,0,0.2,0s0.1,0.1,0.1,0.2c0,0.1,0.1,0.2,0.1,0.3L76.7,40.9z M93,44.3
				c0.1,0,0.1,0,0.2,0.1s0.1,0.2,0.2,0.3s0.1,0.2,0.1,0.3s0.1,0.2,0.1,0.3c0,0.4-0.2,0.8-0.7,1.2s-0.9,0.6-1.4,0.6
				c-0.1,0-0.2,0-0.3-0.1c-0.1,0-0.1-0.1-0.1-0.2c0-0.1,0-0.2,0.1-0.4s0.2-0.3,0.2-0.4c0.1-0.2,0.3-0.3,0.4-0.5s0.2-0.3,0.4-0.5
				c0.2-0.3,0.4-0.5,0.5-0.6C92.9,44.4,92.9,44.3,93,44.3z"/>
		</g>
	</g>
</g>
</svg>
