<?xml version="1.0" encoding="utf-8"?>
<!-- Generator: Adobe Illustrator 22.1.0, SVG Export Plug-In . SVG Version: 6.00 Build 0)  -->
<svg version="1.1" id="图层_1" xmlns="http://www.w3.org/2000/svg" xmlns:xlink="http://www.w3.org/1999/xlink" x="0px" y="0px"
	 viewBox="0 0 150 50" style="enable-background:new 0 0 150 50;" xml:space="preserve">
<style type="text/css">
	.st0{fill:#CF111B;}
	.st1{fill:#231815;}
</style>
<g>
	<g>
		<path class="st0" d="M37.1,15.3h11C45.2,8.5,39.4,3.2,32.3,1.1v9.4C32.3,13.2,34.4,15.3,37.1,15.3z"/>
		<path class="st0" d="M50.9,22.6L50.9,22.6L50.9,22.6H34.7c-1.3,0-2.4,1.1-2.4,2.4v0.8c0,1.3,1.1,2.4,2.4,2.4h4.8
			c0.9,0,1.6,0.7,1.6,1.6l0,0c0,2.7-2.2,4.8-4.8,4.8h-4h-4.8h-4.8c-2.7,0-4.8-2.2-4.8-4.8v-8.1v-1.6c0-2.7,2.2-4.8,4.8-4.8
			s4.8-2.2,4.8-4.8V0.1C26.6,0,25.8,0,25,0C11.2,0,0,11.2,0,25c0,13.5,10.8,24.6,24.2,25c12.1,0,22.1-8.9,23.9-20.4l0,0
			c0.1-0.8,0.8-1.4,1.6-1.4h0.1l0,0h1l0,0h0.1c1.3,0,2.4-1.1,2.4-2.4V25C53.3,23.7,52.3,22.6,50.9,22.6z"/>
	</g>
	<g>
		<path class="st1" d="M83.4,10.3V7.8H70.3v2.5h3.3V13h-3.3v2.5h3.3v6.6h-3.3v2.5H81c2,0,2.4-0.5,2.4-2.5V18h-3.2v3.3
			c0,0.7,0.1,0.8-0.7,0.8h-1.2v-6.6h5V13h-5v-2.7H83.4z"/>
		<path class="st1" d="M129,22.9v-15h-5v20.4h23.8c1.3,0,2.2-0.8,2.2-2.2h-23.6C128.1,25.8,129,24.8,129,22.9z"/>
		<polygon class="st1" points="116.8,18.7 117.3,28.3 120.6,28.3 120.2,18.7 		"/>
		<polygon class="st1" points="106.7,28.3 109.9,28.3 110.3,18.7 107.2,18.7 		"/>
		<path class="st1" d="M111.8,13.2L111.8,13.2v0.5h3.1v-2.6h2.2v2.6c0,1.2-0.3,1.6-1.1,1.6h-5.6V7.8l0,0l0,0l1.2-2.1H108l-1.3,2.1
			v10h4.9v10.5h1.6c1.9,0,2.4-0.6,2.4-2.4v-8.2h3c1.6,0,2-0.6,2-2.5V7.9h-8.8C111.8,7.9,111.8,13.2,111.8,13.2z"/>
		<rect x="93.9" y="7.9" class="st1" width="5" height="2.5"/>
		<path class="st1" d="M85.1,24.8c0.1,1-0.4,1.4-1.3,1.3H68.6V5.8h30.2V3.3H63.3v25h24.9c1.6,0.1,2.3-0.7,2.2-2.2V7.8h-5.3
			C85.1,7.8,85.1,24.8,85.1,24.8z"/>
		<path class="st1" d="M100.6,3.3v22.8h-1.7v-14h-5v16.2h9.2l0,0l0,0c1.8,0,2.2-0.7,2.2-2.2V5.8h23.6V3.3H100.6z"/>
		<path class="st1" d="M150,5.8V3.3l0,0h-19.2l0,0v2.5h12l-4.1,2.1h-8v16.8h4.4v-4.4h2.8v4.4h5.3v-4.4h2.4v4.4h2.4
			c1.4,0,2-0.5,2-2.5V7.9h-4.1L150,5.8L150,5.8z M138,17.7h-2.8V15h2.8V17.7z M138,12.6h-2.8v-1.8h2.8V12.6z M145.6,17.7h-2.4V15
			h2.4V17.7z M145.6,12.6h-2.4v-1.8h2.4V12.6z"/>
	</g>
	<g>
		<path class="st0" d="M93.1,37.2c0.1,0,0.2,0,0.3,0c0.1,0,0.2,0,0.3,0c0,0,0.1,0,0.2,0s0.2-0.1,0.4-0.2c0.1-0.1,0.3-0.1,0.4-0.2
			c0.1-0.1,0.2-0.2,0.2-0.3s0.1-0.1,0.1-0.3c0.1-0.1,0.1-0.3,0.2-0.5c0-0.1,0.1-0.2,0.1-0.4c0-0.1,0-0.2-0.1-0.2
			c0-0.1-0.2-0.1-0.3-0.1s-0.3,0-0.4,0s-0.2,0.1-0.3,0.1c-0.2,0.1-0.3,0.3-0.4,0.4c-0.2,0-0.4,0.1-0.7,0.4c-0.2,0.2-0.4,0.4-0.4,0.6
			c0,0.2,0,0.3,0.1,0.4C92.9,37.1,93,37.1,93.1,37.2z"/>
		<g>
			<path class="st0" d="M83,33.8c-0.1-0.2-0.2-0.4-0.2-0.5s-0.2-0.2-0.4-0.4c-0.2-0.2-0.3-0.3-0.4-0.4c-0.1-0.1-0.2-0.2-0.2-0.2
				c-0.2,0-0.3-0.1-0.5-0.1s-0.3-0.1-0.5-0.1h-0.1L80.4,32l-0.9,0.1c-0.2,0.1-0.4,0.1-0.5,0.2c-0.1,0.1-0.3,0.1-0.4,0.1
				c-0.2,0.1-0.4,0.2-0.6,0.3s-0.3,0.2-0.5,0.3c0,0-0.2,0.1-0.3,0.3c-0.2,0.1-0.4,0.3-0.7,0.5c-0.8,0.6-1.4,1.3-1.9,2.1
				s-0.8,1.7-1,2.7l-0.2,1.2c0,0.2,0,0.3,0,0.5s-0.1,0.3-0.1,0.4c0.1,0.3,0.2,0.5,0.2,0.7c0.1,0.2,0.1,0.3,0.2,0.4
				c0.1,0.2,0.2,0.4,0.4,0.5c0.1,0.2,0.3,0.3,0.5,0.4c0.2,0.1,0.4,0.2,0.5,0.3c0.2,0.1,0.3,0.1,0.5,0.1c0.1,0,0.2,0,0.3,0l0.4,0.1
				c0.3,0,0.6-0.1,0.9-0.2c0.3-0.1,0.6-0.2,0.8-0.3c0.1-0.1,0.3-0.2,0.5-0.3c0.2-0.2,0.5-0.3,0.9-0.6c0.2-0.1,0.4-0.2,0.6-0.4h0.1
				c0,0,0,0,0,0.1s0,0.2-0.1,0.2l0.1,0.5c-0.1,0.3-0.2,0.6-0.2,0.9c-0.1,0.2-0.1,0.4-0.1,0.5c0,0.2,0,0.4,0,0.5s0,0.3-0.1,0.3
				c-0.1,0.2-0.1,0.3-0.1,0.4c0,0.1,0,0.2,0,0.3s0,0.3,0.1,0.3c0.1,0.1,0.1,0.1,0.2,0.1s0.2,0,0.3-0.1c0.1-0.1,0.1-0.2,0.1-0.3
				c0.2,0,0.3-0.1,0.4-0.1s0.2-0.1,0.2-0.1c0.1,0,0.1-0.1,0.2-0.2c0-0.1,0.1-0.2,0.1-0.3c0-0.2,0.1-0.3,0.1-0.4
				c0-0.1,0.1-0.2,0.1-0.3c0.1-0.2,0.2-0.5,0.3-0.9c0.1-0.4,0.2-0.7,0.3-0.9c0.1-0.1,0.2-0.3,0.2-0.5c0.1-0.2,0.1-0.4,0.1-0.6
				c0-0.2,0.1-0.4,0.1-0.5s0-0.3,0.1-0.4c0-0.1,0-0.2,0.1-0.3c0-0.1,0.1-0.2,0.1-0.3c0-0.2-0.1-0.3-0.2-0.4
				c-0.1-0.1-0.3-0.1-0.6-0.1c-0.2,0-0.4,0-0.6,0.1s-0.3,0.2-0.5,0.3c-0.1,0.1-0.2,0.3-0.3,0.4c-0.1,0.1-0.2,0.3-0.4,0.4
				c-0.1,0.1-0.2,0.2-0.3,0.3c-0.1,0.1-0.2,0.1-0.2,0.2c-0.3,0.3-0.6,0.5-0.7,0.6c-0.2,0.2-0.3,0.3-0.4,0.3
				c-0.2,0.1-0.4,0.2-0.7,0.3c-0.2,0.1-0.5,0.1-0.8,0.1c-0.2,0-0.4,0-0.5-0.1c-0.2,0-0.3-0.1-0.4-0.2c-0.1-0.1-0.1-0.1-0.2-0.3
				c-0.1-0.1-0.2-0.3-0.2-0.4c-0.1-0.2-0.2-0.5-0.2-0.7c-0.1-0.2-0.1-0.5-0.1-0.7c0-0.1,0-0.3,0.1-0.7c0-0.3,0.1-0.8,0.2-1.4
				c0.1-0.2,0.1-0.3,0.2-0.5c0.1-0.1,0.1-0.3,0.2-0.4c0-0.1,0.1-0.2,0.1-0.2c0-0.1,0-0.1,0.1-0.1c0.1-0.1,0.2-0.2,0.2-0.3
				c0.1-0.1,0.1-0.2,0.2-0.4s0.3-0.3,0.4-0.4c0.1-0.1,0.2-0.2,0.2-0.3c0.1-0.1,0.1-0.1,0.2-0.2l0.1-0.1c0.2-0.2,0.4-0.4,0.6-0.5
				s0.3-0.2,0.4-0.3c0.2-0.1,0.4-0.2,0.6-0.3s0.4-0.1,0.7-0.1c0.5,0,0.8,0.1,1.2,0.4c0.3,0.3,0.6,0.7,0.8,1.3c0,0.2,0.1,0.3,0.1,0.6
				c0,0.1,0,0.2,0.1,0.3s0.2,0.1,0.3,0.1c0.2,0,0.5-0.1,0.9-0.4c0.4-0.3,0.5-0.5,0.5-0.7c0-0.1-0.1-0.3-0.2-0.5
				C83.2,34,83.1,33.9,83,33.8z"/>
			<path class="st0" d="M116.7,33.2c0.1,0,0.2,0,0.3,0c0.2,0,0.4,0,0.6-0.1c0.3,0.1,0.5,0.1,0.8,0.2c0.3,0,0.5,0.1,0.8,0.1
				c0.1,0,0.1,0,0.1,0l0.1-0.1c0,0,0-0.1,0-0.2c0-0.1,0-0.2,0-0.2c0-0.1,0-0.2,0-0.3s0-0.2,0-0.3s-0.1-0.2-0.1-0.3
				c-0.1-0.1-0.1-0.1-0.2-0.1s-0.2,0.1-0.2,0.1c-0.1,0-0.2-0.1-0.3-0.1c-0.1,0-0.1-0.1-0.2-0.1l-0.3,0.1c-0.1,0-0.2,0-0.3-0.1
				c-0.1,0-0.2,0-0.3,0c-0.1,0-0.2,0-0.4,0c-0.1,0-0.3,0-0.3,0c-0.4,0-0.8,0-1.1,0c-0.3,0-0.6,0.1-0.9,0.1c-0.2,0-0.5,0-0.8,0
				s-0.6,0.1-0.9,0.2c-0.2,0-0.3,0.1-0.4,0.2c-0.1,0.1-0.2,0.2-0.2,0.3s-0.1,0.2-0.1,0.3s0,0.3-0.1,0.5c-0.1,0.1-0.1,0.2-0.2,0.3
				c0,0.1-0.1,0.1-0.1,0.2c0,0.1,0,0.1,0.1,0.1l0.1,0.1c0.7-0.2,1.4-0.3,2.1-0.5c0.1,0,0.2,0,0.3-0.1c0.1,0,0.2,0,0.3,0l0.1-0.1
				c0.1,0,0.2,0,0.3,0c0.1,0,0.1,0,0.1,0l0.1,0.1c0,0.1,0,0.2,0,0.3s0,0.2,0,0.2c-0.1,0.3-0.1,0.6-0.2,0.8c0,0.2-0.1,0.3-0.1,0.4
				c0,0.1,0.1,0.1,0.1,0.2c0,0,0,0.1-0.1,0.2c0,0.1-0.1,0.2-0.2,0.3V36v0.1c0,0.1,0,0.2,0,0.3s0,0.2-0.1,0.3c0,0.1,0,0.3-0.1,0.4
				c0,0.1,0,0.2,0,0.2c0,0.1,0,0.3,0,0.6c0,0.2-0.1,0.5-0.1,0.8s-0.1,0.6-0.1,0.8s0,0.4,0,0.6c0,0.3,0,0.6,0,1
				c0.1,0.4,0.1,0.9,0.1,1.3c0,0.1,0.1,0.1,0.1,0.2v0.1c0,0.2-0.1,0.3-0.1,0.5c0,0.1,0,0.1,0.1,0.1s0.2,0,0.3,0h0.1
				c0,0,0.1-0.1,0.2-0.1s0.2-0.1,0.3-0.1l0.1-0.1c0,0,0-0.1,0.1-0.2c0-0.1-0.1-0.2-0.1-0.3s0-0.3,0-0.5s0-0.4,0-0.5s0-0.1,0-0.3
				c0-0.1,0-0.2,0-0.3c0,0,0-0.1,0-0.2c0-0.1,0-0.1,0-0.2c0-0.1,0.1-0.2,0.1-0.2c0-0.2,0.1-0.4,0.1-0.7c0-0.2,0.1-0.5,0.1-0.7
				s0.1-0.3,0.1-0.5c0-0.1,0-0.2,0-0.3s0.1-0.2,0.1-0.3s0.1-0.2,0.1-0.2c0-0.1,0.1-0.2,0.1-0.3s0-0.2,0-0.2c0-0.2,0.1-0.3,0.1-0.4
				c0-0.1,0.1-0.2,0.1-0.3s0-0.2,0-0.3s0-0.1,0-0.2c0-0.1,0-0.2,0.1-0.3c0-0.1,0.1-0.3,0.1-0.5c0-0.1,0.1-0.2,0.1-0.4s0-0.3,0-0.4
				c0,0,0-0.1,0-0.2c0-0.1,0-0.1-0.1-0.2c-0.1-0.2-0.1-0.3-0.2-0.4c-0.1-0.1-0.1-0.1-0.2-0.2c-0.1,0-0.1-0.1-0.2-0.1
				C116.6,33.4,116.6,33.3,116.7,33.2C116.6,33.3,116.6,33.2,116.7,33.2z"/>
			<path class="st0" d="M140,40.9c-0.1-0.1-0.2-0.3-0.5-0.1c-0.1,0-0.1,0.1-0.2,0.1c-0.1,0-0.1,0.1-0.2,0.1
				c-0.2,0.1-0.4,0.1-0.6,0.2c-0.2,0.1-0.5,0.1-0.7,0.1s-0.3-0.1-0.4-0.1c-0.1,0-0.2-0.1-0.3-0.1s-0.2-0.1-0.2-0.2
				c-0.1-0.1-0.1-0.2-0.1-0.3s0-0.1,0.1-0.2c0-0.1,0.1-0.1,0.1-0.1c0.6-0.4,1-0.8,1.3-1.2c0.3-0.3,0.5-0.6,0.6-0.9L139,38
				c0-0.1,0.1-0.2,0.1-0.3c0-0.2,0-0.3,0-0.4c0-0.1-0.1-0.2-0.1-0.3s-0.1-0.2-0.1-0.2c-0.1-0.1-0.2-0.1-0.3-0.1s-0.2,0-0.4,0
				c-0.1,0-0.2,0-0.3,0s-0.2,0-0.3,0.1s-0.2,0.1-0.3,0.1s-0.2,0.1-0.2,0.1c-0.2,0.2-0.3,0.3-0.5,0.4c-0.2,0.1-0.3,0.3-0.4,0.4
				c-0.2,0.2-0.3,0.4-0.4,0.6c-0.1,0.2-0.2,0.3-0.2,0.4c-0.1,0.1-0.1,0.2-0.1,0.3s-0.1,0.2-0.1,0.3s0,0.2,0,0.3s-0.1,0.4-0.1,0.5
				c-0.2,0.2-0.3,0.4-0.4,0.6c-0.1,0.1-0.2,0.3-0.3,0.4c0,0-0.2,0.2-0.2,0.3c-0.1,0.1-0.2,0.4-0.5,0.3c-0.4-0.1-0.3-0.5-0.3-0.7
				c0-0.1-0.1-0.6-0.2-0.7c-0.1-0.3-0.1-0.6-0.2-0.9c-0.1-0.2-0.2-0.3-0.3-0.4c-0.2-0.1-0.3-0.1-0.6-0.1c-0.1,0-0.2,0-0.4,0.1
				c-0.1,0-0.3,0.1-0.5,0.2c-0.2,0.1-0.3,0.2-0.4,0.2c-0.1,0.1-0.2,0.1-0.3,0.2c-0.1,0.1-0.1,0.1-0.2,0.2l-0.1,0.1
				c-0.1,0.1-0.2,0.2-0.3,0.2c-0.1,0.1-0.2,0.2-0.2,0.3c-0.2,0.1-0.3,0.2-0.4,0.3c-0.1,0.1-0.2,0.2-0.2,0.3l-0.1,0.1
				c0,0-0.1,0-0.1,0.1l-0.1-0.1v-0.1c0-0.1,0-0.1,0.1-0.2c0.1-0.1,0.1-0.2,0.2-0.3c0.2-0.6,0.4-1,0.5-1.4s0.2-0.6,0.2-0.7
				c0-0.2-0.1-0.4-0.2-0.5c-0.1-0.1-0.3-0.2-0.5-0.2s-0.5,0-0.7,0.1s-0.4,0.2-0.6,0.4c-0.2,0.2-0.3,0.8-0.5,1s-0.3,0.2-0.5,0.4
				c-0.3,0.2-0.3,0.2-0.6,0.4c-0.2,0.1-0.7,0.3-0.7,0.4c-0.1,0-0.7,0.2-0.8,0.2c-0.3,0,0-0.9,0.1-1.1c0-0.5-0.1-0.9-0.4-1.1
				c-1-0.9-2.1-0.7-2.2-0.7s-0.2,0-0.3,0c-0.1,0-0.3,0-0.4,0.1c-0.1,0-0.2,0-0.3,0.1c-0.1,0.1-0.2,0.2-0.3,0.2
				c-0.1,0.1-0.2,0.2-0.3,0.2c-0.1,0.1-0.2,0.1-0.3,0.2c-0.1,0.1-0.2,0.1-0.3,0.2c-0.1,0.1-0.4,0.4-0.4,0.5c-0.9,1.3-0.8,1.8-0.9,2
				s-0.1,0.5-0.1,0.6c0,0.3,0.2,0.6,0.5,0.9c0.3,0.3,0.7,0.4,1,0.4c0.1,0,0.1,0,0.2,0s0.2,0,0.2,0c0.1,0,0.2,0,0.4-0.1
				c0.1,0,0.3-0.1,0.5-0.1c0.3-0.1,0.6-0.2,0.8-0.4c0.1-0.1,0.6-0.4,1.1-0.9c0.3-0.3,0.6-0.5,0.8-0.8c0.1-0.2,0.2-0.2,0.2-0.4
				c0.1,0.1,0.1,0.1,0.2,0.2c0.1,0.1,0.4,0,0.6,0c0.1,0,0.3-0.1,0.5-0.1c0.1,0,0.3,0,0.5-0.1c0.1-0.1,0.4,0,0.6-0.2
				c0.2-0.1,0.2,0,0.3-0.1c0.1-0.1,0.2,0,0.3,0c0.1,0,0.1,0,0.2,0l0.1,0.1v0.1c0,0.1,0,0.1-0.1,0.2c0,0.1-0.1,0.1-0.1,0.2v0.1
				c-0.2,0.5-0.3,0.8-0.4,1.2c-0.1,0.3-0.2,0.6-0.3,0.8c0,0.2,0,0.3,0.1,0.4c0,0.1,0.2,0.2,0.4,0.2c0.1,0,0.3,0,0.4,0
				s0.2-0.1,0.3-0.1c0.1-0.1,0.2-0.1,0.3-0.2c0.1-0.1,0.2-0.1,0.3-0.2c0.3-0.3,0.6-0.5,0.9-0.7c0.2-0.2,0.4-0.4,0.5-0.5
				c0-0.1,0.1-0.1,0.3-0.2c0.1-0.1,0.4-0.2,0.7-0.4c0.1-0.1,0.3-0.2,0.4-0.3c0.1-0.1,0.3-0.1,0.4-0.1h0.1c0.1,0.2,0.3,0.3,0.4,0.4
				c0.1,0.1,0.2,0.2,0.3,0.3c0.1,0.2,0.2,0.3,0.3,0.4c0.1,0.1,0.1,0.2,0.2,0.2c0.1,0.1,0.1,0.2,0.2,0.3c0.1,0.1,0.3,0.1,0.4,0.1
				c0.1,0,0.4,0,0.6-0.1c0.1,0,0.3-0.1,0.4-0.2c0.1-0.1,0.3-0.2,0.4-0.3c0.1-0.1,0.4-0.4,0.5-0.5c0.1,0,0.1-0.1,0.2-0.1
				c0.1,0,0.1,0,0.2,0.1c0.1,0.1,0.1,0.1,0.2,0.3c0.1,0.1,0.1,0.3,0.2,0.4c0.1,0.1,0.1,0.2,0.2,0.2c0.1,0.1,0.3,0.2,0.5,0.3
				s0.4,0.1,0.7,0.1c0.2,0,0.4,0,0.5,0s0.9-0.2,1.2-0.3c0.3-0.2,0.7-0.4,1.1-0.7C140,41.4,140,41.1,140,40.9z M123,40.5
				c0,0.1-0.1,0.2-0.1,0.3s-0.1,0.1-0.1,0.2c-0.1,0.1-0.2,0.2-0.3,0.3c-0.2,0.3-0.5,0.5-0.7,0.6c-0.3,0.1-0.5,0.2-0.9,0.2
				c-0.2,0-0.3,0-0.4-0.1s-0.1-0.2-0.1-0.3s0-0.2,0.1-0.3c0-0.1,0.1-0.3,0.2-0.4c0.1-0.2,0.1-0.3,0.2-0.4c0.1-0.1,0.1-0.2,0.2-0.2
				s0.1-0.2,0.2-0.2s0.2-0.1,0.3-0.2c0.1-0.1,0.2-0.1,0.3-0.3c0.1-0.1,0.2,0,0.2-0.1c0.1-0.1,0.1-0.1,0.1-0.1c0.2,0,0.4,0,0.5,0.1
				c0.1,0,0.2,0,0.2,0.1c0.1,0,0.1,0.1,0.2,0.2c0.1,0.1,0.1,0.2,0.2,0.4L123,40.5z M136.6,39.4L136.6,39.4c0-0.2,0.1-0.4,0.4-0.8
				c0.3-0.3,0.5-0.5,0.6-0.5h0.1v0.1c0,0.1,0,0.2-0.1,0.2c0,0.1-0.1,0.2-0.2,0.2c-0.1,0.1-0.1,0.1-0.2,0.2c-0.1,0.1-0.1,0.1-0.2,0.2
				c0,0.1-0.1,0.1-0.1,0.2c0,0.1-0.1,0.1-0.2,0.1C136.7,39.4,136.6,39.4,136.6,39.4z"/>
			<path class="st0" d="M107.3,40.4c0-0.1,0.2-0.3,0.3-0.4c0.1-0.1,0.2-0.1,0.3-0.2c0.1-0.1,0.3-0.1,0.4-0.2
				c0.2-0.2,0.5-0.3,0.8-0.5c0.2-0.2,0.5-0.4,0.7-0.6c0.3-0.3,0.4-0.7,0.6-0.9s0.2-0.5,0.2-0.6c0-0.3,0.6-0.5,0.5-0.6
				s-0.2-0.2-0.4-0.2c-0.3,0-0.5-0.1-0.8,0.1c-0.2,0.1-1.4,0.4-1.6,0.6c-0.4,0.4-0.5,0.5-0.9,0.9c-0.2,0.3-0.5,0.6-0.6,0.8
				s-0.3,0.4-0.4,0.5c-0.1,0.2-0.1,0.3-0.2,0.4c-0.1,0.1-0.1,0.2-0.2,0.3c-0.1,0.2-0.2,0.7-0.4,0.8c-0.1,0.1-0.3,0.3-0.4,0.4
				c-0.1,0.1-0.2,0.1-0.2,0.1c-0.1,0.1-0.2,0.2-0.2,0.3c-0.1,0.1-0.2,0.3-0.4,0.3c-0.1,0-0.3-0.5-0.3-0.7c0-0.1-0.1-0.3-0.2-0.5
				c-0.1-0.3-0.3-0.6-0.4-0.9c-0.1-0.2-0.3-0.3-0.4-0.4c-0.2-0.1-0.3-0.1-0.6-0.1c-0.1,0-0.2,0-0.4,0.1c-0.1,0-0.3,0.1-0.5,0.2
				c-0.2,0.1-0.3,0.2-0.4,0.2c-0.1,0.1-0.2,0.1-0.3,0.2c-0.1,0.1-0.1,0.1-0.2,0.2l-0.1,0.1c-0.1,0.1-0.2,0.2-0.3,0.2
				c-0.1,0.1-0.5,0.5-0.6,0.6s-0.2,0.2-0.2,0.3l-0.1,0.1c0,0-0.1,0-0.1,0.1l-0.1-0.1v-0.1c0-0.1,0-0.1,0.1-0.2
				c0.1-0.1,0.1-0.2,0.2-0.3c0.2-0.6,0.4-1,0.5-1.4s0.2-0.6,0.2-0.7c0-0.2-0.1-0.4-0.2-0.5s-0.3-0.2-0.5-0.2s-0.5,0-0.7,0.1
				s-0.4,0.2-0.6,0.4s-0.4,0.4-0.6,0.5s-0.3,0.4-0.4,0.4c-0.3,0.3-0.4,0.5-0.5,0.6c-0.2,0.2-0.3,0.4-0.4,0.5s-0.3,0.4-0.4,0.4
				c-0.1,0.1-0.3,0.3-0.3,0.4c0,0.1-0.5,0.5-0.6,0.6s-0.5,0.4-0.6,0.5c-0.2,0.2-0.2,0.1-0.4,0.3c-0.2,0.2-0.4,0.4-0.6,0.4
				c-0.2,0.1-0.2-0.1-0.2-0.3c0-0.3,0.3-0.8,0.3-1c0.1-0.5,0.4-0.8,0.6-1.1c0.1-0.2,0.5-1.3,0.5-1.5s0-0.4-0.1-0.5
				c-0.1-0.2-0.2-0.3-0.3-0.4c-0.2-0.1-0.4-0.1-0.6-0.1c-0.1,0-0.2,0-0.3,0.1c-0.1,0-0.2,0.1-0.2,0.2c-0.2,0.2-1,1.3-1.4,1.6
				c-0.5,0.3-0.8,0.2-0.9,0.1c0,0-0.4-0.1-0.5-0.1c0,0-0.1-0.2-0.1-0.3c0-0.3-0.1-1-0.3-1.2c-0.2-0.2-0.6-0.4-1.1-0.6
				c-0.5-0.2-0.9-0.1-1-0.1s-0.2,0-0.3,0c-0.1,0-0.3,0-0.4,0.1c-0.1,0-0.2,0.1-0.3,0.1c-0.1,0.1-0.2,0.1-0.3,0.2
				c-0.1,0.1-0.2,0.2-0.3,0.2c-0.1,0.1-0.2,0.2-0.3,0.3c-0.1,0.1-0.4,0.4-0.4,0.5c-0.5,0.8-0.7,1.2-0.8,1.4
				c-0.1,0.2-0.1,0.4-0.2,0.6c-0.1,0.2-0.1,0.4-0.1,0.7s0.1,0.5,0.4,0.8s0.7,0.4,1,0.4c0.1,0,0.1,0,0.2,0s0.1,0,0.2,0s0.3,0,0.4,0
				s0.3-0.1,0.5-0.2c0.3-0.1,0.5-0.2,0.8-0.3c0.2-0.1,0.5-0.3,0.7-0.5c0.3-0.2,0.6-0.4,0.8-0.7c0.2-0.3,0.4-0.5,0.5-0.8
				c0.1-0.2,0.3-0.8,0.3-0.7c0.1,0.1,0.5,0.2,0.6,0.2c0.2,0.2,0.4,0.1,0.5,0c0.2,0,0.5-0.1,0.7-0.1c0.2-0.1,0.5-0.2,0.6-0.4
				c0,0-0.5,1.3-0.5,1.5c-0.1,0.2-0.3,0.6-0.3,0.7c0,0.2-0.3,0.8-0.3,1c0,0.6,0.8,0.6,1.4,0.3c0.1,0,0.9-0.5,1.1-0.5
				c0.2-0.1,0.3-0.2,0.5-0.3c0.3-0.1,0.5-0.4,0.7-0.5s0.4-0.2,0.5-0.3l0,0c0,0,0.1,0,0.1-0.1c0,0,0.1,0,0.1-0.1
				c0.1-0.1,0.5-0.4,0.5-0.5c0,0,0.1-0.1,0.2-0.2c0.1-0.1,0.3-0.2,0.5-0.4c0.2-0.1,0.3-0.2,0.4-0.3s0.2-0.1,0.3-0.1
				c0.1,0,0.1,0,0.2,0l0.1,0.1V40c0,0.1,0,0.1-0.1,0.2c0,0.1-0.1,0.1-0.1,0.2v0.1c-0.2,0.5-0.3,0.8-0.4,1.2
				c-0.1,0.3-0.2,0.6-0.3,0.8c0,0.2,0,0.3,0.1,0.4c0,0.1,0.2,0.2,0.4,0.2c0.1,0,0.3,0,0.4,0s0.2-0.1,0.3-0.1
				c0.1-0.1,0.2-0.1,0.3-0.2c0.1-0.1,0.2-0.1,0.3-0.2c0.3-0.3,0.6-0.5,0.9-0.7c0.2-0.2,0.6-0.5,0.8-0.6c0.2-0.1,0.3-0.3,0.7-0.5
				c0.1-0.1,0.3-0.2,0.4-0.3s0.5-0.1,0.6-0.1h0.1c0.1,0.2,0.3,0.3,0.4,0.4c0.1,0.1,0.1,0.2,0.2,0.3c0.1,0.2,0.1,0.3,0.2,0.4
				c0.1,0.1,0.1,0.2,0.2,0.2c0.1,0.1,0.2,0.2,0.4,0.2c0.1,0.1,0.3,0.1,0.4,0.1s0.3,0,0.4-0.1c0.1,0,0.3-0.1,0.4-0.2
				c0.1-0.1,0.2-0.2,0.4-0.2c0.1-0.1,0.6-0.5,0.8-0.6c0,0.1,0.1,0.1,0.1,0.2c0,0.3,0.1,0.4,0.1,0.7c0.1,0.3,0,0.4,0.1,0.7
				s0.2,0.4,0.4,0.7c0,0.1-0.1,0.3-0.2,0.4c-0.1,0.1-0.2,0.2-0.3,0.3c-0.2,0.1-0.4,0.3-0.6,0.5c-0.1,0.1-0.2,0.2-0.3,0.3
				c-0.1,0.1-0.2,0.2-0.3,0.3c-0.1,0.1-0.2,0.3-0.3,0.4c-0.1,0.1-0.2,0.2-0.2,0.3c-0.1,0.2-0.2,0.3-0.2,0.4c0,0.1-0.1,0.2-0.1,0.2
				c0,0.3-0.1,0.5,0,0.7c0,0.2,0.1,0.4,0.2,0.5s0.7,0.4,0.9,0.5c0.2,0.1,0.9,0.1,1.2,0c0.8-0.2,0.8-0.4,1.7-1
				c0.9-0.6,1.4-1.2,1.4-1.9c0-0.1,0-0.1,0-0.2c0-0.1,0-0.1,0-0.1c-0.1-0.4-0.2-0.7-0.3-0.9c-0.1-0.3-0.3-0.5-0.5-0.6
				c-0.1-0.1-0.2-0.2-0.2-0.2c-0.1-0.1-0.1-0.1-0.1-0.2c0.2-0.3,0.4-0.5,0.7-0.7c0.2-0.2,0.4-0.4,0.5-0.5s0.2-0.2,0.3-0.3
				c0,0,0.2-0.2,0.2-0.4c0-0.1,0-0.2-0.1-0.3s-0.1-0.1-0.2-0.1c-0.2-0.1-0.3,0.1-0.3,0.1c-0.5,0.5-0.9,0.8-1.2,1.1
				c-0.3,0.3-0.4,0.3-0.5,0.3c-0.1,0.1-0.3,0.1-0.4,0s-0.1-0.1-0.2-0.2c-0.2-0.2-0.1-0.2-0.2-0.4c-0.1-0.3,0-0.6,0-0.8
				C107.3,40.7,107.3,40.6,107.3,40.4z M108,38.5l0.2-0.3l0.4-0.4l0.7-0.5h0.1h0.2v0.2l-0.2,0.2l-0.1,0.1l-0.2,0.4
				c0,0-0.3,0.2-0.4,0.3l-0.4,0.3l-0.2,0.2l-0.2,0.1V39L108,38.5z M88.5,40.5c0,0.1-0.1,0.2-0.1,0.3s-0.1,0.1-0.1,0.2
				c-0.1,0.1-0.2,0.2-0.3,0.3c-0.2,0.3-0.5,0.5-0.7,0.6c-0.3,0-0.6,0.1-0.9,0.1c-0.2,0-0.3,0-0.4-0.1s-0.1-0.2-0.1-0.3
				s0-0.2,0.1-0.3c0-0.1,0.1-0.3,0.2-0.4c0.1-0.2,0.1-0.3,0.2-0.4c0.1-0.1,0.1-0.2,0.1-0.2c0.1-0.1,0.1-0.2,0.2-0.2s0.2-0.1,0.3-0.2
				c0.1-0.1,0.3-0.1,0.4-0.3c0.1-0.1,0.2,0,0.3-0.1c0.1-0.1,0.1-0.1,0.1-0.1c0.2,0,0.4,0,0.5,0.1c0.1,0,0.2,0,0.2,0.1
				c0.1,0,0.1,0.1,0.2,0.2c0.1,0.1,0.1,0.2,0.2,0.4L88.5,40.5z M107.3,44.2c0.1,0,0.2,0,0.3,0.1c0.1,0.1,0.2,0.2,0.3,0.3
				c0.1,0.1,0.1,0.3,0.2,0.4c0,0.1,0.1,0.2,0.1,0.3c0,0.4-0.3,0.8-0.8,1.3c-0.5,0.4-1.1,0.7-1.6,0.7c-0.1,0-0.3,0-0.3-0.1
				c-0.1,0-0.1-0.1-0.1-0.2c0-0.1,0.1-0.2,0.2-0.4s0.2-0.4,0.2-0.4c0.2-0.2,0.3-0.4,0.4-0.5c0.1-0.2,0.3-0.4,0.4-0.5
				c0.3-0.3,0.4-0.5,0.6-0.7C107.1,44.3,107.2,44.2,107.3,44.2z"/>
		</g>
	</g>
</g>
</svg>
