<?xml version="1.0" encoding="utf-8"?>
<!-- Generator: Adobe Illustrator 22.1.0, SVG Export Plug-In . SVG Version: 6.00 Build 0)  -->
<svg version="1.1" id="图层_1" xmlns="http://www.w3.org/2000/svg" xmlns:xlink="http://www.w3.org/1999/xlink" x="0px" y="0px"
	 viewBox="0 0 196 91" style="enable-background:new 0 0 196 91;" xml:space="preserve">
<style type="text/css">
	.st0{fill:#CF111B;}
	.st1{fill:#231815;}
</style>
<g>
	<g>
		<path class="st0" d="M48.5,32.9h14.3C59.1,24,51.5,17.2,42.2,14.4v12.2C42.2,30.1,45,32.9,48.5,32.9z"/>
		<path class="st0" d="M66.5,42.4L66.5,42.4L66.5,42.4H45.3c-1.7,0-3.2,1.4-3.2,3.1v1c0,1.7,1.4,3.1,3.2,3.1h6.3
			c1.2,0,2.1,0.9,2.1,2.1l0,0c0,3.5-2.8,6.3-6.3,6.3h-5.3h-6.3h-6.3c-3.5,0-6.3-2.8-6.3-6.3V41.3v-2.1c0-3.5,2.8-6.3,6.3-6.3
			s6.3-2.8,6.3-6.3V13.2c-1-0.1-2.1-0.2-3.2-0.2C14.6,13,0,27.6,0,45.5c0,17.6,14.1,32,31.6,32.5c15.8,0,28.8-11.5,31.2-26.5l0,0
			c0.2-1,1-1.8,2.1-1.8H65l0,0h1.3l0,0h0.1c1.7,0,3.2-1.4,3.2-3.1v-1C69.7,43.8,68.3,42.4,66.5,42.4z"/>
	</g>
	<g>
		<path class="st1" d="M109,26.4v-3.2H91.9v3.2h4.3V30h-4.3v3.2h4.3v8.6h-4.3V45h14c2.6,0,3.1-0.6,3.1-3.2v-5.4h-4.1v4.3
			c0,1,0.1,1-0.9,1h-1.6v-8.6h6.6V30h-6.6v-3.5h6.6V26.4z"/>
		<path class="st1" d="M168.6,42.8V23.3H162v26.6h31.1c1.7,0,2.9-1.1,2.9-2.9h-30.8C167.4,46.6,168.5,45.2,168.6,42.8z"/>
		<polygon class="st1" points="152.6,37.3 153.2,49.8 157.6,49.8 157.1,37.3 		"/>
		<polygon class="st1" points="139.4,49.8 143.6,49.8 144.1,37.3 140,37.3 		"/>
		<path class="st1" d="M146.1,30.2L146.1,30.2v0.7h4.1v-3.4h2.9v3.4c0,1.6-0.4,2.1-1.4,2.1h-7.4v-9.7l0,0l0,0l1.6-2.8h-4.8l-1.6,2.8
			v13h6.4V50h2c2.5,0,3.2-0.7,3.2-3.1V36.1h3.9c2.1,0,2.6-0.8,2.6-3.2v-9.6h-11.5V30.2z"/>
		<rect x="122.7" y="23.3" class="st1" width="6.5" height="3.2"/>
		<path class="st1" d="M111.2,45.2c0.1,1.3-0.5,1.8-1.7,1.7H89.7V20.6h39.5v-3.2H82.8v32.5h32.5c2.1,0.1,3-0.9,2.9-2.9V23.2h-6.9v22
			H111.2z"/>
		<path class="st1" d="M131.4,17.3V47h-2.2V28.8h-6.5v21.1h12l0,0l0,0c2.3,0,2.9-0.9,2.9-2.9V20.6h30.8v-3.2L131.4,17.3z"/>
		<path class="st1" d="M196,20.6v-3.2l0,0h-25l0,0v3.2h15.7l-5.3,2.7H171V45h5.7v-5.8h3.6V45h6.9v-5.8h3.1V45h3.1
			c1.8,0,2.5-0.7,2.5-3.2V23.2h-5.3L196,20.6L196,20.6z M180.3,36h-3.6v-3.4h3.6V36z M180.3,29.3h-3.6v-2.4h3.6V29.3z M190.3,36
			h-3.1v-3.4h3.1V36z M190.3,29.3h-3.1v-2.4h3.1V29.3z"/>
	</g>
	<g>
		<path class="st0" d="M121.6,61.3c0.1,0,0.3,0,0.4,0s0.3,0,0.4,0s0.1,0,0.3-0.1c0.1,0,0.3-0.1,0.5-0.2c0.2-0.1,0.4-0.2,0.5-0.3
			s0.2-0.3,0.3-0.4c0-0.1,0.1-0.2,0.2-0.3c0.1-0.2,0.1-0.4,0.2-0.6c0-0.1,0.1-0.3,0.1-0.5c0-0.1-0.1-0.2-0.2-0.3s-0.3-0.1-0.5-0.1
			s-0.4,0-0.5,0s-0.3,0.1-0.3,0.1c-0.2,0.2-0.4,0.4-0.5,0.5c-0.2,0-0.5,0.2-0.9,0.5c-0.3,0.3-0.5,0.6-0.5,0.8s0,0.4,0.1,0.6
			C121.4,61.2,121.5,61.3,121.6,61.3z"/>
		<g>
			<path class="st0" d="M108.4,56.9c-0.1-0.3-0.2-0.5-0.3-0.6c0-0.1-0.2-0.2-0.5-0.5c-0.2-0.2-0.4-0.4-0.6-0.5
				c-0.1-0.1-0.3-0.2-0.3-0.2c-0.2-0.1-0.4-0.1-0.6-0.2c-0.2-0.1-0.4-0.1-0.6-0.2l-0.2,0.1l-0.4-0.1l-1.2,0.1
				c-0.2,0.1-0.5,0.1-0.6,0.2c-0.2,0.1-0.3,0.1-0.5,0.2c-0.3,0.1-0.5,0.2-0.8,0.4c-0.2,0.1-0.4,0.2-0.6,0.4
				c-0.1,0.1-0.2,0.2-0.4,0.3c-0.2,0.2-0.5,0.4-0.9,0.6c-1,0.8-1.8,1.7-2.4,2.7s-1,2.2-1.3,3.5l-0.3,1.6c0,0.2,0,0.4,0,0.6
				s-0.1,0.4-0.1,0.5c0.1,0.4,0.2,0.7,0.3,1c0.1,0.3,0.1,0.4,0.2,0.5c0.1,0.3,0.3,0.5,0.5,0.7s0.4,0.4,0.6,0.5
				c0.3,0.1,0.5,0.3,0.7,0.3c0.2,0.1,0.4,0.1,0.6,0.1c0.1,0,0.3,0,0.5-0.1l0.6,0.1c0.4,0,0.8-0.1,1.1-0.2c0.4-0.1,0.7-0.3,1.1-0.5
				c0.2-0.1,0.4-0.2,0.7-0.4c0.3-0.2,0.7-0.4,1.1-0.8c0.2-0.2,0.5-0.3,0.8-0.5c0.1,0,0.1,0,0.1,0v0.1c0,0.1-0.1,0.2-0.1,0.3l0.2,0.7
				c-0.1,0.4-0.3,0.8-0.3,1.1c-0.1,0.3-0.1,0.5-0.1,0.7c0,0.3,0,0.5-0.1,0.7c0,0.2-0.1,0.3-0.1,0.5c-0.1,0.2-0.1,0.4-0.2,0.6
				c0,0.2,0,0.3,0,0.3c0,0.2,0,0.3,0.1,0.4s0.2,0.1,0.3,0.1c0.2,0,0.3,0,0.4-0.1s0.2-0.2,0.2-0.4c0.2-0.1,0.4-0.1,0.5-0.2
				c0.1,0,0.2-0.1,0.3-0.1c0.1-0.1,0.2-0.1,0.2-0.3c0-0.1,0.1-0.2,0.1-0.4c0.1-0.2,0.1-0.4,0.1-0.6s0.1-0.3,0.1-0.3
				c0.2-0.2,0.3-0.6,0.4-1.2c0.1-0.5,0.2-0.9,0.4-1.1c0.1-0.2,0.2-0.4,0.3-0.6c0.1-0.2,0.1-0.5,0.1-0.8s0.1-0.5,0.1-0.7
				s0.1-0.3,0.1-0.5c0-0.1,0.1-0.2,0.1-0.4c0.1-0.2,0.1-0.3,0.1-0.4c0-0.3-0.1-0.4-0.3-0.6c-0.2-0.1-0.4-0.2-0.8-0.2
				c-0.3,0-0.5,0-0.7,0.1s-0.4,0.2-0.6,0.4c-0.1,0.2-0.3,0.3-0.4,0.5s-0.3,0.4-0.5,0.5s-0.3,0.2-0.4,0.3c-0.1,0.1-0.2,0.2-0.3,0.2
				c-0.4,0.3-0.7,0.6-1,0.8c-0.2,0.2-0.4,0.3-0.5,0.4c-0.3,0.2-0.6,0.3-0.9,0.4s-0.7,0.1-1,0.1c-0.2,0-0.5,0-0.7-0.1
				s-0.4-0.1-0.5-0.2s-0.2-0.2-0.3-0.3c-0.1-0.2-0.2-0.3-0.3-0.6c-0.1-0.3-0.2-0.6-0.3-0.9c-0.1-0.3-0.1-0.6-0.1-0.9
				c0-0.1,0-0.4,0.1-0.9c0.1-0.4,0.2-1,0.3-1.8c0.1-0.2,0.2-0.4,0.2-0.6c0.1-0.2,0.1-0.4,0.2-0.5c0-0.1,0.1-0.2,0.1-0.3
				s0.1-0.1,0.1-0.2c0.1-0.1,0.2-0.3,0.3-0.4c0.1-0.2,0.2-0.3,0.2-0.5c0.2-0.2,0.3-0.4,0.5-0.6c0.1-0.2,0.2-0.3,0.3-0.4
				c0.1-0.1,0.2-0.2,0.2-0.3c0.1-0.1,0.1-0.1,0.1-0.2c0.3-0.3,0.5-0.5,0.7-0.7s0.4-0.3,0.5-0.4c0.2-0.2,0.5-0.3,0.8-0.4
				c0.3-0.1,0.6-0.1,0.9-0.1c0.6,0,1.1,0.2,1.5,0.6c0.4,0.4,0.7,1,1,1.7c0,0.2,0.1,0.4,0.2,0.7c0,0.2,0,0.3,0.1,0.4
				c0.1,0.1,0.2,0.1,0.4,0.1c0.3,0,0.7-0.2,1.1-0.5c0.5-0.4,0.7-0.7,0.7-0.9c0-0.1-0.1-0.4-0.2-0.7C108.7,57.3,108.5,57,108.4,56.9z
				"/>
			<path class="st0" d="M152.4,56.2c0.1,0,0.2,0,0.4-0.1c0.2,0,0.5-0.1,0.7-0.1c0.3,0.1,0.7,0.2,1,0.2s0.7,0.1,1,0.1
				c0.1,0,0.1,0,0.2-0.1c0,0,0.1-0.1,0.1-0.2c0-0.1,0-0.2,0-0.3s0-0.2,0-0.3s0-0.2,0-0.3s0-0.2,0-0.3s-0.1-0.3-0.2-0.3
				c-0.1-0.1-0.2-0.1-0.3-0.1s-0.2,0.1-0.3,0.1c-0.1-0.1-0.2-0.1-0.3-0.2c-0.1,0-0.2-0.1-0.3-0.1l-0.4,0.1c-0.2,0-0.3-0.1-0.4-0.1
				c-0.1,0-0.2,0-0.4-0.1c-0.1,0-0.3,0-0.5,0s-0.3,0-0.4,0c-0.5,0-1,0-1.4,0.1c-0.4,0-0.8,0.1-1.2,0.2c-0.3,0-0.6,0-1,0
				s-0.7,0.1-1.1,0.2c-0.2,0.1-0.4,0.1-0.5,0.2c-0.1,0.1-0.3,0.2-0.3,0.4c0,0.1-0.1,0.2-0.1,0.4s0,0.4-0.1,0.6
				c-0.1,0.2-0.2,0.3-0.2,0.4c0,0.1-0.1,0.2-0.1,0.2c0,0.1,0,0.1,0.1,0.2c0,0,0.1,0.1,0.2,0.1c0.9-0.2,1.8-0.4,2.7-0.6
				c0.1,0,0.3-0.1,0.4-0.1c0.1,0,0.2,0,0.4-0.1l0.2-0.1c0.1,0,0.3,0,0.4,0.1c0.1,0,0.2,0,0.2,0.1l0.1,0.2c0,0.2,0,0.3,0,0.4
				c0,0.1,0,0.2,0,0.3c-0.1,0.4-0.1,0.7-0.2,1c-0.1,0.3-0.1,0.4-0.2,0.5c0,0.1,0.1,0.2,0.1,0.3c0,0,0,0.1-0.1,0.2
				c0,0.1-0.1,0.3-0.2,0.4c0,0,0,0.1,0,0.2c0,0.1,0,0.1,0,0.2c0,0.1,0,0.2,0,0.4c0,0.1-0.1,0.3-0.1,0.4c0,0.2-0.1,0.3-0.1,0.5
				c0,0.1,0,0.2,0,0.3c0,0.2,0,0.4,0,0.7s-0.1,0.6-0.1,1c-0.1,0.4-0.1,0.7-0.1,1s0,0.5,0,0.7c0,0.4,0,0.8,0,1.2
				c0.1,0.6,0.1,1.1,0.2,1.7c0,0.1,0.1,0.2,0.1,0.2c0,0.1,0,0.1,0.1,0.1c0,0.2-0.1,0.4-0.1,0.7c0,0.1,0,0.1,0.1,0.2
				c0.1,0,0.2,0.1,0.4,0.1c0,0,0.1,0,0.2-0.1c0.1,0,0.1-0.1,0.2-0.2c0.1,0,0.3-0.1,0.4-0.2c0.1,0,0.1-0.1,0.1-0.1
				c0-0.1,0.1-0.1,0.1-0.2s-0.1-0.2-0.1-0.3c0-0.1,0-0.4,0-0.6c0-0.3,0-0.5,0-0.6s0-0.2,0.1-0.3c0-0.2,0.1-0.3,0.1-0.3
				c0-0.1,0-0.1,0-0.2s0-0.2,0-0.2c0.1-0.1,0.1-0.2,0.2-0.3c0-0.3,0.1-0.6,0.1-0.9c0.1-0.3,0.1-0.6,0.2-0.9c0-0.2,0.1-0.4,0.1-0.6
				c0-0.1,0-0.2,0-0.3c0.1-0.2,0.1-0.3,0.2-0.4c0.1-0.1,0.1-0.2,0.1-0.3c0-0.2,0.1-0.3,0.1-0.4c0-0.1,0-0.2,0-0.3
				c0.1-0.2,0.1-0.4,0.2-0.5c0.1-0.2,0.1-0.3,0.1-0.4c0-0.1,0-0.2,0-0.3s0-0.2,0-0.3s0.1-0.2,0.1-0.4s0.1-0.4,0.2-0.7
				c0-0.1,0.1-0.3,0.1-0.5s0.1-0.4,0.1-0.6c0-0.1,0-0.1,0-0.2c0-0.1,0-0.1-0.1-0.2c-0.1-0.2-0.2-0.4-0.3-0.5s-0.2-0.2-0.2-0.2
				c-0.1,0-0.2-0.1-0.2-0.2c-0.1-0.1-0.1-0.1-0.1-0.2C152.3,56.2,152.3,56.2,152.4,56.2z"/>
			<path class="st0" d="M182.9,66.2c-0.1-0.2-0.3-0.4-0.7-0.2c-0.1,0.1-0.2,0.1-0.3,0.2c-0.1,0-0.2,0.1-0.2,0.1
				c-0.2,0.1-0.5,0.2-0.8,0.3c-0.3,0.1-0.6,0.1-0.9,0.1c-0.2,0-0.4-0.1-0.6-0.1c-0.2,0-0.3-0.1-0.3-0.1c-0.1-0.1-0.2-0.1-0.3-0.3
				c-0.1-0.1-0.1-0.2-0.1-0.4c0-0.1,0-0.2,0.1-0.2c0-0.1,0.1-0.1,0.2-0.2c0.7-0.6,1.3-1.1,1.8-1.5c0.4-0.4,0.7-0.8,0.8-1.2l0.1-0.3
				c0.1-0.2,0.1-0.3,0.1-0.4c0-0.2,0-0.4,0-0.5c-0.1-0.2-0.1-0.3-0.2-0.4c-0.1-0.1-0.1-0.2-0.2-0.3c-0.1-0.1-0.2-0.1-0.3-0.2
				c-0.1,0-0.3-0.1-0.5-0.1s-0.3,0-0.4,0c-0.1,0-0.3,0-0.4,0.1c-0.1,0.1-0.2,0.1-0.3,0.2c-0.1,0.1-0.2,0.1-0.3,0.2
				c-0.2,0.2-0.4,0.4-0.6,0.6c-0.2,0.2-0.4,0.4-0.6,0.5c-0.2,0.3-0.4,0.5-0.5,0.8c-0.1,0.2-0.2,0.4-0.3,0.6
				c-0.1,0.2-0.1,0.3-0.2,0.4c-0.1,0.1-0.1,0.2-0.1,0.3s0,0.3-0.1,0.4c0,0.1-0.1,0.5-0.1,0.7c-0.2,0.3-0.3,0.5-0.6,0.8
				c-0.2,0.2-0.3,0.3-0.4,0.5c0,0-0.2,0.3-0.3,0.4c-0.1,0.2-0.3,0.6-0.7,0.4c-0.5-0.1-0.4-0.7-0.4-0.9c0-0.2-0.1-0.7-0.2-0.9
				c-0.2-0.4-0.1-0.8-0.3-1.2c-0.2-0.2-0.2-0.4-0.5-0.5c-0.2-0.1-0.5-0.2-0.7-0.2c-0.1,0-0.3,0-0.5,0.1s-0.4,0.1-0.6,0.2
				c-0.2,0.1-0.4,0.2-0.6,0.3c-0.2,0.1-0.3,0.2-0.4,0.3c-0.1,0.1-0.1,0.1-0.2,0.2c-0.1,0.1-0.1,0.1-0.1,0.1
				c-0.2,0.1-0.3,0.2-0.4,0.3c-0.1,0.1-0.2,0.2-0.3,0.4c-0.2,0.1-0.4,0.3-0.5,0.4s-0.3,0.2-0.3,0.3c-0.1,0-0.1,0.1-0.1,0.1l-0.1,0.1
				c-0.1-0.1-0.1-0.1-0.1-0.2c0,0,0-0.1,0-0.2s0.1-0.2,0.1-0.2c0.1-0.1,0.1-0.3,0.2-0.4c0.3-0.7,0.6-1.4,0.7-1.8
				c0.2-0.5,0.2-0.8,0.2-0.9c0-0.3-0.1-0.5-0.2-0.7c-0.2-0.2-0.4-0.2-0.7-0.2s-0.6,0.1-0.9,0.2c-0.3,0.1-0.5,0.3-0.8,0.5
				c-0.3,0.3-0.4,1.1-0.6,1.3c-0.2,0.2-0.4,0.3-0.6,0.5c-0.3,0.3-0.4,0.2-0.8,0.5c-0.2,0.2-0.9,0.4-0.9,0.5c-0.1,0-0.9,0.3-1,0.3
				c-0.4,0,0.1-1.2,0.1-1.4c0.1-0.6-0.1-1.1-0.5-1.4c-1.3-1.1-2.7-0.9-2.8-0.8c-0.2,0-0.2,0-0.4,0s-0.3,0-0.5,0.1s-0.3,0-0.4,0.1
				c-0.1,0.1-0.2,0.2-0.4,0.3c-0.1,0.1-0.2,0.2-0.4,0.3c-0.1,0.1-0.2,0.2-0.3,0.2c-0.1,0.1-0.2,0.2-0.4,0.3
				c-0.1,0.1-0.5,0.5-0.5,0.6c-1.1,1.7-1.1,2.4-1.2,2.6c-0.1,0.3-0.1,0.6-0.1,0.8c0,0.4,0.2,0.8,0.6,1.1c0.4,0.3,0.9,0.5,1.4,0.5
				c0.1,0,0.2,0,0.3,0s0.2,0,0.3,0s0.3,0,0.5-0.1c0.2,0,0.4-0.1,0.6-0.2c0.4-0.1,0.7-0.3,1-0.5c0.2-0.1,0.8-0.5,1.5-1.1
				c0.4-0.3,0.7-0.7,1-1.1c0.2-0.2,0.3-0.3,0.3-0.5c0.1,0.1,0.1,0.2,0.2,0.2c0.1,0.1,0.5,0,0.7,0s0.4-0.1,0.6-0.2
				c0.2-0.1,0.4,0,0.6-0.1c0.1-0.1,0.5-0.1,0.7-0.3c0.2-0.2,0.2-0.1,0.4-0.1c0.1-0.1,0.3-0.1,0.4-0.1c0.1,0,0.2,0,0.2,0l0.1,0.1
				c0,0,0,0.1,0,0.2s0,0.1-0.1,0.2c0,0.1-0.1,0.2-0.1,0.2c0,0.1,0,0.1,0,0.1c-0.2,0.6-0.4,1.1-0.6,1.5c-0.2,0.4-0.3,0.8-0.5,1.1
				c0,0.2,0.1,0.4,0.1,0.6s0.2,0.3,0.6,0.3c0.2,0,0.3,0,0.5,0c0.1,0,0.3-0.1,0.4-0.2c0.1-0.1,0.2-0.2,0.3-0.3
				c0.1-0.1,0.2-0.2,0.3-0.3c0.5-0.4,0.8-0.7,1.1-0.9c0.3-0.3,0.5-0.5,0.6-0.7c0.1-0.1,0.2-0.2,0.4-0.2c0.2-0.1,0.5-0.2,0.9-0.5
				c0.2-0.1,0.4-0.2,0.5-0.3c0.2-0.1,0.3-0.1,0.5-0.2h0.1c0.2,0.2,0.4,0.4,0.5,0.5c0.1,0.2,0.3,0.3,0.4,0.4c0.1,0.2,0.3,0.4,0.4,0.6
				c0.1,0.2,0.2,0.3,0.3,0.3c0.1,0.1,0.1,0.3,0.3,0.4s0.4,0.1,0.6,0.1c0.2,0,0.6,0,0.7-0.1c0.2-0.1,0.4-0.1,0.6-0.3
				c0.2-0.1,0.3-0.3,0.5-0.4s0.6-0.5,0.6-0.6c0.1-0.1,0.2-0.1,0.2-0.1c0.1,0,0.2,0,0.2,0.1c0.1,0.1,0.1,0.2,0.2,0.3
				c0.1,0.2,0.2,0.4,0.3,0.5s0.2,0.2,0.3,0.3c0.2,0.1,0.4,0.3,0.6,0.3c0.3,0.1,0.5,0.1,0.9,0.1c0.2,0,0.5,0,0.6,0
				c0.2,0,1.2-0.3,1.6-0.5c0.4-0.2,0.9-0.5,1.4-0.9C183,66.8,183,66.4,182.9,66.2z M160.7,65.6c0,0.1-0.1,0.3-0.1,0.4
				s-0.1,0.2-0.2,0.2c-0.1,0.1-0.3,0.2-0.4,0.4c-0.3,0.4-0.6,0.6-1,0.8c-0.3,0.2-0.7,0.3-1.1,0.3c-0.3,0-0.4,0-0.6-0.1
				c-0.1-0.1-0.2-0.2-0.2-0.4c0-0.1,0-0.2,0.1-0.4c0-0.2,0.1-0.3,0.2-0.6c0.1-0.2,0.2-0.4,0.3-0.6c0.1-0.1,0.2-0.3,0.3-0.3
				s0.2-0.2,0.3-0.3c0.1,0,0.2-0.2,0.3-0.3c0.2-0.2,0.3-0.2,0.4-0.3c0.1-0.1,0.2,0,0.3-0.1s0.1-0.1,0.2-0.1c0.3,0,0.5,0.1,0.7,0.1
				s0.2,0,0.3,0.1c0.1,0,0.1,0.1,0.2,0.2c0.1,0.1,0.1,0.3,0.2,0.5L160.7,65.6z M178.5,64.2L178.5,64.2c0-0.3,0.1-0.6,0.5-1
				c0.3-0.4,0.6-0.6,0.8-0.6c0.1,0,0.1,0,0.1,0.1c0,0,0,0.1,0,0.2c0,0.1,0,0.2-0.1,0.3s-0.1,0.2-0.2,0.3c-0.1,0.1-0.2,0.2-0.3,0.2
				c-0.1,0.1-0.2,0.2-0.3,0.2c-0.1,0.1-0.1,0.1-0.2,0.2c-0.1,0.1-0.1,0.1-0.2,0.1H178.5z"/>
			<path class="st0" d="M140.3,65.5c0.1-0.2,0.3-0.4,0.3-0.6c0.2-0.1,0.3-0.2,0.5-0.3c0.1-0.1,0.4-0.1,0.5-0.2
				c0.3-0.3,0.7-0.4,1-0.6c0.3-0.3,0.7-0.6,1-0.8c0.4-0.4,0.6-0.9,0.8-1.1c0.2-0.3,0.3-0.7,0.3-0.8c0-0.3,0.7-0.6,0.6-0.8
				c-0.1-0.2-0.3-0.3-0.6-0.3c-0.4,0-0.7-0.1-1,0.1c-0.3,0.2-1.8,0.5-2.1,0.8c-0.5,0.5-0.7,0.7-1.2,1.2c-0.3,0.3-0.6,0.8-0.8,1
				s-0.4,0.5-0.5,0.7s-0.1,0.3-0.2,0.5c-0.1,0.1-0.2,0.3-0.3,0.4c-0.2,0.2-0.3,1-0.5,1.1s-0.4,0.4-0.5,0.5s-0.2,0.2-0.2,0.2
				c-0.1,0.1-0.2,0.3-0.3,0.4c-0.2,0.2-0.2,0.3-0.5,0.4c-0.2,0-0.4-0.6-0.4-0.9c0-0.2-0.2-0.4-0.3-0.7c-0.2-0.4-0.3-0.8-0.5-1.2
				c-0.2-0.2-0.3-0.4-0.5-0.5s-0.5-0.2-0.7-0.2c-0.1,0-0.3,0-0.5,0.1c-0.2,0.1-0.4,0.1-0.6,0.2c-0.2,0.1-0.4,0.2-0.6,0.3
				c-0.2,0.1-0.3,0.2-0.4,0.3c-0.1,0.1-0.1,0.1-0.2,0.2c-0.1,0.1-0.1,0.1-0.1,0.1c-0.2,0.1-0.3,0.2-0.4,0.3
				c-0.1,0.1-0.7,0.6-0.8,0.7s-0.3,0.2-0.3,0.3c-0.1,0-0.1,0.1-0.1,0.1l-0.1,0.1c-0.1-0.1-0.1-0.1-0.1-0.2c0,0,0-0.1,0-0.2
				s0.1-0.2,0.1-0.2c0.1-0.1,0.1-0.3,0.2-0.4c0.3-0.7,0.6-1.4,0.7-1.8c0.2-0.5,0.2-0.8,0.2-0.9c0-0.3-0.1-0.5-0.2-0.7
				c-0.2-0.2-0.4-0.2-0.7-0.2s-0.6,0.1-0.9,0.2c-0.3,0.1-0.5,0.3-0.8,0.5c-0.3,0.3-0.5,0.5-0.8,0.7c-0.2,0.2-0.3,0.5-0.5,0.6
				c-0.4,0.4-0.5,0.7-0.6,0.8c-0.2,0.2-0.4,0.5-0.5,0.7c-0.2,0.1-0.4,0.5-0.6,0.6c-0.1,0.1-0.3,0.4-0.4,0.5c0,0.1-0.6,0.6-0.8,0.7
				c-0.1,0.1-0.7,0.6-0.8,0.7c-0.3,0.3-0.2,0.2-0.6,0.4c-0.3,0.2-0.5,0.5-0.8,0.5c-0.3,0.1-0.3-0.1-0.3-0.4c0-0.4,0.4-1,0.4-1.3
				c0.1-0.6,0.6-1.1,0.7-1.4c0.2-0.3,0.6-1.7,0.6-2c0-0.2-0.1-0.5-0.1-0.7c-0.1-0.2-0.2-0.4-0.4-0.6c-0.2-0.1-0.5-0.2-0.8-0.2
				c-0.1,0-0.2,0-0.3,0.1c-0.1,0-0.2,0.1-0.3,0.2c-0.2,0.3-1.3,1.6-1.9,2.1c-0.6,0.4-1,0.3-1.1,0.2c-0.1,0-0.6-0.1-0.6-0.2
				c0,0-0.1-0.3-0.1-0.4c0-0.3-0.1-1.3-0.4-1.6s-0.8-0.5-1.5-0.7s-1.2-0.1-1.3-0.1c-0.1,0-0.2,0-0.4,0c-0.2,0-0.4,0.1-0.5,0.1
				c-0.2,0.1-0.3,0.1-0.5,0.2c-0.1,0.1-0.2,0.1-0.3,0.3c-0.1,0.1-0.2,0.2-0.4,0.3c-0.1,0.1-0.2,0.2-0.4,0.4
				c-0.1,0.1-0.5,0.6-0.6,0.7c-0.7,1-0.9,1.6-1,1.8c-0.1,0.3-0.2,0.5-0.3,0.8c-0.1,0.3-0.2,0.6-0.1,0.9c0,0.4,0.1,0.7,0.5,1.1
				c0.3,0.4,0.9,0.5,1.4,0.5c0.1,0,0.2,0,0.3,0c0.1,0,0.2,0,0.2,0c0.2,0,0.3,0,0.5,0s0.4-0.1,0.6-0.2c0.4-0.1,0.7-0.3,1-0.4
				s0.6-0.4,1-0.6c0.3-0.3,0.8-0.5,1-0.9c0.3-0.3,0.5-0.6,0.7-1c0.1-0.3,0.4-1,0.4-1c0.1,0.1,0.7,0.2,0.8,0.3c0.3,0.2,0.5,0.1,0.7,0
				s0.7-0.1,0.9-0.2c0.3-0.1,0.7-0.2,0.8-0.5c0,0-0.6,1.6-0.6,2c-0.1,0.3-0.4,0.8-0.4,0.9c0,0.2-0.4,1.1-0.4,1.3
				c0.1,0.7,1,0.8,1.9,0.4c0.1,0,1.2-0.6,1.5-0.7s0.4-0.2,0.7-0.4c0.3-0.2,0.6-0.5,0.9-0.7c0.2-0.1,0.5-0.3,0.6-0.4l0,0l0.1-0.1
				c0-0.1,0.1-0.1,0.2-0.1c0.2-0.1,0.6-0.6,0.7-0.7c0.1,0,0.1-0.2,0.3-0.3c0.2-0.1,0.3-0.3,0.6-0.5c0.2-0.2,0.4-0.3,0.5-0.4
				s0.3-0.1,0.4-0.1c0.1,0,0.2,0,0.2,0l0.1,0.1c0,0,0,0.1,0,0.2s0,0.1-0.1,0.2c0,0.1-0.1,0.2-0.1,0.2c0,0.1,0,0.1,0,0.1
				c-0.2,0.6-0.4,1.1-0.6,1.5s-0.3,0.8-0.5,1.1c0,0.2,0.1,0.4,0.1,0.6s0.2,0.3,0.6,0.3c0.2,0,0.3,0,0.5,0c0.1,0,0.3-0.1,0.4-0.2
				c0.1-0.1,0.2-0.2,0.3-0.3c0.1-0.1,0.2-0.2,0.3-0.3c0.5-0.4,0.8-0.7,1.1-0.9c0.3-0.3,0.8-0.7,1-0.8c0.2-0.2,0.5-0.3,0.9-0.6
				c0.2-0.1,0.4-0.2,0.5-0.3c0.2-0.1,0.6-0.1,0.8-0.2h0.1c0.2,0.2,0.4,0.4,0.5,0.5c0.1,0.2,0.1,0.3,0.2,0.4c0.1,0.2,0.1,0.4,0.2,0.6
				c0.1,0.2,0.2,0.3,0.3,0.3c0.1,0.1,0.3,0.2,0.5,0.3c0.2,0.1,0.4,0.1,0.6,0.1c0.2,0,0.4,0,0.5-0.1c0.2-0.1,0.4-0.2,0.6-0.3
				c0.2-0.1,0.3-0.2,0.5-0.3c0.2-0.1,0.8-0.6,1-0.8c0.1,0.1,0.1,0.2,0.1,0.2c0.1,0.3,0.1,0.5,0.2,0.9c0.1,0.4,0.1,0.5,0.2,0.9
				c0.1,0.4,0.3,0.5,0.6,0.9c0,0.1-0.2,0.4-0.2,0.6c-0.1,0.1-0.2,0.2-0.4,0.4c-0.2,0.2-0.5,0.4-0.8,0.7c-0.1,0.1-0.2,0.3-0.4,0.4
				c-0.1,0.1-0.3,0.3-0.4,0.4c-0.1,0.2-0.2,0.3-0.4,0.5c-0.1,0.2-0.2,0.3-0.3,0.4c-0.1,0.2-0.2,0.4-0.2,0.5s-0.1,0.2-0.1,0.2
				c0,0.4-0.1,0.7-0.1,0.9c0,0.3,0.2,0.6,0.2,0.7c0.1,0.2,0.9,0.5,1.2,0.6s1.1,0.1,1.6,0c1-0.2,1-0.5,2.2-1.3
				c1.1-0.8,1.8-1.6,1.9-2.4c0-0.1,0-0.2,0-0.3c0-0.1,0-0.1,0-0.2c-0.1-0.5-0.2-0.9-0.4-1.2c-0.2-0.3-0.4-0.6-0.6-0.8
				c-0.1-0.1-0.2-0.2-0.3-0.3c-0.1-0.1-0.1-0.2-0.1-0.2c0.3-0.3,0.6-0.7,0.9-0.9c0.2-0.3,0.5-0.5,0.6-0.7c0.2-0.2,0.3-0.3,0.4-0.3
				c0,0,0.3-0.2,0.3-0.5c0-0.1,0-0.2-0.1-0.3c-0.1-0.1-0.2-0.1-0.3-0.2c-0.2-0.1-0.5,0.1-0.5,0.1c-0.6,0.6-1.2,1.1-1.5,1.4
				c-0.4,0.3-0.5,0.4-0.6,0.4c-0.2,0.1-0.4,0.1-0.5,0s-0.2-0.1-0.2-0.2c-0.2-0.3-0.2-0.3-0.3-0.5c-0.1-0.4,0-0.8,0.1-1.1
				C140.1,66,140.2,65.8,140.3,65.5z M141.1,63l0.2-0.4l0.5-0.6l0.9-0.6h0.1h0.2v0.3l-0.2,0.2l-0.2,0.2l-0.3,0.5
				c0,0-0.4,0.3-0.5,0.3l-0.5,0.4l-0.2,0.2l-0.2,0.1l-0.1-0.1L141.1,63z M115.7,65.6c0,0.1-0.1,0.3-0.1,0.4s-0.1,0.2-0.2,0.2
				c-0.1,0.1-0.3,0.2-0.4,0.4c-0.3,0.4-0.6,0.6-1,0.8c-0.3,0.2-0.7,0.3-1.1,0.3c-0.3,0-0.4,0-0.6-0.1c-0.1-0.1-0.2-0.2-0.2-0.4
				c0-0.1,0-0.2,0.1-0.4c0-0.2,0.1-0.3,0.2-0.6c0.1-0.2,0.2-0.4,0.3-0.6c0.1-0.1,0.1-0.3,0.2-0.3c0.2-0.2,0.2-0.2,0.3-0.3
				c0.1,0,0.3-0.2,0.3-0.3c0.2-0.2,0.4-0.2,0.5-0.3c0.1-0.1,0.3,0,0.4-0.1s0.1-0.1,0.2-0.1c0.3,0,0.5,0.1,0.7,0.1s0.2,0,0.3,0.1
				c0.1,0,0.1,0.1,0.2,0.2s0.1,0.3,0.2,0.5L115.7,65.6z M140.2,70.5c0.1,0,0.2,0,0.3,0.1s0.2,0.2,0.3,0.5c0.1,0.2,0.2,0.3,0.2,0.5
				c0.1,0.2,0.1,0.3,0.1,0.4c0,0.5-0.4,1.1-1.1,1.7c-0.7,0.6-1.4,0.9-2.1,0.9c-0.2,0-0.3,0-0.4-0.1c-0.1-0.1-0.1-0.2-0.1-0.3
				c0-0.1,0.1-0.3,0.2-0.5c0.1-0.3,0.2-0.5,0.3-0.5c0.2-0.2,0.4-0.5,0.6-0.7c0.2-0.2,0.4-0.5,0.6-0.7c0.3-0.4,0.6-0.7,0.8-0.9
				C140,70.6,140.1,70.5,140.2,70.5z"/>
		</g>
	</g>
</g>
</svg>
