<?xml version="1.0" encoding="iso-8859-1"?>
<!-- Generator: Adobe Illustrator 22.1.0, SVG Export Plug-In . SVG Version: 6.00 Build 0)  -->
<svg version="1.1" id="&#x56FE;&#x5C42;_1" xmlns="http://www.w3.org/2000/svg" xmlns:xlink="http://www.w3.org/1999/xlink" x="0px"
	 y="0px" viewBox="0 0 180 80" style="enable-background:new 0 0 180 80;" xml:space="preserve">
<g>
	<g>
		<path style="fill:#CF111B;" d="M44.55,28.013h13.144c-3.459-8.404-10.515-15.018-18.955-17.636v11.711
			C38.739,25.258,41.23,28.013,44.55,28.013z"/>
		<path style="fill:#CF111B;" d="M61.015,36.969L61.015,36.969L61.015,36.969h-19.37c-1.66,0-2.905,1.378-2.905,3.031v0.964
			c0,1.653,1.245,3.031,2.905,3.031h5.811c1.107,0,1.937,0.827,1.937,2.067l0,0c0,3.307-2.629,6.062-5.811,6.062h-4.842h-5.811
			h-5.811c-3.182,0-5.811-2.756-5.811-6.062V36.004v-2.067c0-3.307,2.629-6.062,5.811-6.062s5.811-2.756,5.811-6.062V9.138
			C31.96,9,30.992,9,30.023,9C13.42,9,0,22.916,0,40c0,16.809,12.867,30.449,29.055,31c14.527,0,26.426-11.022,28.64-25.351l0,0
			c0.138-0.964,0.968-1.653,1.937-1.653h0.138l0,0h1.107l0,0h0.138c1.66,0,2.905-1.378,2.905-3.031V40
			C63.92,38.347,62.675,36.969,61.015,36.969z"/>
	</g>
	<g>
		<path style="fill:#231815;" d="M100.031,21.813v-3.031H84.258v3.031h3.874v3.307h-3.874v3.031h3.874v8.267h-3.874v3.031h12.867
			c2.352,0,2.905-0.551,2.905-3.031V31.32h-3.736v4.133c0,0.964,0.138,0.964-0.83,0.964h-1.384v-8.267h6.088V25.12h-6.088v-3.307
			C94.081,21.813,100.031,21.813,100.031,21.813z"/>
		<path style="fill:#231815;" d="M154.681,37.382v-18.6h-6.088v25.351h28.501c1.66,0,2.629-1.102,2.629-2.756h-28.224
			C153.574,40.964,154.681,39.724,154.681,37.382z"/>
		<polygon style="fill:#231815;" points="140.015,32.284 140.569,44.133 144.581,44.133 144.166,32.284 		"/>
		<polygon style="fill:#231815;" points="127.978,44.133 131.852,44.133 132.267,32.284 128.532,32.284 		"/>
		<path style="fill:#231815;" d="M134.066,25.396L134.066,25.396v0.689h3.736v-3.169h2.629v3.169c0,1.516-0.415,1.929-1.384,1.929
			h-6.779v-9.231l0,0l0,0l1.522-2.618h-4.427l-1.522,2.618v12.4h5.811v12.951h1.799c2.352,0,2.905-0.689,2.905-2.893V31.182h3.597
			c1.937,0,2.352-0.827,2.352-3.031V18.92h-10.515v6.476H134.066z"/>
		<rect x="112.621" y="18.782" style="fill:#231815;" width="5.949" height="3.031"/>
		<path style="fill:#231815;" d="M102.106,39.724c0.138,1.24-0.415,1.791-1.522,1.653H82.321V16.164h36.249v-3.031H75.957v31h29.746
			c1.937,0.138,2.767-0.827,2.629-2.756V18.644h-6.364v21.08H102.106z"/>
		<path style="fill:#231815;" d="M120.507,13.133v28.244h-2.075v-17.36h-5.949v20.116h10.93l0,0l0,0
			c2.075,0,2.629-0.827,2.629-2.756V16.164h28.224v-3.031H120.507z"/>
		<path style="fill:#231815;" d="M179.862,16.164v-3.031l0,0h-22.967l0,0v3.031h14.389l-4.842,2.618h-9.547v20.804h5.258v-5.511
			h3.321v5.511h6.364v-5.511h2.905v5.511h2.905c1.66,0,2.352-0.689,2.352-3.031V18.782h-4.842L179.862,16.164L179.862,16.164z
			 M165.473,30.907h-3.321V27.6h3.321V30.907z M165.473,24.569h-3.321v-2.342h3.321V24.569z M174.604,30.907h-2.905V27.6h2.905
			V30.907z M174.604,24.569h-2.905v-2.342h2.905V24.569z"/>
	</g>
	<g>
		<path style="fill:#CF111B;" d="M111.653,55.156c0.138,0,0.277,0,0.415,0c0.138,0,0.277,0,0.415,0c0,0,0.138,0,0.277,0
			c0.138,0,0.277-0.138,0.415-0.276c0.138-0.138,0.277-0.138,0.415-0.276c0.138-0.138,0.277-0.276,0.277-0.413
			c0,0,0.138-0.138,0.138-0.276c0-0.138,0.138-0.413,0.277-0.551c0-0.138,0.138-0.276,0.138-0.413s0-0.276-0.138-0.276
			c-0.138,0-0.277-0.138-0.415-0.138c-0.138,0-0.277,0-0.415,0c-0.138,0-0.277,0-0.277,0.138c-0.138,0.138-0.415,0.276-0.553,0.413
			c-0.277,0-0.553,0.138-0.83,0.551c-0.277,0.276-0.415,0.551-0.415,0.689c0,0.276,0,0.413,0.138,0.551
			C111.376,55.018,111.514,55.018,111.653,55.156z"/>
		<g>
			<path style="fill:#CF111B;" d="M99.477,50.884c-0.138-0.276-0.277-0.551-0.277-0.551c0-0.138-0.138-0.276-0.415-0.413
				c-0.277-0.276-0.415-0.413-0.553-0.551c-0.138-0.138-0.277-0.138-0.277-0.276c-0.138,0-0.415-0.138-0.553-0.138
				c-0.138,0-0.415-0.138-0.553-0.138H96.71l-0.415-0.138l-1.107,0.138c-0.277,0-0.415,0.138-0.553,0.138
				c-0.138,0-0.277,0.138-0.415,0.138c-0.277,0.138-0.553,0.276-0.692,0.276c-0.277,0.138-0.415,0.276-0.553,0.276
				c0,0-0.138,0.138-0.415,0.276c-0.277,0.138-0.415,0.413-0.83,0.551c-0.968,0.689-1.66,1.516-2.214,2.618
				c-0.553,0.964-0.968,2.067-1.107,3.307l-0.277,1.516c0,0.276,0,0.413,0,0.551c0,0.138,0,0.413-0.138,0.551
				c0.138,0.413,0.277,0.689,0.277,0.964c0.138,0.276,0.138,0.413,0.138,0.413c0.138,0.276,0.277,0.551,0.415,0.689
				c0.138,0.138,0.415,0.413,0.553,0.413c0.277,0.138,0.415,0.276,0.692,0.276c0.138,0.138,0.415,0.138,0.553,0.138s0.277,0,0.415,0
				l0.553,0.138c0.415,0,0.692-0.138,0.968-0.276c0.277-0.138,0.692-0.276,0.968-0.413c0.138-0.138,0.415-0.276,0.692-0.413
				c0.277-0.138,0.692-0.413,1.107-0.689c0.138-0.138,0.415-0.276,0.692-0.413h0.138c0,0,0,0,0,0.138s0,0.138-0.138,0.276
				l0.138,0.689c-0.138,0.413-0.277,0.827-0.277,1.102c-0.138,0.276-0.138,0.551-0.138,0.689c0,0.276,0,0.413,0,0.689
				c0,0.138,0,0.276-0.138,0.413c-0.138,0.276-0.138,0.413-0.138,0.551s0,0.276,0,0.276c0,0.138,0,0.276,0.138,0.413
				c0,0.138,0.138,0.138,0.277,0.138s0.277,0,0.277-0.138c0.138-0.138,0.138-0.138,0.138-0.413c0.138,0,0.415-0.138,0.415-0.138
				c0.138,0,0.138-0.138,0.277-0.138s0.138-0.138,0.138-0.276c0-0.138,0.138-0.276,0.138-0.413c0-0.276,0.138-0.413,0.138-0.551
				c0-0.138,0.138-0.276,0.138-0.276c0.138-0.276,0.277-0.551,0.415-1.102c0.138-0.551,0.138-0.827,0.277-1.102
				c0.138-0.138,0.138-0.413,0.277-0.551c0-0.276,0.138-0.551,0.138-0.827c0-0.276,0.138-0.413,0.138-0.689
				c0-0.138,0-0.276,0.138-0.413c0-0.138,0-0.138,0.138-0.276c0-0.138,0.138-0.276,0.138-0.276c0-0.276-0.138-0.413-0.277-0.551
				s-0.415-0.138-0.692-0.138c-0.277,0-0.415,0-0.692,0.138c-0.138,0.138-0.415,0.276-0.553,0.413s-0.277,0.276-0.415,0.551
				c-0.138,0.138-0.277,0.413-0.415,0.551c-0.138,0.138-0.277,0.276-0.415,0.276c-0.138,0.138-0.277,0.138-0.277,0.276
				c-0.415,0.276-0.692,0.551-0.83,0.827c-0.277,0.138-0.415,0.276-0.415,0.413c-0.277,0.138-0.553,0.276-0.83,0.413
				c-0.277,0.138-0.553,0.138-0.968,0.138c-0.277,0-0.415,0-0.553-0.138c-0.138,0-0.277-0.138-0.415-0.276
				c-0.138,0-0.138-0.138-0.277-0.276c-0.138-0.138-0.138-0.276-0.277-0.551c-0.138-0.276-0.277-0.551-0.277-0.827
				c0-0.276-0.138-0.551-0.138-0.827c0-0.138,0-0.413,0.138-0.827c0-0.413,0.138-0.964,0.277-1.791
				c0.138-0.276,0.138-0.413,0.277-0.551c0-0.138,0.138-0.413,0.138-0.551c0-0.138,0-0.276,0.138-0.276c0-0.138,0-0.138,0.138-0.138
				c0.138-0.138,0.138-0.276,0.277-0.413s0.138-0.276,0.277-0.413c0.138-0.138,0.277-0.413,0.415-0.551
				c0.138-0.138,0.277-0.276,0.277-0.413c0.138-0.138,0.138-0.138,0.138-0.276l0.138-0.138c0.277-0.276,0.415-0.413,0.692-0.689
				c0.138-0.138,0.277-0.276,0.415-0.413c0.277-0.138,0.415-0.276,0.692-0.413c0.277-0.138,0.553-0.138,0.83-0.138
				c0.553,0,0.968,0.138,1.384,0.551c0.415,0.413,0.692,0.964,0.968,1.653c0,0.138,0.138,0.413,0.138,0.689
				c0,0.138,0,0.276,0.138,0.413s0.138,0.138,0.415,0.138c0.277,0,0.553-0.138,0.968-0.551c0.415-0.276,0.692-0.689,0.692-0.827
				s-0.138-0.413-0.277-0.689C99.754,51.16,99.616,51.022,99.477,50.884z"/>
			<path style="fill:#CF111B;" d="M139.877,50.196c0.138,0,0.138,0,0.277,0s0.415,0,0.692-0.138
				c0.277,0.138,0.553,0.138,0.968,0.138c0.277,0,0.553,0,0.968,0h0.138v-0.138c0,0,0-0.138,0-0.276c0-0.138,0-0.138,0-0.276
				c0-0.138,0-0.276,0-0.276c0-0.138,0-0.276,0-0.276c0-0.138-0.138-0.276-0.138-0.276c-0.138-0.138-0.138-0.138-0.277-0.138
				s-0.277,0.138-0.277,0.138c-0.138,0-0.277-0.138-0.277-0.138c-0.138,0-0.138,0-0.277-0.138l-0.277,0.138
				c-0.138,0-0.277,0-0.415-0.138c-0.138,0-0.138,0-0.415,0c-0.138,0-0.277,0-0.415,0c-0.138,0-0.277,0-0.415,0
				c-0.415,0-0.968,0-1.245,0c-0.415,0-0.692,0.138-1.107,0.138c-0.277,0-0.553,0-0.968,0c-0.277,0-0.692,0.138-1.107,0.138
				c-0.138,0-0.415,0.138-0.415,0.276c-0.138,0.138-0.277,0.276-0.277,0.413s0,0.138-0.138,0.413c0,0.138,0,0.413,0,0.551
				c-0.138,0.138-0.138,0.276-0.138,0.413s0,0.138,0,0.276c0,0.138,0,0.138,0,0.138h0.138c0.83-0.138,1.66-0.413,2.49-0.551
				c0.138,0,0.277,0,0.415-0.138c0.138,0,0.277,0,0.277,0l0.138-0.138c0.138,0,0.277,0,0.277,0c0.138,0,0.138,0,0.138,0l0.138,0.138
				c0,0.138,0,0.276,0,0.413s0,0.276,0,0.276c0,0.413-0.138,0.689-0.138,0.964c0,0.276-0.138,0.413-0.138,0.551
				c0,0.138,0.138,0.138,0.138,0.276v0.138c0,0.138-0.138,0.276-0.138,0.413v0.138v0.138c0,0.138,0,0.276,0,0.276
				c0,0.138,0,0.276-0.138,0.413c0,0.138,0,0.276,0,0.413s0,0.276,0,0.276c0,0.138,0,0.413,0,0.689c0,0.276,0,0.551-0.138,0.964
				c0,0.413-0.138,0.689-0.138,0.964c0,0.276,0,0.551,0,0.689c0,0.413,0,0.827,0,1.24c0,0.551,0.138,1.102,0.138,1.653
				c0,0.138,0.138,0.138,0.138,0.138v0.138c0,0.276-0.138,0.413-0.138,0.689c0,0,0,0.138,0.138,0.138c0.138,0,0.138,0,0.415,0h0.138
				l0.138-0.138c0.138,0,0.277-0.138,0.415-0.138l0.138-0.138c0,0,0-0.138,0.138-0.276c0-0.138-0.138-0.276-0.138-0.276
				c0-0.138,0-0.276,0-0.551c0-0.276,0-0.413,0-0.551c0,0,0-0.138,0-0.276c0-0.138,0-0.276,0-0.276s0-0.138,0-0.276
				c0-0.138,0-0.138,0-0.276c0-0.138,0.138-0.138,0.138-0.276c0-0.276,0.138-0.551,0.138-0.827c0-0.276,0.138-0.551,0.138-0.827
				c0-0.138,0-0.413,0.138-0.551c0-0.138,0-0.276,0-0.276c0-0.138,0.138-0.276,0.138-0.413s0.138-0.276,0.138-0.276
				c0-0.138,0.138-0.276,0.138-0.413s0-0.276,0-0.276c0-0.138,0.138-0.413,0.138-0.551c0-0.138,0.138-0.276,0.138-0.413
				s0-0.276,0-0.276c0-0.138,0-0.138,0-0.276c0-0.138,0-0.276,0.138-0.413c0-0.138,0.138-0.413,0.138-0.689
				c0-0.138,0.138-0.276,0.138-0.551c0-0.276,0-0.413,0-0.551v-0.138c0,0,0-0.138,0-0.276c-0.138-0.138-0.138-0.276-0.277-0.413
				s-0.138-0.138-0.138-0.276c-0.138,0-0.138-0.138-0.138-0.138C139.877,50.333,139.739,50.333,139.877,50.196
				C139.739,50.196,139.739,50.196,139.877,50.196z"/>
			<path style="fill:#CF111B;" d="M167.825,59.702c-0.138-0.138-0.277-0.413-0.553-0.138c-0.138,0-0.138,0.138-0.277,0.138
				s-0.138,0-0.138,0.138c-0.138,0.138-0.415,0.138-0.692,0.276c-0.277,0-0.553,0.138-0.83,0.138c-0.138,0-0.415-0.138-0.553-0.138
				c-0.138,0-0.277-0.138-0.277-0.138c-0.138,0-0.138-0.138-0.277-0.276c0-0.138-0.138-0.276-0.138-0.413c0-0.138,0-0.138,0-0.276
				c0-0.138,0.138-0.138,0.138-0.138c0.692-0.551,1.245-0.964,1.66-1.378c0.415-0.413,0.692-0.827,0.83-1.102l0.138-0.276
				c0-0.138,0.138-0.276,0.138-0.413s0-0.413,0-0.551c0-0.138-0.138-0.276-0.138-0.413s-0.138-0.138-0.138-0.276
				c-0.138-0.138-0.138-0.138-0.277-0.138s-0.277,0-0.553,0c-0.138,0-0.277,0-0.415,0c-0.138,0-0.277,0-0.277,0.138
				c-0.138,0-0.277,0.138-0.277,0.138c-0.138,0-0.138,0.138-0.277,0.138c-0.138,0.138-0.415,0.413-0.553,0.551
				c-0.138,0.138-0.415,0.413-0.553,0.551c-0.138,0.276-0.415,0.551-0.553,0.689c-0.138,0.276-0.277,0.413-0.277,0.551
				c0,0.138-0.138,0.276-0.138,0.413s-0.138,0.276-0.138,0.276c0,0.138,0,0.276,0,0.413s-0.138,0.551-0.138,0.689
				c-0.138,0.276-0.277,0.551-0.553,0.827c-0.138,0.138-0.277,0.276-0.415,0.413c0,0-0.277,0.276-0.277,0.413
				c-0.138,0.138-0.277,0.551-0.692,0.413c-0.415-0.138-0.415-0.689-0.415-0.964c0-0.138-0.138-0.689-0.277-0.964
				c-0.138-0.413-0.138-0.827-0.277-1.24c-0.138-0.276-0.277-0.413-0.415-0.413c-0.138-0.138-0.415-0.138-0.692-0.138
				c-0.138,0-0.277,0-0.415,0.138c-0.138,0-0.415,0.138-0.553,0.276c-0.138,0.138-0.415,0.138-0.553,0.276
				c-0.138,0.138-0.277,0.138-0.415,0.276c-0.138,0-0.138,0.138-0.138,0.138l-0.138,0.138c-0.138,0.138-0.277,0.138-0.415,0.276
				c-0.138,0.138-0.277,0.276-0.277,0.276c-0.138,0.138-0.415,0.276-0.415,0.413c-0.138,0.138-0.277,0.276-0.277,0.276l-0.138,0.138
				c0,0-0.138,0-0.138,0.138l-0.138-0.138v-0.138c0,0,0-0.138,0.138-0.276c0-0.138,0.138-0.276,0.138-0.413
				c0.277-0.689,0.553-1.24,0.692-1.791c0.138-0.413,0.138-0.689,0.138-0.827c0-0.276-0.138-0.551-0.138-0.689
				c-0.138-0.138-0.415-0.276-0.692-0.276c-0.277,0-0.553,0-0.83,0.138s-0.553,0.276-0.692,0.551
				c-0.277,0.276-0.415,0.964-0.553,1.24c-0.277,0.138-0.277,0.276-0.553,0.551c-0.277,0.276-0.415,0.276-0.692,0.413
				c-0.277,0.138-0.83,0.413-0.83,0.413c-0.138,0-0.83,0.276-0.968,0.276c-0.415,0,0-1.102,0.138-1.378
				c0-0.551-0.138-1.102-0.415-1.378c-1.245-1.102-2.49-0.827-2.629-0.827s-0.138,0-0.415,0c-0.138,0-0.277,0-0.415,0.138
				c-0.138,0-0.277,0-0.415,0.138c-0.138,0.138-0.277,0.138-0.277,0.276c-0.138,0.138-0.277,0.138-0.415,0.276
				c-0.138,0.138-0.138,0.138-0.277,0.276c-0.138,0.138-0.277,0.138-0.277,0.276c-0.138,0.138-0.415,0.551-0.553,0.551
				c-0.968,1.653-0.968,2.204-1.107,2.48c-0.138,0.276-0.138,0.551-0.138,0.827c0,0.413,0.138,0.689,0.553,1.102
				c0.415,0.276,0.83,0.413,1.245,0.413c0.138,0,0.138,0,0.277,0s0.138,0,0.277,0s0.277,0,0.415,0c0.138,0,0.415-0.138,0.553-0.138
				c0.415-0.138,0.692-0.276,0.968-0.413c0.138-0.138,0.83-0.551,1.384-1.102c0.277-0.276,0.692-0.689,0.968-0.964
				c0.138-0.276,0.277-0.276,0.277-0.413c0.138,0.138,0.138,0.138,0.138,0.276c0.138,0.138,0.553,0,0.692,0s0.415-0.138,0.553-0.138
				s0.415,0,0.553-0.138s0.415,0,0.692-0.276c0.138-0.138,0.277,0,0.277-0.138c0.138-0.138,0.277,0,0.277,0c0.138,0,0.138,0,0.138,0
				s0,0,0,0.138v0.138c0,0,0,0.138-0.138,0.276c0,0.138-0.138,0.138-0.138,0.276c0,0.138,0,0.138,0,0.138
				c-0.138,0.551-0.415,1.102-0.553,1.516c-0.138,0.413-0.277,0.827-0.415,1.102c0,0.138,0,0.413,0.138,0.551
				c0,0.138,0.138,0.276,0.553,0.276c0.138,0,0.277,0,0.415,0c0.138,0,0.277-0.138,0.415-0.138c0.138-0.138,0.277-0.138,0.277-0.276
				c0.138-0.138,0.277-0.138,0.277-0.276c0.415-0.413,0.692-0.689,0.968-0.964c0.277-0.276,0.415-0.413,0.553-0.689
				c0-0.138,0.138-0.138,0.277-0.276c0.138,0,0.415-0.276,0.83-0.551c0.138-0.138,0.277-0.276,0.415-0.276
				c0.138-0.138,0.277-0.138,0.415-0.138h0.138c0.138,0.138,0.277,0.413,0.415,0.551c0.138,0.138,0.277,0.276,0.415,0.413
				c0.138,0.276,0.277,0.413,0.277,0.551c0.138,0.138,0.138,0.276,0.277,0.276c0.138,0.138,0.138,0.276,0.277,0.413
				c0.138,0,0.277,0.138,0.553,0.138c0.138,0,0.553,0,0.692-0.138c0.138,0,0.415-0.138,0.553-0.276
				c0.138-0.138,0.277-0.276,0.415-0.413c0.138-0.138,0.553-0.551,0.553-0.551c0.138,0,0.138-0.138,0.277-0.138
				c0.138,0,0.138,0,0.277,0.138c0,0.138,0.138,0.138,0.138,0.276c0.138,0.138,0.138,0.276,0.277,0.413s0.138,0.276,0.277,0.276
				c0.138,0.138,0.415,0.276,0.553,0.276c0.277,0.138,0.553,0.138,0.83,0.138c0.277,0,0.415,0,0.553,0s1.107-0.276,1.522-0.413
				c0.415-0.138,0.83-0.413,1.245-0.827C167.963,60.391,167.963,59.978,167.825,59.702z M147.487,59.151
				c0,0.138-0.138,0.276-0.138,0.276c0,0.138-0.138,0.138-0.138,0.138c-0.138,0.138-0.277,0.276-0.415,0.413
				c-0.277,0.276-0.553,0.551-0.83,0.827c-0.277,0.138-0.692,0.276-0.968,0.276s-0.415,0-0.553-0.138s-0.138-0.276-0.138-0.413
				s0-0.276,0-0.413s0.138-0.276,0.138-0.551c0.138-0.276,0.138-0.413,0.277-0.551c0.138-0.138,0.138-0.276,0.277-0.276
				s0.138-0.138,0.277-0.276c0.138,0,0.277-0.138,0.277-0.276c0.138-0.138,0.277-0.138,0.415-0.276c0.138-0.138,0.277,0,0.277-0.138
				c0.138,0,0.138-0.138,0.138-0.138c0.277,0,0.415,0,0.553,0.138c0.138,0,0.277,0,0.277,0s0.138,0.138,0.138,0.276
				c0,0.138,0.138,0.276,0.138,0.413L147.487,59.151z M163.812,57.911C163.812,57.773,163.812,57.773,163.812,57.911
				c0-0.276,0.138-0.551,0.415-0.964c0.277-0.413,0.553-0.551,0.692-0.551h0.138v0.138c0,0.138,0,0.138-0.138,0.276
				c0,0.138-0.138,0.138-0.277,0.276c-0.138,0.138-0.138,0.138-0.277,0.276c-0.138,0.138-0.138,0.138-0.277,0.276
				c0,0-0.138,0.138-0.138,0.276C164.089,57.773,164.089,57.911,163.812,57.911L163.812,57.911z"/>
			<path style="fill:#CF111B;" d="M128.67,59.013c0-0.138,0.277-0.413,0.277-0.551c0.138-0.138,0.277-0.138,0.415-0.276
				c0.138-0.138,0.277-0.138,0.415-0.276c0.277-0.276,0.692-0.413,0.968-0.551c0.277-0.276,0.692-0.551,0.83-0.827
				c0.415-0.413,0.553-0.827,0.692-1.102c0.138-0.276,0.277-0.689,0.277-0.827c0-0.276,0.692-0.551,0.553-0.689
				s-0.277-0.276-0.553-0.276s-0.692,0-0.968,0.138s-1.66,0.413-1.937,0.827c-0.553,0.413-0.553,0.689-1.107,1.102
				c-0.277,0.276-0.553,0.827-0.692,0.964c-0.138,0.276-0.415,0.413-0.415,0.689c-0.138,0.138-0.138,0.276-0.277,0.413
				c-0.138,0.138-0.138,0.276-0.277,0.413s-0.277,0.964-0.415,1.102c-0.138,0.138-0.415,0.413-0.415,0.551
				c-0.138,0.138-0.277,0.138-0.277,0.138c-0.138,0-0.277,0.276-0.277,0.413c-0.138,0.138-0.138,0.276-0.553,0.276
				c-0.138,0-0.415-0.551-0.415-0.827c0-0.138-0.138-0.413-0.277-0.689c-0.138-0.413-0.277-0.689-0.415-1.102
				c-0.138-0.276-0.277-0.413-0.553-0.413c-0.138-0.138-0.415-0.138-0.692-0.138c-0.138,0-0.277,0-0.415,0.138
				c-0.138,0-0.415,0.138-0.553,0.276c-0.138,0.138-0.415,0.138-0.553,0.276c-0.138,0.138-0.277,0.138-0.415,0.276
				c-0.138,0-0.138,0.138-0.138,0.138l-0.138,0.138c-0.138,0.138-0.277,0.138-0.415,0.276c-0.138,0.138-0.692,0.551-0.83,0.689
				c-0.138,0.138-0.277,0.276-0.277,0.276l-0.138,0.138c0,0-0.138,0-0.138,0.138l-0.138-0.138v-0.138c0,0,0-0.138,0.138-0.276
				c0-0.138,0.138-0.276,0.138-0.413c0.277-0.689,0.553-1.24,0.692-1.791c0.138-0.413,0.138-0.689,0.138-0.827
				c0-0.276,0-0.551-0.138-0.689c-0.138-0.138-0.415-0.276-0.692-0.276c-0.277,0-0.553,0-0.83,0.138
				c-0.277,0.138-0.553,0.276-0.692,0.551c-0.277,0.276-0.553,0.413-0.692,0.689c-0.138,0.138-0.277,0.413-0.415,0.551
				c0.138,0.276,0.138,0.551-0.138,0.689s-0.277,0.551-0.415,0.689c-0.138,0.138-0.415,0.413-0.553,0.551
				c-0.138,0.138-0.277,0.413-0.415,0.551c0,0.138-0.553,0.551-0.692,0.689c-0.138,0.138-0.692,0.551-0.83,0.689
				c-0.277,0.276-0.138,0.138-0.553,0.413c-0.277,0.276-0.415,0.413-0.692,0.551c-0.277,0-0.277-0.138-0.277-0.413
				c0-0.413,0.277-0.964,0.415-1.24c0.138-0.551,0.553-0.964,0.692-1.378c0.138-0.276,0.553-1.653,0.553-1.929
				c0-0.276,0-0.413-0.138-0.689c0-0.276-0.138-0.413-0.415-0.551c-0.138-0.138-0.415-0.138-0.692-0.138
				c-0.138,0-0.277,0-0.277,0.138c-0.138,0-0.138,0.138-0.277,0.276c-0.277,0.276-1.107,1.516-1.66,1.929
				c-0.553,0.413-0.968,0.276-1.107,0.138l-0.553-0.138c0,0-0.138-0.276-0.138-0.413c0-0.276-0.138-1.24-0.415-1.516
				c-0.277-0.276-0.692-0.551-1.384-0.689c-0.692-0.276-1.107-0.138-1.245-0.138c-0.138,0-0.138,0-0.415,0
				c-0.138,0-0.415,0-0.553,0.138c-0.138,0-0.277,0.138-0.415,0.138c-0.138,0.138-0.277,0.138-0.277,0.276
				c-0.138,0.138-0.277,0.138-0.415,0.276c-0.138,0.138-0.277,0.276-0.277,0.413c-0.138,0.138-0.415,0.551-0.553,0.689
				c-0.692,0.964-0.83,1.516-0.968,1.791c-0.138,0.276-0.138,0.551-0.277,0.827c0.277,0.138,0.277,0.413,0.277,0.689
				c0,0.413,0.138,0.689,0.415,0.964c0.277,0.276,0.83,0.413,1.245,0.413c0.138,0,0.138,0,0.277,0c0.138,0,0.138,0,0.277,0
				s0.277,0,0.553,0c0.138,0,0.415-0.138,0.553-0.138c0.415-0.138,0.553-0.276,0.968-0.413c0.277-0.138,0.553-0.413,0.83-0.551
				c0.277-0.276,0.692-0.551,0.968-0.827c0.277-0.276,0.553-0.551,0.692-0.964c0.138-0.276,0.277-0.964,0.415-0.964
				c0.138,0.138,0.692,0.276,0.692,0.276c0.277,0.276,0.553,0,0.692,0c0.277,0,0.692,0,0.83-0.138
				c0.277-0.138,0.553-0.276,0.692-0.413c0,0-0.553,1.516-0.553,1.929c-0.138,0.276-0.415,0.689-0.415,0.827
				c0,0.276-0.415,0.964-0.277,1.24c0,0.689,0.968,0.689,1.66,0.413c0.138,0,1.107-0.551,1.384-0.689
				c0.277-0.138,0.277-0.138,0.692-0.413c0.277-0.138,0.553-0.551,0.83-0.689c0.277-0.138,0.415-0.276,0.553-0.413l0,0
				c0,0,0,0,0.138-0.138c0,0,0.138,0,0.138-0.138c0.138-0.138,0.553-0.551,0.692-0.689c0,0,0.138-0.138,0.277-0.276
				c0.138-0.138,0.277-0.276,0.553-0.413c0.138-0.138,0.415-0.276,0.415-0.413c0.138-0.138,0.277-0.138,0.277-0.138
				c0.138,0,0.138,0,0.138,0s0,0,0,0.138v0.138c0,0,0,0.138-0.138,0.276c0,0.138-0.138,0.138-0.138,0.276v0.138
				c-0.138,0.551-0.415,1.102-0.553,1.516c-0.138,0.413-0.277,0.827-0.415,1.102c0,0.138,0,0.413,0.138,0.551
				c0,0.138,0.138,0.276,0.553,0.276c0.138,0,0.277,0,0.415,0c0.138,0,0.277-0.138,0.415-0.138c0.138-0.138,0.277-0.138,0.277-0.276
				c0.138-0.138,0.277-0.138,0.277-0.276c0.415-0.413,0.692-0.689,0.968-0.964c0.277-0.276,0.83-0.689,0.968-0.689
				c0.277-0.138,0.415-0.276,0.83-0.551c0.138-0.138,0.277-0.276,0.415-0.276c0.138-0.138,0.553-0.138,0.692-0.138h0.138
				c0.138,0.138,0.277,0.413,0.415,0.551c0.138,0.138,0.138,0.276,0.277,0.413c0.138,0.276,0.138,0.413,0.138,0.551
				c0.138,0.138,0.138,0.276,0.277,0.276c0.138,0.138,0.277,0.276,0.415,0.276c0.138,0,0.415,0.138,0.553,0.138s0.277,0,0.553-0.138
				c0.138,0,0.277-0.138,0.553-0.276c0.138-0.138,0.277-0.138,0.415-0.276c0.138-0.138,0.83-0.551,0.968-0.689
				c0,0.138,0.138,0.138,0.138,0.138c0,0.276,0.138,0.551,0.138,0.827c0.138,0.413,0,0.413,0.138,0.827
				c0.138,0.413,0.277,0.413,0.553,0.827c0,0.138-0.138,0.413-0.277,0.551c-0.138,0.138-0.138,0.276-0.415,0.413
				c-0.138,0.138-0.415,0.413-0.692,0.689c-0.138,0.138-0.277,0.276-0.277,0.413c-0.138,0.138-0.277,0.276-0.415,0.413
				c-0.138,0.138-0.277,0.276-0.277,0.413c-0.138,0.138-0.138,0.276-0.277,0.413c-0.138,0.138-0.138,0.413-0.277,0.413
				c0,0.138,0,0.138,0,0.276c0,0.413-0.138,0.689,0,0.827c0,0.276,0.138,0.551,0.138,0.689c0.138,0.138,0.83,0.551,1.107,0.551
				c0.277,0.138,0.968,0.138,1.384,0c0.968-0.138,0.968-0.413,1.937-1.24c1.107-0.827,1.66-1.516,1.66-2.342
				c0-0.138,0-0.138,0-0.276c0-0.138,0-0.138,0-0.138c-0.138-0.413-0.138-0.827-0.415-1.24c-0.138-0.276-0.277-0.551-0.553-0.827
				c-0.138-0.138-0.277-0.138-0.277-0.276c-0.138-0.138-0.138-0.138-0.138-0.276c0.277-0.276,0.553-0.689,0.83-0.964
				c0.277-0.276,0.415-0.551,0.553-0.689s0.277-0.276,0.277-0.276s0.277-0.276,0.277-0.551c0-0.138,0-0.276-0.138-0.276
				c-0.138-0.138-0.138-0.138-0.277-0.138c-0.277,0-0.415,0-0.415,0c-0.553,0.551-1.107,0.964-1.384,1.378
				c-0.415,0.276-0.415,0.276-0.553,0.413s-0.277,0.138-0.415,0c-0.138,0-0.138-0.138-0.138-0.138
				c-0.277-0.276-0.138-0.276-0.277-0.551c-0.138-0.276,0-0.689,0-0.964C128.67,59.564,128.67,59.427,128.67,59.013z M129.5,56.671
				l0.138-0.413l0.415-0.551l0.83-0.551h0.138h0.138v0.276l-0.277,0.138l-0.138,0.138l-0.277,0.413l-0.415,0.276l-0.415,0.413
				l-0.277,0.276l-0.138,0.138v-0.138L129.5,56.671z M106.118,59.151c0,0.138-0.138,0.276-0.138,0.276
				c0,0.138-0.138,0.138-0.138,0.138c-0.138,0.138-0.277,0.276-0.415,0.413c-0.277,0.276-0.553,0.551-0.83,0.827
				c-0.277,0.138-0.692,0.276-0.968,0.276s-0.415,0-0.553-0.138s-0.138-0.276-0.138-0.413s0-0.276,0-0.413s0.138-0.276,0.138-0.551
				c0.138-0.276,0.138-0.413,0.277-0.551c0.138-0.138,0.138-0.276,0.138-0.276c0.138-0.138,0.138-0.138,0.277-0.276
				c0.138,0,0.277-0.138,0.277-0.276c0.138-0.138,0.277-0.138,0.415-0.276c0.138-0.138,0.277,0,0.277-0.138
				c0.138,0,0.138-0.138,0.138-0.138c0.277,0,0.415,0,0.553,0.138c0.138,0,0.277,0,0.277,0s0.138,0.138,0.138,0.276
				c0,0.138,0.138,0.276,0.138,0.413L106.118,59.151z M128.67,63.836c0.138,0,0.138,0,0.277,0.138
				c0.138,0.138,0.138,0.276,0.277,0.413c0.138,0.138,0.138,0.276,0.138,0.413c0,0.138,0.138,0.276,0.138,0.413
				c0,0.551-0.277,1.102-0.968,1.653c-0.692,0.551-1.245,0.827-1.937,0.827c-0.138,0-0.277,0-0.415-0.138
				c-0.138,0-0.138-0.138-0.138-0.276c0-0.138,0-0.276,0.138-0.551s0.277-0.413,0.277-0.551c0.138-0.276,0.415-0.413,0.553-0.689
				c0.138-0.276,0.277-0.413,0.553-0.689c0.277-0.413,0.553-0.689,0.692-0.827C128.532,63.973,128.532,63.836,128.67,63.836z"/>
		</g>
	</g>
</g>
</svg>
