<?xml version="1.0" encoding="iso-8859-1"?>
<!-- Generator: Adobe Illustrator 22.1.0, SVG Export Plug-In . SVG Version: 6.00 Build 0)  -->
<svg version="1.1" id="&#x56FE;&#x5C42;_1" xmlns="http://www.w3.org/2000/svg" xmlns:xlink="http://www.w3.org/1999/xlink" x="0px"
	 y="0px" viewBox="0 0 37 36" style="enable-background:new 0 0 37 36;" xml:space="preserve">
<path style="fill-rule:evenodd;clip-rule:evenodd;fill:#CCCCCC;" d="M34,28.037v1.968c0,2.761-2.239,5-5,5H5c-2.761,0-5-2.239-5-5
	V12.133c0-2.761,2.239-5,5-5h1.165l14.533-5.846c2.048-0.824,4.38,0.161,5.207,2.2l1.48,3.646H29c2.761,0,5,2.239,5,5v1.968
	c1.657,0,3,1.343,3,3v7.936C37,26.694,35.657,28.037,34,28.037z M23.124,4.605c-0.207-0.51-0.79-0.756-1.302-0.55l-7.65,3.078h9.978
	L23.124,4.605z M31,12.119c0-1.105-0.895-2-2-2H5c-1.105,0-2,0.895-2,2v17.899c0,1.105,0.895,2,2,2h24c1.105,0,2-0.895,2-2v-1.982
	h-4c-1.657,0-3-1.343-3-3v-7.936c0-1.657,1.343-3,3-3h4V12.119z M34,18.087c0-0.552-0.448-1-1-1h-5c-0.552,0-1,0.448-1,1v5.963
	c0,0.552,0.448,1,1,1h5c0.552,0,1-0.448,1-1V18.087z M30,22.064c-1.105,0-2-0.891-2-1.991c0-1.1,0.895-1.991,2-1.991
	s2,0.891,2,1.991C32,21.173,31.105,22.064,30,22.064z"/>
</svg>
