<?xml version="1.0" encoding="iso-8859-1"?>
<!-- Generator: Adobe Illustrator 22.1.0, SVG Export Plug-In . SVG Version: 6.00 Build 0)  -->
<svg version="1.1" id="&#x56FE;&#x5C42;_1" xmlns="http://www.w3.org/2000/svg" xmlns:xlink="http://www.w3.org/1999/xlink" x="0px"
	 y="0px" viewBox="0 0 60 60" style="enable-background:new 0 0 60 60;" xml:space="preserve">
<g>
	<g>
		<path style="fill-rule:evenodd;clip-rule:evenodd;fill:#50B33D;" d="M40,39c-1.105,0-2,0.895-2,2s0.895,2,2,2s2-0.895,2-2
			S41.105,39,40,39z M31,18H16c-0.552,0-1,0.448-1,1v19c0,0.552,0.448,1,1,1h0.422c0.772-1.764,2.529-3,4.578-3s3.806,1.236,4.578,3
			H31c0.552,0,1-0.448,1-1V19C32,18.448,31.552,18,31,18z M26.5,31h-6c-0.828,0-1.5-0.672-1.5-1.5c0-0.828,0.672-1.5,1.5-1.5h6
			c0.828,0,1.5,0.672,1.5,1.5C28,30.328,27.328,31,26.5,31z M26.5,25h-6c-0.828,0-1.5-0.672-1.5-1.5c0-0.828,0.672-1.5,1.5-1.5h6
			c0.828,0,1.5,0.672,1.5,1.5C28,24.328,27.328,25,26.5,25z M21,39c-1.105,0-2,0.895-2,2s0.895,2,2,2s2-0.895,2-2S22.105,39,21,39z
			 M38,23h-3v6h9L38,23z M35,39h0.422c0.772-1.764,2.529-3,4.578-3s3.806,1.236,4.578,3H46v-7H35V39z M30,0C13.432,0,0,13.432,0,30
			s13.432,30,30,30s30-13.432,30-30S46.568,0,30,0z M48.5,42h-3.601c-0.463,2.282-2.48,4-4.899,4s-4.436-1.718-4.899-4h-9.202
			c-0.463,2.282-2.48,4-4.899,4s-4.436-1.718-4.899-4H16c-2.209,0-4-1.791-4-4V18c0-1.657,1.343-3,3-3h17c1.657,0,3,1.343,3,3v2h2
			c0,0,0.001,0,0.001,0c0.23,0,0.457,0.028,0.684,0.069c0.086,0.015,0.169,0.033,0.253,0.053c0.197,0.048,0.393,0.107,0.586,0.182
			c0.012,0.005,0.026,0.008,0.038,0.013C39.443,20.666,40.273,21.273,41,22l5,5c0.107,0.107,3,2.677,3,5v7.101
			c0.58,0.208,1,0.748,1,1.399C50,41.328,49.328,42,48.5,42z"/>
	</g>
</g>
</svg>
