<?xml version="1.0" encoding="iso-8859-1"?>
<!-- Generator: Adobe Illustrator 22.1.0, SVG Export Plug-In . SVG Version: 6.00 Build 0)  -->
<svg version="1.1" id="&#x56FE;&#x5C42;_1" xmlns="http://www.w3.org/2000/svg" xmlns:xlink="http://www.w3.org/1999/xlink" x="0px"
	 y="0px" viewBox="0 0 60 60" style="enable-background:new 0 0 60 60;" xml:space="preserve">
<g>
	<g>
		<path style="fill-rule:evenodd;clip-rule:evenodd;fill:#50B33D;" d="M36,33c0,1.105-0.895,2-2,2h-8c-1.105,0-2-0.895-2-2v-6h-6v15
			h24V27h-6V33z M24,18h-8v6h8V18z M30,0C13.432,0,0,13.432,0,30s13.432,30,30,30s30-13.432,30-30S46.568,0,30,0z M47,25
			c0,1.105-0.895,2-2,2v16c0,1.105-0.895,2-2,2H17c-1.105,0-2-0.895-2-2V27c-1.105,0-2-0.895-2-2v-8c0-1.105,0.895-2,2-2h30
			c1.105,0,2,0.895,2,2V25z M33,18h-6v14h6V18z M36,24h8v-6h-8V24z"/>
	</g>
</g>
</svg>
