<?xml version="1.0" encoding="iso-8859-1"?>
<!-- Generator: Adobe Illustrator 22.1.0, SVG Export Plug-In . SVG Version: 6.00 Build 0)  -->
<svg version="1.1" id="&#x56FE;&#x5C42;_1" xmlns="http://www.w3.org/2000/svg" xmlns:xlink="http://www.w3.org/1999/xlink" x="0px"
	 y="0px" viewBox="0 0 38 36" style="enable-background:new 0 0 38 36;" xml:space="preserve">
<path style="opacity:0.1;fill-rule:evenodd;clip-rule:evenodd;fill:#50B33D;" d="M33,13.5v18H5v-18H3v-9h12v17h8v-17h12v9H33z"/>
<path style="fill-rule:evenodd;clip-rule:evenodd;fill:#50B33D;" d="M34,15v16c0,1.105-0.895,2-2,2H6c-1.105,0-2-0.895-2-2V15
	c-1.105,0-2-0.895-2-2V5c0-1.105,0.895-2,2-2h30c1.105,0,2,0.895,2,2v8C36,14.105,35.105,15,34,15z M13,6H5v6h8V6z M22,6h-6v14h6V6z
	 M23,23h-8c-1.105,0-2-0.895-2-2v-6H7v15h24V15h-6v6C25,22.105,24.105,23,23,23z M33,6h-8v6h8V6z"/>
</svg>
