<?xml version="1.0" encoding="iso-8859-1"?>
<!-- Generator: Adobe Illustrator 22.1.0, SVG Export Plug-In . SVG Version: 6.00 Build 0)  -->
<svg version="1.1" id="&#x56FE;&#x5C42;_1" xmlns="http://www.w3.org/2000/svg" xmlns:xlink="http://www.w3.org/1999/xlink" x="0px"
	 y="0px" viewBox="0 0 60 60" style="enable-background:new 0 0 60 60;" xml:space="preserve">
<g>
	<g>
		<path style="fill:#50B33D;" d="M30,0C13.432,0,0,13.432,0,30s13.432,30,30,30s30-13.432,30-30S46.568,0,30,0z M43,45
			c0,1.657-1.343,3-3,3H18c-1.657,0-3-1.343-3-3V15c0-1.657,1.343-3,3-3h22c1.657,0,3,1.343,3,3v11c0,0,0,0.323,0,0.5
			c0,0.828-0.672,1.5-1.5,1.5S40,27.328,40,26.5c0-0.177,0-0.5,0-0.5V15H18v30h22c0,0,0-0.323,0-0.5c0-0.828,0.672-1.5,1.5-1.5
			s1.5,0.672,1.5,1.5C43,44.677,43,45,43,45z M22.5,31c-0.828,0-1.5-0.672-1.5-1.5s0.672-1.5,1.5-1.5h11c0.828,0,1.5,0.672,1.5,1.5
			S34.329,31,33.5,31H22.5z M31,36.5c0,0.828-0.672,1.5-1.5,1.5h-7c-0.828,0-1.5-0.672-1.5-1.5s0.672-1.5,1.5-1.5h7
			C30.328,35,31,35.672,31,36.5z M22.5,24c-0.828,0-1.5-0.672-1.5-1.5s0.672-1.5,1.5-1.5h13c0.828,0,1.5,0.672,1.5,1.5
			S36.328,24,35.5,24H22.5z M47.538,32.533l-6.897,6.897c-0.028,0.034-0.04,0.076-0.072,0.108c-0.295,0.295-0.682,0.437-1.069,0.432
			c-0.386,0.005-0.774-0.137-1.069-0.432c-0.032-0.032-0.044-0.074-0.072-0.108l-2.897-2.897c-0.58-0.58-0.58-1.521,0-2.102
			c0.58-0.58,1.521-0.58,2.102,0l1.937,1.936l5.936-5.936c0.58-0.58,1.521-0.58,2.102,0C48.118,31.011,48.118,31.952,47.538,32.533z
			"/>
	</g>
</g>
</svg>
