<?xml version="1.0" encoding="iso-8859-1"?>
<!-- Generator: Adobe Illustrator 22.1.0, SVG Export Plug-In . SVG Version: 6.00 Build 0)  -->
<svg version="1.1" id="&#x56FE;&#x5C42;_1" xmlns="http://www.w3.org/2000/svg" xmlns:xlink="http://www.w3.org/1999/xlink" x="0px"
	 y="0px" viewBox="0 0 36 36" style="enable-background:new 0 0 36 36;" xml:space="preserve">
<path style="fill-rule:evenodd;clip-rule:evenodd;fill:#CCCCCC;" d="M34.714,17.085l-1.403,1.403c-0.387,0.387-1.015,0.387-1.402,0
	l-1.403-1.403c-0.387-0.387-0.387-1.015,0-1.402l1.403-1.403c0.387-0.387,1.015-0.387,1.402,0l1.403,1.403
	C35.101,16.07,35.101,16.698,34.714,17.085z M31.208,20.592l-0.7,0.7l0.005,0.005l-7.72,7.711l-2.795-0.01l-0.01-2.795l7.711-7.72
	l0.005,0.005l0.7-0.7c0.387-0.387,1.015-0.387,1.402,0l1.403,1.403C31.595,19.576,31.595,20.204,31.208,20.592z M8.495,23h7
	c0.828,0,1.5,0.672,1.5,1.5s-0.672,1.5-1.5,1.5h-7c-0.828,0-1.5-0.672-1.5-1.5S7.667,23,8.495,23z M6.995,10.5
	c0-0.828,0.672-1.5,1.5-1.5h13c0.828,0,1.5,0.672,1.5,1.5s-0.672,1.5-1.5,1.5h-13C7.667,12,6.995,11.328,6.995,10.5z M19.495,19h-11
	c-0.828,0-1.5-0.672-1.5-1.5s0.672-1.5,1.5-1.5h11c0.828,0,1.5,0.672,1.5,1.5S20.324,19,19.495,19z M27.495,14
	c-0.828,0-1.5-0.672-1.5-1.5c0-0.177,0-0.5,0-0.5V3h-22v30h22v-2c0,0,0-0.323,0-0.5c0-0.828,0.672-1.5,1.5-1.5s1.5,0.672,1.5,1.5
	c0,0.177,0,0.5,0,0.5v2c0,1.657-1.343,3-3,3h-22c-1.657,0-3-1.343-3-3V3c0-1.657,1.343-3,3-3h22c1.657,0,3,1.343,3,3v9
	c0,0,0,0.323,0,0.5C28.995,13.328,28.324,14,27.495,14z"/>
</svg>
