<?xml version="1.0" encoding="iso-8859-1"?>
<!-- Generator: Adobe Illustrator 22.1.0, SVG Export Plug-In . SVG Version: 6.00 Build 0)  -->
<svg version="1.1" id="&#x56FE;&#x5C42;_1" xmlns="http://www.w3.org/2000/svg" xmlns:xlink="http://www.w3.org/1999/xlink" x="0px"
	 y="0px" viewBox="0 0 34 34" style="enable-background:new 0 0 34 34;" xml:space="preserve">
<path style="fill-rule:evenodd;clip-rule:evenodd;fill:#CCCCCC;" d="M32,14v16c0,1.105-0.895,2-2,2H4c-1.105,0-2-0.895-2-2V14
	c-1.105,0-2-0.895-2-2V4c0-1.105,0.895-2,2-2h30c1.105,0,2,0.895,2,2v8C34,13.105,33.105,14,32,14z M11,5H3v6h8V5z M20,5h-6v14h6V5z
	 M21,22h-8c-1.105,0-2-0.895-2-2v-6H5v15h24V14h-6v6C23,21.105,22.105,22,21,22z M31,5h-8v6h8V5z"/>
</svg>
