<?xml version="1.0" encoding="iso-8859-1"?>
<!-- Generator: Adobe Illustrator 22.1.0, SVG Export Plug-In . SVG Version: 6.00 Build 0)  -->
<svg version="1.1" id="&#x56FE;&#x5C42;_1" xmlns="http://www.w3.org/2000/svg" xmlns:xlink="http://www.w3.org/1999/xlink" x="0px"
	 y="0px" viewBox="0 0 60 60" style="enable-background:new 0 0 60 60;" xml:space="preserve">
<g>
	<g>
		<path style="fill-rule:evenodd;clip-rule:evenodd;fill:#50B33D;" d="M45,28.082h-5c-0.552,0-1,0.448-1,1v5.963
			c0,0.552,0.448,1,1,1h5c0.552,0,1-0.448,1-1v-5.963C46,28.53,45.552,28.082,45,28.082z M42,33.06c-1.105,0-2-0.891-2-1.991
			c0-1.1,0.895-1.991,2-1.991s2,0.891,2,1.991C44,32.168,43.105,33.06,42,33.06z M36,36.032v-7.936c0-1.657,1.343-3,3-3h4v-1.982
			c0-1.105-0.895-2-2-2H17c-1.105,0-2,0.895-2,2v17.899c0,1.105,0.895,2,2,2h24c1.105,0,2-0.895,2-2v-1.982h-4
			C37.343,39.032,36,37.689,36,36.032z M35.124,15.6c-0.207-0.51-0.79-0.756-1.302-0.55l-7.65,3.078h9.978L35.124,15.6z M30,0
			C13.432,0,0,13.432,0,30s13.432,30,30,30s30-13.432,30-30S46.568,0,30,0z M49,36.032c0,1.657-1.343,3-3,3V41c0,2.761-2.239,5-5,5
			H17c-2.761,0-5-2.239-5-5V23.128c0-2.761,2.239-5,5-5h1.165l14.533-5.846c2.048-0.824,4.379,0.161,5.207,2.2l1.48,3.646H41
			c2.761,0,5,2.239,5,5v1.968c1.657,0,3,1.343,3,3V36.032z"/>
	</g>
</g>
</svg>
