<?xml version="1.0" encoding="iso-8859-1"?>
<!-- Generator: Adobe Illustrator 22.1.0, SVG Export Plug-In . SVG Version: 6.00 Build 0)  -->
<svg version="1.1" id="&#x56FE;&#x5C42;_1" xmlns="http://www.w3.org/2000/svg" xmlns:xlink="http://www.w3.org/1999/xlink" x="0px"
	 y="0px" viewBox="0 0 38 36" style="enable-background:new 0 0 38 36;" xml:space="preserve">
<path style="opacity:0.1;fill-rule:evenodd;clip-rule:evenodd;fill:#50B33D;" d="M26,16.587v9.954h6v6.968H2V9.619h30v6.968H26z"/>
<path style="fill-rule:evenodd;clip-rule:evenodd;fill:#50B33D;" d="M34.5,28.037v1.968c0,2.761-2.239,5-5,5h-24
	c-2.761,0-5-2.239-5-5V12.133c0-2.761,2.239-5,5-5h1.165l14.533-5.846c2.048-0.824,4.38,0.161,5.207,2.2l1.48,3.646H29.5
	c2.761,0,5,2.239,5,5v1.968c1.657,0,3,1.343,3,3v7.936C37.5,26.694,36.157,28.037,34.5,28.037z M23.624,4.605
	c-0.207-0.51-0.79-0.756-1.302-0.55l-7.65,3.078h9.978L23.624,4.605z M31.5,12.119c0-1.105-0.895-2-2-2h-24c-1.105,0-2,0.895-2,2
	v17.899c0,1.105,0.895,2,2,2h24c1.105,0,2-0.895,2-2v-1.982h-4c-1.657,0-3-1.343-3-3v-7.936c0-1.657,1.343-3,3-3h4V12.119z
	 M34.5,18.087c0-0.552-0.448-1-1-1h-5c-0.552,0-1,0.448-1,1v5.963c0,0.552,0.448,1,1,1h5c0.552,0,1-0.448,1-1V18.087z M30.5,22.064
	c-1.105,0-2-0.891-2-1.991c0-1.1,0.895-1.991,2-1.991s2,0.891,2,1.991C32.5,21.173,31.605,22.064,30.5,22.064z"/>
</svg>
