<?xml version="1.0" encoding="iso-8859-1"?>
<!-- Generator: Adobe Illustrator 22.1.0, SVG Export Plug-In . SVG Version: 6.00 Build 0)  -->
<svg version="1.1" id="&#x56FE;&#x5C42;_1" xmlns="http://www.w3.org/2000/svg" xmlns:xlink="http://www.w3.org/1999/xlink" x="0px"
	 y="0px" viewBox="0 0 60 60" style="enable-background:new 0 0 60 60;" xml:space="preserve">
<g>
	<g>
		<path style="fill-rule:evenodd;clip-rule:evenodd;fill:#50B33D;" d="M30,0C13.432,0,0,13.432,0,30s13.432,30,30,30
			s30-13.432,30-30S46.568,0,30,0z M44,43v2c0,1.657-1.343,3-3,3H19c-1.657,0-3-1.343-3-3V15c0-1.657,1.343-3,3-3h22
			c1.657,0,3,1.343,3,3v9c0,0,0,0.323,0,0.5c0,0.828-0.672,1.5-1.5,1.5S41,25.328,41,24.5c0-0.177,0-0.5,0-0.5v-9H19v30h22v-2
			c0,0,0-0.323,0-0.5c0-0.828,0.672-1.5,1.5-1.5s1.5,0.672,1.5,1.5C44,42.677,44,43,44,43z M23.5,31c-0.828,0-1.5-0.672-1.5-1.5
			c0-0.828,0.672-1.5,1.5-1.5h11c0.828,0,1.5,0.672,1.5,1.5c0,0.828-0.672,1.5-1.5,1.5H23.5z M32,36.5c0,0.828-0.672,1.5-1.5,1.5h-7
			c-0.828,0-1.5-0.672-1.5-1.5c0-0.828,0.672-1.5,1.5-1.5h7C31.328,35,32,35.672,32,36.5z M23.5,24c-0.828,0-1.5-0.672-1.5-1.5
			s0.672-1.5,1.5-1.5h13c0.828,0,1.5,0.672,1.5,1.5S37.328,24,36.5,24H23.5z M46.212,32.592l-0.7,0.7l0.005,0.005l-7.72,7.711
			l-2.795-0.01l-0.01-2.795l7.711-7.72l0.005,0.005l0.7-0.7c0.387-0.387,1.015-0.387,1.403,0l1.402,1.403
			C46.6,31.576,46.6,32.204,46.212,32.592z M49.719,29.085l-1.403,1.403c-0.387,0.387-1.015,0.387-1.403,0l-1.403-1.403
			c-0.387-0.387-0.387-1.015,0-1.403l1.403-1.402c0.387-0.387,1.015-0.387,1.403,0l1.403,1.402
			C50.106,28.07,50.106,28.698,49.719,29.085z"/>
	</g>
</g>
</svg>
