<?xml version="1.0" encoding="iso-8859-1"?>
<!-- Generator: Adobe Illustrator 22.1.0, SVG Export Plug-In . SVG Version: 6.00 Build 0)  -->
<svg version="1.1" id="&#x56FE;&#x5C42;_1" xmlns="http://www.w3.org/2000/svg" xmlns:xlink="http://www.w3.org/1999/xlink" x="0px"
	 y="0px" viewBox="0 0 34 36" style="enable-background:new 0 0 34 36;" xml:space="preserve">
<path style="opacity:0.1;fill-rule:evenodd;clip-rule:evenodd;fill:#50B33D;" d="M1.5,2h25v32h-25V2z"/>
<path style="fill-rule:evenodd;clip-rule:evenodd;fill:#50B33D;" d="M33.714,17.085l-1.403,1.403c-0.387,0.387-1.015,0.387-1.402,0
	l-1.403-1.403c-0.387-0.387-0.387-1.015,0-1.402l1.403-1.403c0.387-0.387,1.015-0.387,1.402,0l1.403,1.403
	C34.101,16.07,34.101,16.698,33.714,17.085z M30.208,20.592l-0.7,0.7l0.005,0.005l-7.72,7.711l-2.795-0.01l-0.01-2.795l7.711-7.72
	l0.005,0.005l0.7-0.7c0.387-0.387,1.015-0.387,1.402,0l1.403,1.403C30.595,19.576,30.595,20.204,30.208,20.592z M7.495,23h7
	c0.828,0,1.5,0.672,1.5,1.5s-0.672,1.5-1.5,1.5h-7c-0.828,0-1.5-0.672-1.5-1.5S6.667,23,7.495,23z M5.995,10.5
	c0-0.828,0.672-1.5,1.5-1.5h13c0.828,0,1.5,0.672,1.5,1.5s-0.672,1.5-1.5,1.5h-13C6.667,12,5.995,11.328,5.995,10.5z M18.495,19h-11
	c-0.828,0-1.5-0.672-1.5-1.5s0.672-1.5,1.5-1.5h11c0.828,0,1.5,0.672,1.5,1.5S19.324,19,18.495,19z M26.495,14
	c-0.828,0-1.5-0.672-1.5-1.5c0-0.177,0-0.5,0-0.5V3h-22v30h22v-2c0,0,0-0.323,0-0.5c0-0.828,0.672-1.5,1.5-1.5s1.5,0.672,1.5,1.5
	c0,0.177,0,0.5,0,0.5v2c0,1.657-1.343,3-3,3h-22c-1.657,0-3-1.343-3-3V3c0-1.657,1.343-3,3-3h22c1.657,0,3,1.343,3,3v9
	c0,0,0,0.323,0,0.5C27.995,13.328,27.324,14,26.495,14z"/>
</svg>
