<?xml version="1.0" encoding="iso-8859-1"?>
<!-- Generator: Adobe Illustrator 22.1.0, SVG Export Plug-In . SVG Version: 6.00 Build 0)  -->
<svg version="1.1" id="&#x56FE;&#x5C42;_1" xmlns="http://www.w3.org/2000/svg" xmlns:xlink="http://www.w3.org/1999/xlink" x="0px"
	 y="0px" viewBox="0 0 38 34" style="enable-background:new 0 0 38 34;" xml:space="preserve">
<path style="fill-rule:evenodd;clip-rule:evenodd;fill:#CCCCCC;" d="M38,27c0,0.828-0.672,1.5-1.5,1.5H35h-2.101
	c-0.463,2.282-2.48,4-4.899,4s-4.436-1.718-4.899-4h-9.202c-0.463,2.282-2.48,4-4.899,4s-4.436-1.718-4.899-4H4
	c-2.209,0-4-1.791-4-4v-5v-1v-2v-8v-4c0-1.657,1.343-3,3-3h17c1.657,0,3,1.343,3,3v2h2c0,0,0.001,0,0.001,0
	c0.23,0,0.457,0.028,0.684,0.069c0.086,0.015,0.169,0.033,0.253,0.053c0.197,0.048,0.393,0.107,0.586,0.182
	c0.012,0.005,0.026,0.008,0.038,0.013C27.442,7.166,28.273,7.773,29,8.5l5,5c0.107,0.107,3,2.677,3,5c0,0,0,0,0,0l0,0v7.101
	C37.58,25.808,38,26.349,38,27z M9,29.5c1.105,0,2-0.895,2-2s-0.895-2-2-2s-2,0.895-2,2S7.895,29.5,9,29.5z M20,5.5
	c0-0.552-0.448-1-1-1H4c-0.552,0-1,0.448-1,1v19c0,0.552,0.448,1,1,1h0.422c0.772-1.764,2.529-3,4.578-3s3.806,1.236,4.578,3H19
	c0.552,0,1-0.448,1-1V5.5z M28,29.5c1.105,0,2-0.895,2-2s-0.895-2-2-2s-2,0.895-2,2S26.895,29.5,28,29.5z M26,9.5h-3v6h9L26,9.5z
	 M34,18.5H23v7h0.422c0.772-1.764,2.529-3,4.578-3s3.806,1.236,4.578,3H34V18.5z M14.5,17.5h-6C7.672,17.5,7,16.828,7,16
	s0.672-1.5,1.5-1.5h6c0.828,0,1.5,0.672,1.5,1.5S15.328,17.5,14.5,17.5z M14.5,11.5h-6C7.672,11.5,7,10.828,7,10s0.672-1.5,1.5-1.5
	h6c0.828,0,1.5,0.672,1.5,1.5S15.328,11.5,14.5,11.5z"/>
</svg>
